<svg xmlns="http://www.w3.org/2000/svg" xmlns:v="https://svgstorm.com"
viewBox = "0 0 1080 1080"
width="1080"
height="1080">
<g fill="None" fill-opacity="0.0" stroke="#000000" stroke-opacity="0.00" stroke-width="0.3"><path d="
M 0.00 1080.00 
L 1080.00 1080.00
L 1080.00 0.00
L 0.00 0.00
L 0.00 1080.00
M 104.00 336.00 
C 106.70 355.80 110.56 375.36 114.00 395.00 C 117.43 414.64 121.57 434.39 124.98 454.02 C 128.38 473.66 132.04 493.67 135.93 513.07 C 139.81 532.48 142.03 553.65 146.33 572.67 C 150.63 591.69 152.38 613.72 157.00 632.00 C 161.61 650.28 158.87 674.00 178.00 681.00
C 178.00 688.67 178.00 696.33 178.00 704.00
C 157.67 704.00 137.33 704.00 117.00 704.00
C 117.00 696.00 117.00 688.00 117.00 680.00
C 138.83 679.14 129.02 656.59 127.07 641.93 C 125.12 627.27 120.79 608.17 119.00 593.00
C 99.00 593.00 79.00 593.00 59.00 593.00
C 58.11 607.71 52.19 625.81 51.00 640.00 C 49.81 654.20 38.27 678.62 59.00 680.00
C 59.00 688.00 59.00 696.00 59.00 704.00
C 46.00 704.00 33.00 704.00 20.00 704.00
C 20.00 696.00 20.00 688.00 20.00 680.00
C 34.05 678.26 32.69 664.58 35.33 653.33 C 37.97 642.08 39.84 628.79 42.00 617.00 C 44.15 605.21 46.69 592.88 48.93 580.93 C 51.16 568.97 52.69 555.99 55.00 544.00 C 57.31 532.01 59.82 519.98 61.98 507.98 C 64.14 495.97 65.76 483.97 68.00 472.00 C 70.23 460.03 72.80 447.94 74.98 435.98 C 77.16 424.02 78.81 411.08 81.33 399.33 C 83.85 387.58 85.26 374.35 87.99 362.99 C 90.73 351.63 87.69 332.39 104.00 336.00
M 672.00 558.00 
C 673.02 579.67 670.64 607.99 672.00 629.00 C 673.36 650.01 663.54 679.08 689.00 683.00
C 689.00 691.00 689.00 699.00 689.00 707.00
C 668.33 707.00 647.66 707.00 627.00 707.00
C 627.00 699.00 627.00 691.00 627.00 683.00
C 649.07 675.94 641.03 649.81 642.00 629.00 C 642.97 608.20 641.77 581.75 642.00 560.00 C 642.23 538.25 642.34 511.73 642.00 490.00 C 641.66 468.27 643.17 441.73 642.00 421.00 C 640.83 400.27 649.64 372.00 627.00 366.00
C 627.00 358.00 627.00 350.00 627.00 342.00
C 651.59 345.78 680.81 336.96 704.01 340.99 C 727.21 345.03 731.68 368.30 736.33 388.67 C 740.98 409.05 740.28 441.72 739.00 464.00 C 737.72 486.28 734.05 509.35 724.23 529.23 C 714.40 549.11 694.22 560.15 672.00 558.00
M 508.00 518.00 
C 503.33 518.00 498.67 518.00 494.00 518.00
C 491.89 506.97 494.91 495.73 492.22 484.78 C 489.53 473.82 477.70 483.34 475.08 492.08 C 472.45 500.81 467.91 510.10 469.00 521.00 C 470.09 531.90 468.53 545.57 469.00 557.00 C 469.47 568.43 468.83 581.43 469.00 593.00 C 469.17 604.57 469.04 616.45 469.00 628.00 C 468.96 639.55 469.25 652.66 469.00 664.00 C 468.75 675.34 476.03 681.87 487.00 682.00
C 487.00 690.00 487.00 698.00 487.00 706.00
C 466.00 706.00 445.00 706.00 424.00 706.00
C 424.00 698.00 424.00 690.00 424.00 682.00
C 444.74 676.59 438.41 652.64 439.00 634.00 C 439.59 615.36 439.08 590.20 439.00 571.00 C 438.92 551.80 439.81 526.57 439.00 508.00 C 438.19 489.43 445.39 463.29 424.00 459.00
C 424.00 451.00 424.00 443.00 424.00 435.00
C 439.00 435.00 454.00 435.00 469.00 435.00
C 469.67 449.17 467.67 464.66 470.00 478.00
C 470.23 470.85 474.65 462.07 476.77 455.77 C 478.89 449.47 483.29 441.47 486.77 436.77 C 490.25 432.07 502.98 424.13 507.22 430.78 C 511.47 437.42 506.56 450.54 508.00 459.00 C 509.44 467.47 507.27 478.83 508.00 488.00 C 508.73 497.17 507.45 508.62 508.00 518.00
M 613.00 574.00 
C 591.82 571.75 569.60 573.61 548.00 573.00
C 547.81 590.86 548.54 613.53 551.99 630.01 C 555.44 646.49 558.68 661.04 572.75 671.25 C 586.82 681.47 603.13 667.20 613.00 657.00
C 614.16 674.64 616.41 697.27 599.92 704.92 C 583.43 712.58 567.69 715.58 553.92 704.08 C 540.15 692.59 537.14 681.97 530.69 666.31 C 524.25 650.64 522.78 633.47 520.00 616.00 C 517.22 598.53 518.54 575.38 518.00 557.00 C 517.46 538.62 520.20 516.85 522.98 499.98 C 525.75 483.11 530.67 468.02 537.77 453.77 C 544.87 439.52 556.69 425.70 573.67 429.33 C 590.65 432.96 596.22 446.68 601.93 462.07 C 607.63 477.46 609.27 496.31 611.00 514.00 C 612.73 531.69 613.72 555.20 613.00 574.00
M 850.00 683.00 
C 848.57 692.97 854.81 705.93 844.77 710.77 C 834.73 715.61 827.06 711.84 821.70 703.30 C 816.34 694.77 815.20 685.83 812.00 677.00
C 809.19 691.92 787.87 724.78 769.77 709.23 C 751.68 693.68 751.04 671.62 748.01 648.99 C 744.97 626.36 749.81 597.06 756.93 575.93 C 764.04 554.79 784.94 541.03 808.00 545.00
C 809.27 528.15 806.45 502.16 807.67 486.33 C 808.89 470.50 799.98 445.82 783.25 457.25 C 766.53 468.69 778.00 491.30 773.00 507.00
C 767.67 507.00 762.33 507.00 757.00 507.00
C 755.24 493.50 759.34 478.33 757.00 465.00 C 754.66 451.67 762.00 443.34 772.23 437.23 C 782.46 431.12 794.43 427.65 805.67 431.33 C 816.92 435.01 822.39 441.91 827.77 452.23 C 833.15 462.55 834.24 473.78 836.00 486.00 C 837.76 498.22 838.20 513.68 838.00 527.00 C 837.80 540.32 837.96 555.54 838.00 569.00 C 838.04 582.46 837.71 598.86 838.00 612.00 C 838.29 625.14 837.25 641.92 838.00 654.00 C 838.75 666.08 836.53 683.78 850.00 683.00
M 941.00 510.00 
C 936.33 510.00 931.67 510.00 927.00 510.00
C 922.75 493.45 932.44 473.68 919.23 459.77 C 906.02 445.86 893.39 467.93 893.00 482.00 C 892.62 496.07 889.81 518.65 900.92 530.08 C 912.03 541.51 919.50 548.53 929.25 560.75 C 939.01 572.96 943.55 585.49 946.99 601.01 C 950.44 616.53 950.43 637.97 948.01 654.01 C 945.58 670.04 941.17 683.95 932.70 697.70 C 924.22 711.44 907.41 716.83 892.78 712.22 C 878.15 707.61 861.81 702.56 863.00 684.00 C 864.19 665.44 862.11 643.83 863.00 625.00
C 867.67 625.00 872.33 625.00 877.00 625.00
C 876.89 639.60 878.29 659.71 882.32 672.68 C 886.36 685.65 903.16 696.26 912.25 684.25 C 921.33 672.23 921.00 654.91 920.02 640.98 C 919.05 627.04 912.91 614.75 903.25 604.75 C 893.58 594.76 885.89 587.96 879.08 575.92 C 872.27 563.88 867.47 551.33 865.02 536.98 C 862.58 522.63 862.85 502.41 864.93 487.93 C 867.00 473.44 869.88 459.85 877.77 447.77 C 885.66 435.69 899.32 428.37 913.67 431.33 C 928.02 434.29 943.27 439.70 941.00 457.00 C 938.73 474.30 942.70 492.61 941.00 510.00
M 1045.00 510.00 
C 1040.33 510.00 1035.67 510.00 1031.00 510.00
C 1026.75 493.45 1036.44 473.68 1023.23 459.77 C 1010.02 445.86 997.39 467.93 997.00 482.00 C 996.62 496.07 993.81 518.65 1004.92 530.08 C 1016.03 541.51 1023.50 548.53 1033.25 560.75 C 1043.01 572.96 1047.55 585.49 1050.99 601.01 C 1054.44 616.53 1054.43 637.97 1052.01 654.01 C 1049.59 670.04 1045.17 683.95 1036.70 697.70 C 1028.22 711.44 1011.41 716.83 996.78 712.22 C 982.15 707.61 965.81 702.56 967.00 684.00 C 968.19 665.44 966.11 643.83 967.00 625.00
C 971.67 625.00 976.33 625.00 981.00 625.00
C 980.89 639.60 982.29 659.71 986.32 672.68 C 990.36 685.65 1007.17 696.26 1016.25 684.25 C 1025.33 672.23 1025.00 654.91 1024.02 640.98 C 1023.05 627.04 1016.91 614.75 1007.25 604.75 C 997.58 594.76 989.89 587.96 983.08 575.92 C 976.27 563.88 971.47 551.33 969.02 536.98 C 966.58 522.63 966.85 502.41 968.93 487.93 C 971.00 473.44 973.88 459.85 981.77 447.77 C 989.66 435.69 1003.33 428.37 1017.67 431.33 C 1032.01 434.29 1047.27 439.70 1045.00 457.00 C 1042.73 474.30 1046.70 492.61 1045.00 510.00
M 281.00 433.00 
C 283.11 462.60 270.99 489.93 264.07 517.07 C 257.16 544.22 249.05 570.08 242.02 597.02 C 235.00 623.97 226.41 649.91 220.00 677.00
C 232.79 673.98 250.03 681.46 262.02 676.02 C 274.02 670.59 265.16 648.16 268.00 638.00
C 273.00 638.00 278.00 638.00 283.00 638.00
C 283.00 660.00 283.00 682.00 283.00 704.00
C 251.00 704.00 219.00 704.00 187.00 704.00
C 185.70 659.68 203.89 618.19 213.99 576.99 C 224.09 535.80 237.65 497.92 248.00 457.00
C 238.19 455.84 229.97 458.55 220.00 457.00 C 210.03 455.45 204.06 461.03 205.00 471.00 C 205.94 480.97 202.58 488.98 204.00 499.00
C 199.33 499.00 194.67 499.00 190.00 499.00
C 190.00 477.00 190.00 455.00 190.00 433.00
C 220.33 433.00 250.67 433.00 281.00 433.00
M 337.00 434.00 
C 336.97 452.22 337.04 469.71 337.00 488.00 C 336.96 506.29 337.07 524.57 337.00 543.00 C 336.93 561.43 337.15 579.35 337.00 598.00 C 336.85 616.65 336.59 632.70 338.78 651.22 C 340.97 669.74 357.54 667.43 363.92 651.92 C 370.30 636.42 375.34 624.66 374.00 607.00 C 372.66 589.34 374.62 569.41 374.00 552.00 C 373.38 534.59 374.69 514.27 373.00 498.00 C 371.31 481.73 378.82 460.27 358.00 458.00
C 358.00 450.00 358.00 442.00 358.00 434.00
C 373.00 434.00 388.00 434.00 403.00 434.00
C 403.18 455.42 402.75 477.66 403.00 499.00 C 403.25 520.34 402.54 544.06 403.00 565.00 C 403.46 585.94 402.01 611.17 403.00 631.00 C 403.99 650.83 396.33 677.05 419.00 681.00
C 419.00 689.00 419.00 697.00 419.00 705.00
C 404.00 705.00 389.00 705.00 374.00 705.00
C 373.33 689.50 375.33 672.68 373.00 658.00
C 369.01 674.60 366.03 689.45 354.23 703.23 C 342.43 717.01 321.02 709.54 316.23 691.77 C 311.44 674.00 307.13 656.73 307.00 637.00 C 306.87 617.27 307.43 591.94 307.00 572.00 C 306.57 552.06 308.03 527.09 307.00 508.00 C 305.97 488.91 313.73 462.69 292.00 458.00
C 292.00 450.00 292.00 442.00 292.00 434.00
C 307.00 434.00 322.00 434.00 337.00 434.00 Z"/>
</g>
<g fill="None" fill-opacity="0.0" stroke="#32B8EE" stroke-opacity="0.96" stroke-width="0.3"><path d="
M 104.00 336.00 
C 87.69 332.39 90.73 351.63 87.99 362.99 C 85.26 374.35 83.85 387.58 81.33 399.33 C 78.81 411.08 77.16 424.02 74.98 435.98 C 72.80 447.94 70.23 460.03 68.00 472.00 C 65.76 483.97 64.14 495.97 61.98 507.98 C 59.82 519.98 57.31 532.01 55.00 544.00 C 52.69 555.99 51.16 568.97 48.93 580.93 C 46.69 592.88 44.15 605.21 42.00 617.00 C 39.84 628.79 37.97 642.08 35.33 653.33 C 32.69 664.58 34.05 678.26 20.00 680.00
C 20.00 688.00 20.00 696.00 20.00 704.00
C 33.00 704.00 46.00 704.00 59.00 704.00
C 59.00 696.00 59.00 688.00 59.00 680.00
C 38.27 678.62 49.81 654.20 51.00 640.00 C 52.19 625.81 58.11 607.71 59.00 593.00
C 79.00 593.00 99.00 593.00 119.00 593.00
C 120.79 608.17 125.12 627.27 127.07 641.93 C 129.02 656.59 138.83 679.14 117.00 680.00
C 117.00 688.00 117.00 696.00 117.00 704.00
C 137.33 704.00 157.67 704.00 178.00 704.00
C 178.00 696.33 178.00 688.67 178.00 681.00
C 158.87 674.00 161.61 650.28 157.00 632.00 C 152.38 613.72 150.63 591.69 146.33 572.67 C 142.03 553.65 139.81 532.48 135.93 513.07 C 132.04 493.67 128.38 473.66 124.98 454.02 C 121.57 434.39 117.43 414.64 114.00 395.00 C 110.56 375.36 106.70 355.80 104.00 336.00
M 89.00 431.00 
C 96.82 476.78 105.60 522.34 114.00 568.00
C 97.33 568.00 80.67 568.00 64.00 568.00
C 72.59 522.49 79.84 475.99 89.00 431.00 Z"/>
</g>
<g fill="None" fill-opacity="0.0" stroke="#04539E" stroke-opacity="0.96" stroke-width="0.3"><path d="
M 672.00 558.00 
C 694.22 560.15 714.40 549.11 724.23 529.23 C 734.05 509.35 737.72 486.28 739.00 464.00 C 740.28 441.72 740.98 409.05 736.33 388.67 C 731.68 368.30 727.21 345.03 704.01 340.99 C 680.81 336.96 651.59 345.78 627.00 342.00
C 627.00 350.00 627.00 358.00 627.00 366.00
C 649.64 372.00 640.83 400.27 642.00 421.00 C 643.17 441.73 641.66 468.27 642.00 490.00 C 642.34 511.73 642.23 538.25 642.00 560.00 C 641.77 581.75 642.97 608.20 642.00 629.00 C 641.03 649.81 649.07 675.94 627.00 683.00
C 627.00 691.00 627.00 699.00 627.00 707.00
C 647.66 707.00 668.33 707.00 689.00 707.00
C 689.00 699.00 689.00 691.00 689.00 683.00
C 663.54 679.08 673.36 650.01 672.00 629.00 C 670.64 607.99 673.02 579.67 672.00 558.00
M 672.00 367.00 
C 687.26 364.15 698.01 373.09 701.93 387.07 C 705.84 401.06 708.41 415.85 708.93 431.07 C 709.44 446.30 708.55 465.18 707.00 480.00 C 705.45 494.82 702.82 506.90 696.08 520.08 C 689.34 533.26 669.58 538.37 672.00 520.00 C 674.42 501.63 670.87 486.64 672.00 469.00 C 673.13 451.36 671.41 435.33 672.00 418.00 C 672.59 400.67 671.56 384.25 672.00 367.00 Z"/>
</g>
<g fill="None" fill-opacity="0.0" stroke="#000000" stroke-opacity="0.00" stroke-width="0.3"><path d="
M 672.00 367.00 
C 671.56 384.25 672.59 400.67 672.00 418.00 C 671.41 435.33 673.13 451.36 672.00 469.00 C 670.87 486.64 674.42 501.63 672.00 520.00 C 669.58 538.37 689.34 533.26 696.08 520.08 C 702.82 506.90 705.45 494.82 707.00 480.00 C 708.55 465.18 709.44 446.30 708.93 431.07 C 708.41 415.85 705.84 401.06 701.93 387.07 C 698.01 373.09 687.26 364.15 672.00 367.00 Z"/>
</g>
<g fill="None" fill-opacity="0.0" stroke="#32B8EE" stroke-opacity="0.95" stroke-width="0.3"><path d="
M 508.00 518.00 
C 507.45 508.62 508.73 497.17 508.00 488.00 C 507.27 478.83 509.44 467.47 508.00 459.00 C 506.56 450.54 511.47 437.42 507.22 430.78 C 502.98 424.13 490.25 432.07 486.77 436.77 C 483.29 441.47 478.89 449.47 476.77 455.77 C 474.65 462.07 470.23 470.85 470.00 478.00
C 467.67 464.66 469.67 449.17 469.00 435.00
C 454.00 435.00 439.00 435.00 424.00 435.00
C 424.00 443.00 424.00 451.00 424.00 459.00
C 445.39 463.29 438.19 489.43 439.00 508.00 C 439.81 526.57 438.92 551.80 439.00 571.00 C 439.08 590.20 439.59 615.36 439.00 634.00 C 438.41 652.64 444.74 676.59 424.00 682.00
C 424.00 690.00 424.00 698.00 424.00 706.00
C 445.00 706.00 466.00 706.00 487.00 706.00
C 487.00 698.00 487.00 690.00 487.00 682.00
C 476.03 681.87 468.75 675.34 469.00 664.00 C 469.25 652.66 468.96 639.55 469.00 628.00 C 469.04 616.45 469.17 604.57 469.00 593.00 C 468.83 581.43 469.47 568.43 469.00 557.00 C 468.53 545.57 470.09 531.90 469.00 521.00 C 467.91 510.10 472.45 500.81 475.08 492.08 C 477.70 483.34 489.53 473.82 492.22 484.78 C 494.91 495.73 491.89 506.97 494.00 518.00
C 498.67 518.00 503.33 518.00 508.00 518.00 Z"/>
</g>
<g fill="None" fill-opacity="0.0" stroke="#32B8EE" stroke-opacity="0.96" stroke-width="0.3"><path d="
M 613.00 574.00 
C 613.72 555.20 612.73 531.69 611.00 514.00 C 609.27 496.31 607.63 477.46 601.93 462.07 C 596.22 446.68 590.65 432.96 573.67 429.33 C 556.69 425.70 544.87 439.52 537.77 453.77 C 530.67 468.02 525.75 483.11 522.98 499.98 C 520.20 516.85 517.46 538.62 518.00 557.00 C 518.54 575.38 517.22 598.53 520.00 616.00 C 522.78 633.47 524.25 650.64 530.69 666.31 C 537.14 681.97 540.15 692.59 553.92 704.08 C 567.69 715.58 583.43 712.58 599.92 704.92 C 616.41 697.27 614.16 674.64 613.00 657.00
C 603.13 667.20 586.82 681.47 572.75 671.25 C 558.68 661.04 555.44 646.49 551.99 630.01 C 548.54 613.53 547.81 590.86 548.00 573.00
C 569.60 573.61 591.82 571.75 613.00 574.00
M 585.00 550.00 
C 572.74 550.70 561.10 548.98 549.00 549.00
C 548.30 534.21 549.54 519.46 550.00 505.00 C 550.46 490.54 553.81 479.72 556.78 465.78 C 559.74 451.83 575.12 449.55 578.77 464.23 C 582.42 478.91 583.02 490.08 584.00 505.00 C 584.98 519.92 582.89 535.38 585.00 550.00 Z"/>
</g>
<g fill="None" fill-opacity="0.0" stroke="#04549E" stroke-opacity="0.96" stroke-width="0.3"><path d="
M 850.00 683.00 
C 836.53 683.78 838.75 666.08 838.00 654.00 C 837.25 641.92 838.29 625.14 838.00 612.00 C 837.71 598.86 838.04 582.46 838.00 569.00 C 837.96 555.54 837.80 540.32 838.00 527.00 C 838.20 513.68 837.76 498.22 836.00 486.00 C 834.24 473.78 833.15 462.55 827.77 452.23 C 822.39 441.91 816.92 435.01 805.67 431.33 C 794.43 427.65 782.46 431.12 772.23 437.23 C 762.00 443.34 754.66 451.67 757.00 465.00 C 759.34 478.33 755.24 493.50 757.00 507.00
C 762.33 507.00 767.67 507.00 773.00 507.00
C 778.00 491.30 766.53 468.69 783.25 457.25 C 799.98 445.82 808.89 470.50 807.67 486.33 C 806.45 502.16 809.27 528.15 808.00 545.00
C 784.94 541.03 764.04 554.79 756.93 575.93 C 749.81 597.06 744.97 626.36 748.01 648.99 C 751.04 671.62 751.68 693.68 769.77 709.23 C 787.87 724.78 809.19 691.92 812.00 677.00
C 815.20 685.83 816.34 694.77 821.70 703.30 C 827.06 711.84 834.73 715.61 844.77 710.77 C 854.81 705.93 848.57 692.97 850.00 683.00
M 808.00 568.00 
C 806.68 584.79 809.75 605.62 808.00 622.00 C 806.25 638.38 814.17 656.76 800.75 668.75 C 787.33 680.75 778.65 658.13 778.00 645.00 C 777.36 631.86 776.04 608.32 779.93 594.93 C 783.81 581.53 790.89 565.91 808.00 568.00 Z"/>
</g>
<g fill="None" fill-opacity="0.0" stroke="#000000" stroke-opacity="0.00" stroke-width="0.3"><path d="
M 89.00 431.00 
C 79.84 475.99 72.59 522.49 64.00 568.00
C 80.67 568.00 97.33 568.00 114.00 568.00
C 105.60 522.34 96.82 476.78 89.00 431.00 Z"/>
</g>
<g fill="None" fill-opacity="0.0" stroke="#04539E" stroke-opacity="0.96" stroke-width="0.3"><path d="
M 941.00 510.00 
C 942.70 492.61 938.73 474.30 941.00 457.00 C 943.27 439.70 928.02 434.29 913.67 431.33 C 899.32 428.37 885.66 435.69 877.77 447.77 C 869.88 459.85 867.00 473.44 864.93 487.93 C 862.85 502.41 862.58 522.63 865.02 536.98 C 867.47 551.33 872.27 563.88 879.08 575.92 C 885.89 587.96 893.58 594.76 903.25 604.75 C 912.91 614.75 919.05 627.04 920.02 640.98 C 921.00 654.91 921.33 672.23 912.25 684.25 C 903.16 696.26 886.36 685.65 882.32 672.68 C 878.29 659.71 876.89 639.60 877.00 625.00
C 872.33 625.00 867.67 625.00 863.00 625.00
C 862.11 643.83 864.19 665.44 863.00 684.00 C 861.81 702.56 878.15 707.61 892.78 712.22 C 907.41 716.83 924.22 711.44 932.70 697.70 C 941.17 683.95 945.58 670.04 948.01 654.01 C 950.43 637.97 950.44 616.53 946.99 601.01 C 943.55 585.49 939.01 572.96 929.25 560.75 C 919.50 548.53 912.03 541.51 900.92 530.08 C 889.81 518.65 892.62 496.07 893.00 482.00 C 893.39 467.93 906.02 445.86 919.23 459.77 C 932.44 473.68 922.75 493.45 927.00 510.00
C 931.67 510.00 936.33 510.00 941.00 510.00 Z"/>
</g>
<g fill="None" fill-opacity="0.0" stroke="#04539E" stroke-opacity="0.96" stroke-width="0.3"><path d="
M 1045.00 510.00 
C 1046.70 492.61 1042.73 474.30 1045.00 457.00 C 1047.27 439.70 1032.01 434.29 1017.67 431.33 C 1003.33 428.37 989.66 435.69 981.77 447.77 C 973.88 459.85 971.00 473.44 968.93 487.93 C 966.85 502.41 966.58 522.63 969.02 536.98 C 971.47 551.33 976.27 563.88 983.08 575.92 C 989.89 587.96 997.58 594.76 1007.25 604.75 C 1016.91 614.75 1023.05 627.04 1024.02 640.98 C 1025.00 654.91 1025.33 672.23 1016.25 684.25 C 1007.17 696.26 990.36 685.65 986.32 672.68 C 982.29 659.71 980.89 639.60 981.00 625.00
C 976.33 625.00 971.67 625.00 967.00 625.00
C 966.11 643.83 968.19 665.44 967.00 684.00 C 965.81 702.56 982.15 707.61 996.78 712.22 C 1011.41 716.83 1028.22 711.44 1036.70 697.70 C 1045.17 683.95 1049.59 670.04 1052.01 654.01 C 1054.43 637.97 1054.44 616.53 1050.99 601.01 C 1047.55 585.49 1043.01 572.96 1033.25 560.75 C 1023.50 548.53 1016.03 541.51 1004.92 530.08 C 993.81 518.65 996.62 496.07 997.00 482.00 C 997.39 467.93 1010.02 445.86 1023.23 459.77 C 1036.44 473.68 1026.75 493.45 1031.00 510.00
C 1035.67 510.00 1040.33 510.00 1045.00 510.00 Z"/>
</g>
<g fill="None" fill-opacity="0.0" stroke="#32B8EE" stroke-opacity="0.96" stroke-width="0.3"><path d="
M 281.00 433.00 
C 250.67 433.00 220.33 433.00 190.00 433.00
C 190.00 455.00 190.00 477.00 190.00 499.00
C 194.67 499.00 199.33 499.00 204.00 499.00
C 202.58 488.98 205.94 480.97 205.00 471.00 C 204.06 461.03 210.03 455.45 220.00 457.00 C 229.97 458.55 238.19 455.84 248.00 457.00
C 237.65 497.92 224.09 535.80 213.99 576.99 C 203.89 618.19 185.70 659.68 187.00 704.00
C 219.00 704.00 251.00 704.00 283.00 704.00
C 283.00 682.00 283.00 660.00 283.00 638.00
C 278.00 638.00 273.00 638.00 268.00 638.00
C 265.16 648.16 274.02 670.59 262.02 676.02 C 250.03 681.46 232.79 673.98 220.00 677.00
C 226.41 649.91 235.00 623.97 242.02 597.02 C 249.05 570.08 257.16 544.22 264.07 517.07 C 270.99 489.93 283.11 462.60 281.00 433.00 Z"/>
</g>
<g fill="None" fill-opacity="0.0" stroke="#32B8EE" stroke-opacity="0.96" stroke-width="0.3"><path d="
M 337.00 434.00 
C 322.00 434.00 307.00 434.00 292.00 434.00
C 292.00 442.00 292.00 450.00 292.00 458.00
C 313.73 462.69 305.97 488.91 307.00 508.00 C 308.03 527.09 306.57 552.06 307.00 572.00 C 307.43 591.94 306.87 617.27 307.00 637.00 C 307.13 656.73 311.44 674.00 316.23 691.77 C 321.02 709.54 342.43 717.01 354.23 703.23 C 366.03 689.45 369.01 674.60 373.00 658.00
C 375.33 672.68 373.33 689.50 374.00 705.00
C 389.00 705.00 404.00 705.00 419.00 705.00
C 419.00 697.00 419.00 689.00 419.00 681.00
C 396.33 677.05 403.99 650.83 403.00 631.00 C 402.01 611.17 403.46 585.94 403.00 565.00 C 402.54 544.06 403.25 520.34 403.00 499.00 C 402.75 477.66 403.18 455.42 403.00 434.00
C 388.00 434.00 373.00 434.00 358.00 434.00
C 358.00 442.00 358.00 450.00 358.00 458.00
C 378.82 460.27 371.31 481.73 373.00 498.00 C 374.69 514.27 373.38 534.59 374.00 552.00 C 374.62 569.41 372.66 589.34 374.00 607.00 C 375.34 624.66 370.30 636.42 363.92 651.92 C 357.54 667.43 340.97 669.74 338.78 651.22 C 336.59 632.70 336.85 616.65 337.00 598.00 C 337.15 579.35 336.93 561.43 337.00 543.00 C 337.07 524.57 336.96 506.29 337.00 488.00 C 337.04 469.71 336.97 452.22 337.00 434.00 Z"/>
</g>
<g fill="None" fill-opacity="0.0" stroke="#000000" stroke-opacity="0.00" stroke-width="0.3"><path d="
M 585.00 550.00 
C 582.89 535.38 584.98 519.92 584.00 505.00 C 583.02 490.08 582.42 478.91 578.77 464.23 C 575.12 449.55 559.74 451.83 556.78 465.78 C 553.81 479.72 550.46 490.54 550.00 505.00 C 549.54 519.46 548.30 534.21 549.00 549.00
C 561.10 548.98 572.74 550.70 585.00 550.00 Z"/>
</g>
<g fill="None" fill-opacity="0.0" stroke="#000000" stroke-opacity="0.00" stroke-width="0.3"><path d="
M 808.00 568.00 
C 790.89 565.91 783.81 581.53 779.93 594.93 C 776.04 608.32 777.36 631.86 778.00 645.00 C 778.65 658.13 787.33 680.75 800.75 668.75 C 814.17 656.76 806.25 638.38 808.00 622.00 C 809.75 605.62 806.68 584.79 808.00 568.00 Z"/>
</g>
<g fill="#000000" fill-opacity="0.00" stroke="None">
<path d="
M 0.00 1080.00 
L 1080.00 1080.00
L 1080.00 0.00
L 0.00 0.00
L 0.00 1080.00
M 104.00 336.00 
C 106.70 355.80 110.56 375.36 114.00 395.00 C 117.43 414.64 121.57 434.39 124.98 454.02 C 128.38 473.66 132.04 493.67 135.93 513.07 C 139.81 532.48 142.03 553.65 146.33 572.67 C 150.63 591.69 152.38 613.72 157.00 632.00 C 161.61 650.28 158.87 674.00 178.00 681.00
C 178.00 688.67 178.00 696.33 178.00 704.00
C 157.67 704.00 137.33 704.00 117.00 704.00
C 117.00 696.00 117.00 688.00 117.00 680.00
C 138.83 679.14 129.02 656.59 127.07 641.93 C 125.12 627.27 120.79 608.17 119.00 593.00
C 99.00 593.00 79.00 593.00 59.00 593.00
C 58.11 607.71 52.19 625.81 51.00 640.00 C 49.81 654.20 38.27 678.62 59.00 680.00
C 59.00 688.00 59.00 696.00 59.00 704.00
C 46.00 704.00 33.00 704.00 20.00 704.00
C 20.00 696.00 20.00 688.00 20.00 680.00
C 34.05 678.26 32.69 664.58 35.33 653.33 C 37.97 642.08 39.84 628.79 42.00 617.00 C 44.15 605.21 46.69 592.88 48.93 580.93 C 51.16 568.97 52.69 555.99 55.00 544.00 C 57.31 532.01 59.82 519.98 61.98 507.98 C 64.14 495.97 65.76 483.97 68.00 472.00 C 70.23 460.03 72.80 447.94 74.98 435.98 C 77.16 424.02 78.81 411.08 81.33 399.33 C 83.85 387.58 85.26 374.35 87.99 362.99 C 90.73 351.63 87.69 332.39 104.00 336.00
M 672.00 558.00 
C 673.02 579.67 670.64 607.99 672.00 629.00 C 673.36 650.01 663.54 679.08 689.00 683.00
C 689.00 691.00 689.00 699.00 689.00 707.00
C 668.33 707.00 647.66 707.00 627.00 707.00
C 627.00 699.00 627.00 691.00 627.00 683.00
C 649.07 675.94 641.03 649.81 642.00 629.00 C 642.97 608.20 641.77 581.75 642.00 560.00 C 642.23 538.25 642.34 511.73 642.00 490.00 C 641.66 468.27 643.17 441.73 642.00 421.00 C 640.83 400.27 649.64 372.00 627.00 366.00
C 627.00 358.00 627.00 350.00 627.00 342.00
C 651.59 345.78 680.81 336.96 704.01 340.99 C 727.21 345.03 731.68 368.30 736.33 388.67 C 740.98 409.05 740.28 441.72 739.00 464.00 C 737.72 486.28 734.05 509.35 724.23 529.23 C 714.40 549.11 694.22 560.15 672.00 558.00
M 508.00 518.00 
C 503.33 518.00 498.67 518.00 494.00 518.00
C 491.89 506.97 494.91 495.73 492.22 484.78 C 489.53 473.82 477.70 483.34 475.08 492.08 C 472.45 500.81 467.91 510.10 469.00 521.00 C 470.09 531.90 468.53 545.57 469.00 557.00 C 469.47 568.43 468.83 581.43 469.00 593.00 C 469.17 604.57 469.04 616.45 469.00 628.00 C 468.96 639.55 469.25 652.66 469.00 664.00 C 468.75 675.34 476.03 681.87 487.00 682.00
C 487.00 690.00 487.00 698.00 487.00 706.00
C 466.00 706.00 445.00 706.00 424.00 706.00
C 424.00 698.00 424.00 690.00 424.00 682.00
C 444.74 676.59 438.41 652.64 439.00 634.00 C 439.59 615.36 439.08 590.20 439.00 571.00 C 438.92 551.80 439.81 526.57 439.00 508.00 C 438.19 489.43 445.39 463.29 424.00 459.00
C 424.00 451.00 424.00 443.00 424.00 435.00
C 439.00 435.00 454.00 435.00 469.00 435.00
C 469.67 449.17 467.67 464.66 470.00 478.00
C 470.23 470.85 474.65 462.07 476.77 455.77 C 478.89 449.47 483.29 441.47 486.77 436.77 C 490.25 432.07 502.98 424.13 507.22 430.78 C 511.47 437.42 506.56 450.54 508.00 459.00 C 509.44 467.47 507.27 478.83 508.00 488.00 C 508.73 497.17 507.45 508.62 508.00 518.00
M 613.00 574.00 
C 591.82 571.75 569.60 573.61 548.00 573.00
C 547.81 590.86 548.54 613.53 551.99 630.01 C 555.44 646.49 558.68 661.04 572.75 671.25 C 586.82 681.47 603.13 667.20 613.00 657.00
C 614.16 674.64 616.41 697.27 599.92 704.92 C 583.43 712.58 567.69 715.58 553.92 704.08 C 540.15 692.59 537.14 681.97 530.69 666.31 C 524.25 650.64 522.78 633.47 520.00 616.00 C 517.22 598.53 518.54 575.38 518.00 557.00 C 517.46 538.62 520.20 516.85 522.98 499.98 C 525.75 483.11 530.67 468.02 537.77 453.77 C 544.87 439.52 556.69 425.70 573.67 429.33 C 590.65 432.96 596.22 446.68 601.93 462.07 C 607.63 477.46 609.27 496.31 611.00 514.00 C 612.73 531.69 613.72 555.20 613.00 574.00
M 850.00 683.00 
C 848.57 692.97 854.81 705.93 844.77 710.77 C 834.73 715.61 827.06 711.84 821.70 703.30 C 816.34 694.77 815.20 685.83 812.00 677.00
C 809.19 691.92 787.87 724.78 769.77 709.23 C 751.68 693.68 751.04 671.62 748.01 648.99 C 744.97 626.36 749.81 597.06 756.93 575.93 C 764.04 554.79 784.94 541.03 808.00 545.00
C 809.27 528.15 806.45 502.16 807.67 486.33 C 808.89 470.50 799.98 445.82 783.25 457.25 C 766.53 468.69 778.00 491.30 773.00 507.00
C 767.67 507.00 762.33 507.00 757.00 507.00
C 755.24 493.50 759.34 478.33 757.00 465.00 C 754.66 451.67 762.00 443.34 772.23 437.23 C 782.46 431.12 794.43 427.65 805.67 431.33 C 816.92 435.01 822.39 441.91 827.77 452.23 C 833.15 462.55 834.24 473.78 836.00 486.00 C 837.76 498.22 838.20 513.68 838.00 527.00 C 837.80 540.32 837.96 555.54 838.00 569.00 C 838.04 582.46 837.71 598.86 838.00 612.00 C 838.29 625.14 837.25 641.92 838.00 654.00 C 838.75 666.08 836.53 683.78 850.00 683.00
M 941.00 510.00 
C 936.33 510.00 931.67 510.00 927.00 510.00
C 922.75 493.45 932.44 473.68 919.23 459.77 C 906.02 445.86 893.39 467.93 893.00 482.00 C 892.62 496.07 889.81 518.65 900.92 530.08 C 912.03 541.51 919.50 548.53 929.25 560.75 C 939.01 572.96 943.55 585.49 946.99 601.01 C 950.44 616.53 950.43 637.97 948.01 654.01 C 945.58 670.04 941.17 683.95 932.70 697.70 C 924.22 711.44 907.41 716.83 892.78 712.22 C 878.15 707.61 861.81 702.56 863.00 684.00 C 864.19 665.44 862.11 643.83 863.00 625.00
C 867.67 625.00 872.33 625.00 877.00 625.00
C 876.89 639.60 878.29 659.71 882.32 672.68 C 886.36 685.65 903.16 696.26 912.25 684.25 C 921.33 672.23 921.00 654.91 920.02 640.98 C 919.05 627.04 912.91 614.75 903.25 604.75 C 893.58 594.76 885.89 587.96 879.08 575.92 C 872.27 563.88 867.47 551.33 865.02 536.98 C 862.58 522.63 862.85 502.41 864.93 487.93 C 867.00 473.44 869.88 459.85 877.77 447.77 C 885.66 435.69 899.32 428.37 913.67 431.33 C 928.02 434.29 943.27 439.70 941.00 457.00 C 938.73 474.30 942.70 492.61 941.00 510.00
M 1045.00 510.00 
C 1040.33 510.00 1035.67 510.00 1031.00 510.00
C 1026.75 493.45 1036.44 473.68 1023.23 459.77 C 1010.02 445.86 997.39 467.93 997.00 482.00 C 996.62 496.07 993.81 518.65 1004.92 530.08 C 1016.03 541.51 1023.50 548.53 1033.25 560.75 C 1043.01 572.96 1047.55 585.49 1050.99 601.01 C 1054.44 616.53 1054.43 637.97 1052.01 654.01 C 1049.59 670.04 1045.17 683.95 1036.70 697.70 C 1028.22 711.44 1011.41 716.83 996.78 712.22 C 982.15 707.61 965.81 702.56 967.00 684.00 C 968.19 665.44 966.11 643.83 967.00 625.00
C 971.67 625.00 976.33 625.00 981.00 625.00
C 980.89 639.60 982.29 659.71 986.32 672.68 C 990.36 685.65 1007.17 696.26 1016.25 684.25 C 1025.33 672.23 1025.00 654.91 1024.02 640.98 C 1023.05 627.04 1016.91 614.75 1007.25 604.75 C 997.58 594.76 989.89 587.96 983.08 575.92 C 976.27 563.88 971.47 551.33 969.02 536.98 C 966.58 522.63 966.85 502.41 968.93 487.93 C 971.00 473.44 973.88 459.85 981.77 447.77 C 989.66 435.69 1003.33 428.37 1017.67 431.33 C 1032.01 434.29 1047.27 439.70 1045.00 457.00 C 1042.73 474.30 1046.70 492.61 1045.00 510.00
M 281.00 433.00 
C 283.11 462.60 270.99 489.93 264.07 517.07 C 257.16 544.22 249.05 570.08 242.02 597.02 C 235.00 623.97 226.41 649.91 220.00 677.00
C 232.79 673.98 250.03 681.46 262.02 676.02 C 274.02 670.59 265.16 648.16 268.00 638.00
C 273.00 638.00 278.00 638.00 283.00 638.00
C 283.00 660.00 283.00 682.00 283.00 704.00
C 251.00 704.00 219.00 704.00 187.00 704.00
C 185.70 659.68 203.89 618.19 213.99 576.99 C 224.09 535.80 237.65 497.92 248.00 457.00
C 238.19 455.84 229.97 458.55 220.00 457.00 C 210.03 455.45 204.06 461.03 205.00 471.00 C 205.94 480.97 202.58 488.98 204.00 499.00
C 199.33 499.00 194.67 499.00 190.00 499.00
C 190.00 477.00 190.00 455.00 190.00 433.00
C 220.33 433.00 250.67 433.00 281.00 433.00
M 337.00 434.00 
C 336.97 452.22 337.04 469.71 337.00 488.00 C 336.96 506.29 337.07 524.57 337.00 543.00 C 336.93 561.43 337.15 579.35 337.00 598.00 C 336.85 616.65 336.59 632.70 338.78 651.22 C 340.97 669.74 357.54 667.43 363.92 651.92 C 370.30 636.42 375.34 624.66 374.00 607.00 C 372.66 589.34 374.62 569.41 374.00 552.00 C 373.38 534.59 374.69 514.27 373.00 498.00 C 371.31 481.73 378.82 460.27 358.00 458.00
C 358.00 450.00 358.00 442.00 358.00 434.00
C 373.00 434.00 388.00 434.00 403.00 434.00
C 403.18 455.42 402.75 477.66 403.00 499.00 C 403.25 520.34 402.54 544.06 403.00 565.00 C 403.46 585.94 402.01 611.17 403.00 631.00 C 403.99 650.83 396.33 677.05 419.00 681.00
C 419.00 689.00 419.00 697.00 419.00 705.00
C 404.00 705.00 389.00 705.00 374.00 705.00
C 373.33 689.50 375.33 672.68 373.00 658.00
C 369.01 674.60 366.03 689.45 354.23 703.23 C 342.43 717.01 321.02 709.54 316.23 691.77 C 311.44 674.00 307.13 656.73 307.00 637.00 C 306.87 617.27 307.43 591.94 307.00 572.00 C 306.57 552.06 308.03 527.09 307.00 508.00 C 305.97 488.91 313.73 462.69 292.00 458.00
C 292.00 450.00 292.00 442.00 292.00 434.00
C 307.00 434.00 322.00 434.00 337.00 434.00 Z"/>
</g>
<g fill="#32B8EE" fill-opacity="0.96" stroke="None">
<path d="
M 104.00 336.00 
C 87.69 332.39 90.73 351.63 87.99 362.99 C 85.26 374.35 83.85 387.58 81.33 399.33 C 78.81 411.08 77.16 424.02 74.98 435.98 C 72.80 447.94 70.23 460.03 68.00 472.00 C 65.76 483.97 64.14 495.97 61.98 507.98 C 59.82 519.98 57.31 532.01 55.00 544.00 C 52.69 555.99 51.16 568.97 48.93 580.93 C 46.69 592.88 44.15 605.21 42.00 617.00 C 39.84 628.79 37.97 642.08 35.33 653.33 C 32.69 664.58 34.05 678.26 20.00 680.00
C 20.00 688.00 20.00 696.00 20.00 704.00
C 33.00 704.00 46.00 704.00 59.00 704.00
C 59.00 696.00 59.00 688.00 59.00 680.00
C 38.27 678.62 49.81 654.20 51.00 640.00 C 52.19 625.81 58.11 607.71 59.00 593.00
C 79.00 593.00 99.00 593.00 119.00 593.00
C 120.79 608.17 125.12 627.27 127.07 641.93 C 129.02 656.59 138.83 679.14 117.00 680.00
C 117.00 688.00 117.00 696.00 117.00 704.00
C 137.33 704.00 157.67 704.00 178.00 704.00
C 178.00 696.33 178.00 688.67 178.00 681.00
C 158.87 674.00 161.61 650.28 157.00 632.00 C 152.38 613.72 150.63 591.69 146.33 572.67 C 142.03 553.65 139.81 532.48 135.93 513.07 C 132.04 493.67 128.38 473.66 124.98 454.02 C 121.57 434.39 117.43 414.64 114.00 395.00 C 110.56 375.36 106.70 355.80 104.00 336.00
M 89.00 431.00 
C 96.82 476.78 105.60 522.34 114.00 568.00
C 97.33 568.00 80.67 568.00 64.00 568.00
C 72.59 522.49 79.84 475.99 89.00 431.00 Z"/>
</g>
<g fill="#04539E" fill-opacity="0.96" stroke="None">
<path d="
M 672.00 558.00 
C 694.22 560.15 714.40 549.11 724.23 529.23 C 734.05 509.35 737.72 486.28 739.00 464.00 C 740.28 441.72 740.98 409.05 736.33 388.67 C 731.68 368.30 727.21 345.03 704.01 340.99 C 680.81 336.96 651.59 345.78 627.00 342.00
C 627.00 350.00 627.00 358.00 627.00 366.00
C 649.64 372.00 640.83 400.27 642.00 421.00 C 643.17 441.73 641.66 468.27 642.00 490.00 C 642.34 511.73 642.23 538.25 642.00 560.00 C 641.77 581.75 642.97 608.20 642.00 629.00 C 641.03 649.81 649.07 675.94 627.00 683.00
C 627.00 691.00 627.00 699.00 627.00 707.00
C 647.66 707.00 668.33 707.00 689.00 707.00
C 689.00 699.00 689.00 691.00 689.00 683.00
C 663.54 679.08 673.36 650.01 672.00 629.00 C 670.64 607.99 673.02 579.67 672.00 558.00
M 672.00 367.00 
C 687.26 364.15 698.01 373.09 701.93 387.07 C 705.84 401.06 708.41 415.85 708.93 431.07 C 709.44 446.30 708.55 465.18 707.00 480.00 C 705.45 494.82 702.82 506.90 696.08 520.08 C 689.34 533.26 669.58 538.37 672.00 520.00 C 674.42 501.63 670.87 486.64 672.00 469.00 C 673.13 451.36 671.41 435.33 672.00 418.00 C 672.59 400.67 671.56 384.25 672.00 367.00 Z"/>
</g>
<g fill="#000000" fill-opacity="0.00" stroke="None">
<path d="
M 672.00 367.00 
C 671.56 384.25 672.59 400.67 672.00 418.00 C 671.41 435.33 673.13 451.36 672.00 469.00 C 670.87 486.64 674.42 501.63 672.00 520.00 C 669.58 538.37 689.34 533.26 696.08 520.08 C 702.82 506.90 705.45 494.82 707.00 480.00 C 708.55 465.18 709.44 446.30 708.93 431.07 C 708.41 415.85 705.84 401.06 701.93 387.07 C 698.01 373.09 687.26 364.15 672.00 367.00 Z"/>
</g>
<g fill="#32B8EE" fill-opacity="0.95" stroke="None">
<path d="
M 508.00 518.00 
C 507.45 508.62 508.73 497.17 508.00 488.00 C 507.27 478.83 509.44 467.47 508.00 459.00 C 506.56 450.54 511.47 437.42 507.22 430.78 C 502.98 424.13 490.25 432.07 486.77 436.77 C 483.29 441.47 478.89 449.47 476.77 455.77 C 474.65 462.07 470.23 470.85 470.00 478.00
C 467.67 464.66 469.67 449.17 469.00 435.00
C 454.00 435.00 439.00 435.00 424.00 435.00
C 424.00 443.00 424.00 451.00 424.00 459.00
C 445.39 463.29 438.19 489.43 439.00 508.00 C 439.81 526.57 438.92 551.80 439.00 571.00 C 439.08 590.20 439.59 615.36 439.00 634.00 C 438.41 652.64 444.74 676.59 424.00 682.00
C 424.00 690.00 424.00 698.00 424.00 706.00
C 445.00 706.00 466.00 706.00 487.00 706.00
C 487.00 698.00 487.00 690.00 487.00 682.00
C 476.03 681.87 468.75 675.34 469.00 664.00 C 469.25 652.66 468.96 639.55 469.00 628.00 C 469.04 616.45 469.17 604.57 469.00 593.00 C 468.83 581.43 469.47 568.43 469.00 557.00 C 468.53 545.57 470.09 531.90 469.00 521.00 C 467.91 510.10 472.45 500.81 475.08 492.08 C 477.70 483.34 489.53 473.82 492.22 484.78 C 494.91 495.73 491.89 506.97 494.00 518.00
C 498.67 518.00 503.33 518.00 508.00 518.00 Z"/>
</g>
<g fill="#32B8EE" fill-opacity="0.96" stroke="None">
<path d="
M 613.00 574.00 
C 613.72 555.20 612.73 531.69 611.00 514.00 C 609.27 496.31 607.63 477.46 601.93 462.07 C 596.22 446.68 590.65 432.96 573.67 429.33 C 556.69 425.70 544.87 439.52 537.77 453.77 C 530.67 468.02 525.75 483.11 522.98 499.98 C 520.20 516.85 517.46 538.62 518.00 557.00 C 518.54 575.38 517.22 598.53 520.00 616.00 C 522.78 633.47 524.25 650.64 530.69 666.31 C 537.14 681.97 540.15 692.59 553.92 704.08 C 567.69 715.58 583.43 712.58 599.92 704.92 C 616.41 697.27 614.16 674.64 613.00 657.00
C 603.13 667.20 586.82 681.47 572.75 671.25 C 558.68 661.04 555.44 646.49 551.99 630.01 C 548.54 613.53 547.81 590.86 548.00 573.00
C 569.60 573.61 591.82 571.75 613.00 574.00
M 585.00 550.00 
C 572.74 550.70 561.10 548.98 549.00 549.00
C 548.30 534.21 549.54 519.46 550.00 505.00 C 550.46 490.54 553.81 479.72 556.78 465.78 C 559.74 451.83 575.12 449.55 578.77 464.23 C 582.42 478.91 583.02 490.08 584.00 505.00 C 584.98 519.92 582.89 535.38 585.00 550.00 Z"/>
</g>
<g fill="#04549E" fill-opacity="0.96" stroke="None">
<path d="
M 850.00 683.00 
C 836.53 683.78 838.75 666.08 838.00 654.00 C 837.25 641.92 838.29 625.14 838.00 612.00 C 837.71 598.86 838.04 582.46 838.00 569.00 C 837.96 555.54 837.80 540.32 838.00 527.00 C 838.20 513.68 837.76 498.22 836.00 486.00 C 834.24 473.78 833.15 462.55 827.77 452.23 C 822.39 441.91 816.92 435.01 805.67 431.33 C 794.43 427.65 782.46 431.12 772.23 437.23 C 762.00 443.34 754.66 451.67 757.00 465.00 C 759.34 478.33 755.24 493.50 757.00 507.00
C 762.33 507.00 767.67 507.00 773.00 507.00
C 778.00 491.30 766.53 468.69 783.25 457.25 C 799.98 445.82 808.89 470.50 807.67 486.33 C 806.45 502.16 809.27 528.15 808.00 545.00
C 784.94 541.03 764.04 554.79 756.93 575.93 C 749.81 597.06 744.97 626.36 748.01 648.99 C 751.04 671.62 751.68 693.68 769.77 709.23 C 787.87 724.78 809.19 691.92 812.00 677.00
C 815.20 685.83 816.34 694.77 821.70 703.30 C 827.06 711.84 834.73 715.61 844.77 710.77 C 854.81 705.93 848.57 692.97 850.00 683.00
M 808.00 568.00 
C 806.68 584.79 809.75 605.62 808.00 622.00 C 806.25 638.38 814.17 656.76 800.75 668.75 C 787.33 680.75 778.65 658.13 778.00 645.00 C 777.36 631.86 776.04 608.32 779.93 594.93 C 783.81 581.53 790.89 565.91 808.00 568.00 Z"/>
</g>
<g fill="#000000" fill-opacity="0.00" stroke="None">
<path d="
M 89.00 431.00 
C 79.84 475.99 72.59 522.49 64.00 568.00
C 80.67 568.00 97.33 568.00 114.00 568.00
C 105.60 522.34 96.82 476.78 89.00 431.00 Z"/>
</g>
<g fill="#04539E" fill-opacity="0.96" stroke="None">
<path d="
M 941.00 510.00 
C 942.70 492.61 938.73 474.30 941.00 457.00 C 943.27 439.70 928.02 434.29 913.67 431.33 C 899.32 428.37 885.66 435.69 877.77 447.77 C 869.88 459.85 867.00 473.44 864.93 487.93 C 862.85 502.41 862.58 522.63 865.02 536.98 C 867.47 551.33 872.27 563.88 879.08 575.92 C 885.89 587.96 893.58 594.76 903.25 604.75 C 912.91 614.75 919.05 627.04 920.02 640.98 C 921.00 654.91 921.33 672.23 912.25 684.25 C 903.16 696.26 886.36 685.65 882.32 672.68 C 878.29 659.71 876.89 639.60 877.00 625.00
C 872.33 625.00 867.67 625.00 863.00 625.00
C 862.11 643.83 864.19 665.44 863.00 684.00 C 861.81 702.56 878.15 707.61 892.78 712.22 C 907.41 716.83 924.22 711.44 932.70 697.70 C 941.17 683.95 945.58 670.04 948.01 654.01 C 950.43 637.97 950.44 616.53 946.99 601.01 C 943.55 585.49 939.01 572.96 929.25 560.75 C 919.50 548.53 912.03 541.51 900.92 530.08 C 889.81 518.65 892.62 496.07 893.00 482.00 C 893.39 467.93 906.02 445.86 919.23 459.77 C 932.44 473.68 922.75 493.45 927.00 510.00
C 931.67 510.00 936.33 510.00 941.00 510.00 Z"/>
</g>
<g fill="#04539E" fill-opacity="0.96" stroke="None">
<path d="
M 1045.00 510.00 
C 1046.70 492.61 1042.73 474.30 1045.00 457.00 C 1047.27 439.70 1032.01 434.29 1017.67 431.33 C 1003.33 428.37 989.66 435.69 981.77 447.77 C 973.88 459.85 971.00 473.44 968.93 487.93 C 966.85 502.41 966.58 522.63 969.02 536.98 C 971.47 551.33 976.27 563.88 983.08 575.92 C 989.89 587.96 997.58 594.76 1007.25 604.75 C 1016.91 614.75 1023.05 627.04 1024.02 640.98 C 1025.00 654.91 1025.33 672.23 1016.25 684.25 C 1007.17 696.26 990.36 685.65 986.32 672.68 C 982.29 659.71 980.89 639.60 981.00 625.00
C 976.33 625.00 971.67 625.00 967.00 625.00
C 966.11 643.83 968.19 665.44 967.00 684.00 C 965.81 702.56 982.15 707.61 996.78 712.22 C 1011.41 716.83 1028.22 711.44 1036.70 697.70 C 1045.17 683.95 1049.59 670.04 1052.01 654.01 C 1054.43 637.97 1054.44 616.53 1050.99 601.01 C 1047.55 585.49 1043.01 572.96 1033.25 560.75 C 1023.50 548.53 1016.03 541.51 1004.92 530.08 C 993.81 518.65 996.62 496.07 997.00 482.00 C 997.39 467.93 1010.02 445.86 1023.23 459.77 C 1036.44 473.68 1026.75 493.45 1031.00 510.00
C 1035.67 510.00 1040.33 510.00 1045.00 510.00 Z"/>
</g>
<g fill="#32B8EE" fill-opacity="0.96" stroke="None">
<path d="
M 281.00 433.00 
C 250.67 433.00 220.33 433.00 190.00 433.00
C 190.00 455.00 190.00 477.00 190.00 499.00
C 194.67 499.00 199.33 499.00 204.00 499.00
C 202.58 488.98 205.94 480.97 205.00 471.00 C 204.06 461.03 210.03 455.45 220.00 457.00 C 229.97 458.55 238.19 455.84 248.00 457.00
C 237.65 497.92 224.09 535.80 213.99 576.99 C 203.89 618.19 185.70 659.68 187.00 704.00
C 219.00 704.00 251.00 704.00 283.00 704.00
C 283.00 682.00 283.00 660.00 283.00 638.00
C 278.00 638.00 273.00 638.00 268.00 638.00
C 265.16 648.16 274.02 670.59 262.02 676.02 C 250.03 681.46 232.79 673.98 220.00 677.00
C 226.41 649.91 235.00 623.97 242.02 597.02 C 249.05 570.08 257.16 544.22 264.07 517.07 C 270.99 489.93 283.11 462.60 281.00 433.00 Z"/>
</g>
<g fill="#32B8EE" fill-opacity="0.96" stroke="None">
<path d="
M 337.00 434.00 
C 322.00 434.00 307.00 434.00 292.00 434.00
C 292.00 442.00 292.00 450.00 292.00 458.00
C 313.73 462.69 305.97 488.91 307.00 508.00 C 308.03 527.09 306.57 552.06 307.00 572.00 C 307.43 591.94 306.87 617.27 307.00 637.00 C 307.13 656.73 311.44 674.00 316.23 691.77 C 321.02 709.54 342.43 717.01 354.23 703.23 C 366.03 689.45 369.01 674.60 373.00 658.00
C 375.33 672.68 373.33 689.50 374.00 705.00
C 389.00 705.00 404.00 705.00 419.00 705.00
C 419.00 697.00 419.00 689.00 419.00 681.00
C 396.33 677.05 403.99 650.83 403.00 631.00 C 402.01 611.17 403.46 585.94 403.00 565.00 C 402.54 544.06 403.25 520.34 403.00 499.00 C 402.75 477.66 403.18 455.42 403.00 434.00
C 388.00 434.00 373.00 434.00 358.00 434.00
C 358.00 442.00 358.00 450.00 358.00 458.00
C 378.82 460.27 371.31 481.73 373.00 498.00 C 374.69 514.27 373.38 534.59 374.00 552.00 C 374.62 569.41 372.66 589.34 374.00 607.00 C 375.34 624.66 370.30 636.42 363.92 651.92 C 357.54 667.43 340.97 669.74 338.78 651.22 C 336.59 632.70 336.85 616.65 337.00 598.00 C 337.15 579.35 336.93 561.43 337.00 543.00 C 337.07 524.57 336.96 506.29 337.00 488.00 C 337.04 469.71 336.97 452.22 337.00 434.00 Z"/>
</g>
<g fill="#000000" fill-opacity="0.00" stroke="None">
<path d="
M 585.00 550.00 
C 582.89 535.38 584.98 519.92 584.00 505.00 C 583.02 490.08 582.42 478.91 578.77 464.23 C 575.12 449.55 559.74 451.83 556.78 465.78 C 553.81 479.72 550.46 490.54 550.00 505.00 C 549.54 519.46 548.30 534.21 549.00 549.00
C 561.10 548.98 572.74 550.70 585.00 550.00 Z"/>
</g>
<g fill="#000000" fill-opacity="0.00" stroke="None">
<path d="
M 808.00 568.00 
C 790.89 565.91 783.81 581.53 779.93 594.93 C 776.04 608.32 777.36 631.86 778.00 645.00 C 778.65 658.13 787.33 680.75 800.75 668.75 C 814.17 656.76 806.25 638.38 808.00 622.00 C 809.75 605.62 806.68 584.79 808.00 568.00 Z"/>
</g>
</svg>