<svg version="1.1" id="Layer_1" xmlns="http://www.w3.org/2000/svg" xmlns:xlink="http://www.w3.org/1999/xlink" x="0px" y="0px"
	 width="100%" viewBox="0 0 1080 1080" enable-background="new 0 0 1080 1080" xml:space="preserve">
<path fill="#FFFFFF" opacity="1.000000" stroke="none" 
	d="
M706.000000,1081.000000 
	C470.693756,1081.000000 235.887527,1081.000000 1.040648,1081.000000 
	C1.040648,721.068665 1.040648,361.137268 1.040648,1.102961 
	C360.889771,1.102961 720.779602,1.102961 1080.834717,1.102961 
	C1080.834717,360.999939 1080.834717,720.999939 1080.834717,1081.000000 
	C956.136780,1081.000000 831.318420,1081.000000 706.000000,1081.000000 
M1018.947449,714.988403 
	C1030.842407,714.988403 1042.737427,714.988403 1054.838867,714.988403 
	C1054.838867,693.394287 1054.838867,672.208374 1054.980469,650.091736 
	C1054.932617,636.722900 1054.884766,623.354004 1054.988525,609.060608 
	C1054.988525,518.483154 1054.988525,427.905762 1054.988525,337.000000 
	C1052.750610,337.000000 1050.950317,337.000000 1049.150024,337.000000 
	C736.264832,337.000000 423.379578,336.999725 110.494377,337.006683 
	C108.665764,337.006714 106.837151,337.107635 104.515488,337.060211 
	C104.351311,337.095551 104.187126,337.130920 103.169685,337.033936 
	C101.446175,337.078094 99.722664,337.122253 97.202873,337.033936 
	C96.132217,337.076355 95.061554,337.118744 93.065376,337.011414 
	C69.136612,337.011414 45.207844,337.011414 21.000244,337.011414 
	C21.000244,338.308624 21.000244,339.112610 21.000242,339.916595 
	C21.000168,452.037506 20.996296,564.158386 21.046158,676.279297 
	C21.046740,677.586914 21.742302,678.894287 21.577913,680.984497 
	C21.440720,688.663330 21.303528,696.342224 21.060644,704.514282 
	C21.094259,704.679016 21.127874,704.843811 21.011667,705.917358 
	C21.011667,708.856506 21.011667,711.795654 21.011667,715.000000 
	C23.138674,715.000000 24.775871,715.000000 26.413069,715.000000 
	C275.608887,715.000000 524.804749,715.000305 774.000549,714.993225 
	C775.662170,714.993164 777.323730,714.891235 779.814880,714.980164 
	C781.216675,714.932861 782.618469,714.885559 784.947449,714.988403 
	C800.959839,714.937988 816.972168,714.887573 833.857300,714.979858 
	C835.911499,714.932556 837.965759,714.885254 840.944031,714.988525 
	C858.956604,714.938232 876.969116,714.887939 895.908020,714.980835 
	C901.945312,714.933228 907.982666,714.885620 914.944031,714.988525 
	C942.956604,714.938171 970.969116,714.887878 999.907898,714.980896 
	C1005.945374,714.933350 1011.982788,714.885864 1018.947449,714.988403 
z"/>
<path fill="#000000" opacity="1.000000" stroke="none" 
	d="
M894.981689,714.837585 
	C876.969116,714.887939 858.956604,714.938232 840.641235,714.602173 
	C843.119019,712.838989 846.100525,711.746826 848.605286,709.979248 
	C850.118286,708.911499 851.853821,706.781006 851.829529,705.152832 
	C851.726318,698.239990 851.002380,691.336365 850.486877,684.174744 
	C845.035217,686.660095 842.728271,683.482117 841.950989,678.808716 
	C840.741089,671.533813 839.271301,664.202637 839.109436,656.868774 
	C837.843323,599.499390 841.406616,542.063416 836.908447,484.743225 
	C835.980469,472.917603 833.125122,461.339203 827.326416,450.833130 
	C818.039490,434.007019 806.027466,429.167786 790.809631,431.335602 
	C778.093445,433.147125 767.981323,440.432129 759.612244,450.006927 
	C758.649048,451.108856 758.076660,452.934998 758.067688,454.429840 
	C757.965332,471.427124 758.001831,488.425293 758.031799,505.423187 
	C758.033142,506.194580 758.325745,506.965424 758.476562,507.706116 
	C763.683655,507.706116 768.607605,507.706116 775.000000,507.706116 
	C775.000000,499.187073 774.696838,490.935028 775.092529,482.716614 
	C775.430542,475.696167 776.150513,468.747681 780.584656,462.585114 
	C784.310486,457.406769 788.684692,454.133545 795.073364,455.107086 
	C800.846558,455.986847 803.845093,460.528809 804.902161,465.704315 
	C806.671143,474.365662 808.490845,483.152496 808.823242,491.941956 
	C809.440002,508.250000 809.000000,524.598022 809.000000,540.929382 
	C809.000000,542.517883 809.000000,544.106323 809.000000,545.466614 
	C802.809509,546.023254 797.399536,546.609253 791.974731,546.976746 
	C780.775269,547.735291 772.312744,553.260376 765.995667,562.153442 
	C753.908691,579.169128 750.533325,598.991394 749.206543,619.086060 
	C748.412048,631.119873 749.559570,643.292236 750.016052,655.395508 
	C750.536011,669.184082 753.723816,682.467712 759.599670,694.870850 
	C763.450012,702.998535 767.854187,711.293396 778.180908,713.245911 
	C778.536621,713.313232 778.721069,714.286072 778.985352,714.836792 
	C777.323730,714.891235 775.662170,714.993164 774.000549,714.993225 
	C524.804749,715.000305 275.608887,715.000000 26.413069,715.000000 
	C24.775871,715.000000 23.138674,715.000000 21.011667,715.000000 
	C21.011667,711.795654 21.011667,708.856506 21.297489,705.448425 
	C21.583313,704.979492 21.980518,704.833374 22.445385,704.906006 
	C34.945469,704.930176 46.980690,704.881836 59.273590,704.867310 
	C59.631962,704.606995 59.732655,704.312805 59.905968,703.553833 
	C59.930172,696.392944 59.881756,689.696655 59.895226,682.608032 
	C56.651917,681.105286 53.346729,679.994873 49.875629,678.534973 
	C49.139820,676.194824 47.989098,674.168762 48.108063,672.220215 
	C48.476635,666.183655 49.064548,660.133545 50.040424,654.166016 
	C53.314270,634.146179 56.793419,614.159973 60.219872,594.008667 
	C79.807388,594.008667 98.955528,593.998352 118.103508,594.050476 
	C118.792084,594.052368 119.478989,594.669922 120.094757,595.264771 
	C120.071228,596.069763 120.119621,596.610535 120.116653,597.547485 
	C120.432404,598.629333 120.799530,599.314941 121.095734,600.331177 
	C121.072098,601.107605 121.119377,601.553406 121.094711,602.356201 
	C121.404076,603.808960 121.785370,604.904785 122.094742,606.264771 
	C122.071228,607.069763 122.119629,607.610535 122.116653,608.547485 
	C122.432419,609.629333 122.799538,610.314941 123.095741,611.331177 
	C123.072105,612.107605 123.119377,612.553406 123.094719,613.356201 
	C123.404068,614.808960 123.785362,615.904785 124.094742,617.264771 
	C124.071228,618.069763 124.119621,618.610535 124.116653,619.547485 
	C124.432411,620.629333 124.799530,621.314941 125.095741,622.331177 
	C125.072105,623.107605 125.119377,623.553406 125.094719,624.356201 
	C125.404076,625.808960 125.785362,626.904785 126.094757,628.264771 
	C126.071243,629.069763 126.119637,629.610596 126.116661,630.547485 
	C126.432411,631.629333 126.799530,632.314941 127.095734,633.331177 
	C127.072105,634.107605 127.119377,634.553406 127.094727,635.356201 
	C127.404076,636.809021 127.785362,637.904785 128.095734,639.331177 
	C128.072083,640.107605 128.119354,640.553406 128.094711,641.356201 
	C128.404068,642.809021 128.785355,643.904785 129.095734,645.331177 
	C129.072083,646.107605 129.119370,646.553406 129.094711,647.356201 
	C129.404068,648.809021 129.785355,649.904785 130.095734,651.331177 
	C130.072098,652.107605 130.119370,652.553406 130.094727,653.356201 
	C130.404068,654.809021 130.785355,655.904785 131.095734,657.331177 
	C131.072083,658.107605 131.119354,658.553406 131.094482,659.376282 
	C131.403763,661.169128 131.785202,662.584839 132.095734,664.331177 
	C132.072083,665.107605 132.119370,665.553406 132.094269,666.442871 
	C131.975098,669.578125 131.928284,672.269592 131.594025,675.072021 
	C130.506744,676.101990 129.706909,677.021057 128.947205,677.964111 
	C128.987335,677.988098 128.939987,677.907410 128.606781,678.057922 
	C125.849770,679.194458 123.425980,680.180542 120.668335,681.095642 
	C119.884354,681.071960 119.434235,681.119263 118.726425,681.132629 
	C118.368042,681.393005 118.267342,681.687195 118.094025,682.446167 
	C118.069824,689.945862 118.118240,696.980835 118.132706,704.273376 
	C118.392921,704.631836 118.687080,704.732605 119.446060,704.906006 
	C139.279266,704.930176 158.647659,704.881836 178.273712,704.867310 
	C178.632034,704.606934 178.732697,704.312744 178.905975,703.553833 
	C178.930176,696.393066 178.881760,689.697021 178.788422,682.637085 
	C176.509537,681.477051 174.275620,680.680908 171.882477,679.571045 
	C170.149246,677.329895 167.683838,675.621765 167.146957,673.439148 
	C163.857483,660.066895 160.661026,646.652527 158.088776,633.127625 
	C154.412598,613.798218 151.424469,594.338928 147.910889,574.977173 
	C144.430542,555.798645 140.527679,536.696838 137.058884,517.516296 
	C133.527527,497.989899 130.397415,478.391144 126.907730,458.856903 
	C124.079742,443.026642 120.974304,427.245972 118.000847,411.441620 
	C115.357803,397.393555 112.652359,383.356659 110.115509,369.289398 
	C108.237473,358.875397 106.585831,348.420532 104.906372,337.784515 
	C104.979401,337.585144 105.008537,337.161469 105.008537,337.161469 
	C106.837151,337.107635 108.665764,337.006714 110.494377,337.006683 
	C423.379578,336.999725 736.264832,337.000000 1049.150024,337.000000 
	C1050.950317,337.000000 1052.750610,337.000000 1054.988525,337.000000 
	C1054.988525,427.905762 1054.988525,518.483154 1054.520386,609.478516 
	C1053.369141,607.128113 1052.571167,604.382324 1052.021362,601.587708 
	C1048.612183,584.260132 1041.352539,568.834106 1029.296143,555.835449 
	C1022.235413,548.222778 1014.539001,541.154602 1007.958801,533.158325 
	C1004.098328,528.467163 1000.495850,522.735229 999.226562,516.935425 
	C997.344177,508.333771 997.156860,499.258331 997.124695,490.381378 
	C997.087219,480.020477 1000.246094,470.470062 1005.651367,461.433441 
	C1009.906982,454.318604 1018.353638,454.439758 1023.573853,460.223206 
	C1025.497437,462.354218 1027.314209,465.089386 1027.896973,467.822479 
	C1029.328369,474.536316 1030.258911,481.384888 1030.934082,488.224365 
	C1031.674805,495.727783 1031.903564,503.281769 1032.346069,510.659180 
	C1037.104736,510.659180 1041.360840,510.659180 1046.000000,510.659180 
	C1046.000000,508.684235 1046.000000,507.047272 1046.000000,505.410309 
	C1046.000000,488.411011 1045.547485,471.394012 1046.211182,454.420654 
	C1046.497314,447.098053 1044.234375,442.605255 1037.935547,439.440125 
	C1027.916748,434.405731 1017.660583,430.342438 1006.190491,432.435242 
	C991.739380,435.071930 983.768311,445.242218 977.976685,457.691895 
	C970.381592,474.018066 968.651428,491.549835 968.159302,509.166656 
	C967.911804,518.025696 969.149048,526.949585 970.039612,535.811462 
	C971.335083,548.702209 975.662903,560.646606 981.492981,572.188965 
	C988.185974,585.440186 998.655151,595.484070 1008.407104,606.294739 
	C1014.013977,612.510315 1018.542969,620.166931 1021.801941,627.913330 
	C1025.893433,637.638794 1026.792847,648.102112 1025.223633,658.902161 
	C1023.978821,667.470398 1022.582458,675.741821 1018.282715,683.362427 
	C1014.075684,690.818604 1009.176331,692.489807 1001.445740,689.162231 
	C993.909058,685.918213 989.322327,679.805786 987.211914,672.475830 
	C984.962585,664.663452 984.037903,656.418884 983.088318,648.298279 
	C982.232361,640.979126 982.124878,633.572449 981.694824,626.331177 
	C976.912537,626.331177 972.656067,626.331177 968.410217,626.331177 
	C968.236755,627.119934 968.042847,627.591431 968.042297,628.063110 
	C968.018005,649.728760 967.974182,671.394531 968.082947,693.059570 
	C968.090271,694.504639 968.957764,696.221558 969.954346,697.341064 
	C977.056519,705.319458 985.774719,710.661316 996.257446,713.060547 
	C997.249146,713.287598 998.077515,714.228271 998.981689,714.837585 
	C970.969116,714.887878 942.956604,714.938171 914.640503,714.602905 
	C925.481934,709.795715 932.870361,701.604553 938.023865,691.006653 
	C950.792603,664.748413 952.724548,637.158691 949.161011,608.620178 
	C946.078491,583.933472 934.532532,563.932495 917.239685,546.736023 
	C913.042358,542.562012 908.300232,538.783508 904.830078,534.070984 
	C900.908997,528.746094 896.646118,522.913879 895.226196,516.687805 
	C893.199707,507.801941 893.048523,498.350525 893.158081,489.153320 
	C893.272644,479.539093 895.859924,470.308533 901.329529,462.142639 
	C906.978821,453.708496 915.265808,453.908630 921.158203,462.349915 
	C925.519714,468.598145 926.405884,475.743225 926.930908,482.929321 
	C927.602966,492.128479 927.774902,501.364166 928.162598,510.590546 
	C933.008118,510.590546 937.381226,510.590546 942.000000,510.590546 
	C942.000000,491.533844 941.565491,472.870239 942.219849,454.244873 
	C942.471497,447.079803 940.246704,442.807129 934.184692,439.654968 
	C924.074463,434.397827 913.723877,430.365631 902.050415,432.492432 
	C887.743347,435.098999 879.825806,445.182648 874.071655,457.361938 
	C866.543640,473.295746 864.735046,490.528107 864.172852,507.797119 
	C863.868408,517.147034 865.126709,526.574585 866.047058,535.930969 
	C867.298462,548.653137 871.560303,560.480347 877.283569,571.864868 
	C883.935974,585.097473 893.973694,595.532898 904.225525,605.920776 
	C908.095642,609.842285 911.308044,614.608459 914.020203,619.438843 
	C920.914978,631.718689 923.098328,644.861389 921.183167,658.970276 
	C920.018066,667.553345 918.571533,675.810303 914.245544,683.418091 
	C910.020874,690.847595 905.125732,692.495728 897.387390,689.145874 
	C889.855530,685.885376 885.303101,679.755066 883.202759,672.423950 
	C880.964233,664.610413 880.037048,656.370972 879.087891,648.253113 
	C878.232605,640.938843 878.122009,633.537537 877.693115,626.343262 
	C872.887817,626.343262 868.632996,626.343262 864.004456,626.343262 
	C864.004456,648.980347 863.973022,671.276672 864.085876,693.572144 
	C864.092407,694.849060 865.033997,696.336914 865.950195,697.359375 
	C873.076050,705.312073 881.778931,710.663391 892.258606,713.060730 
	C893.249878,713.287537 894.077881,714.228271 894.981689,714.837585 
M613.820984,659.378723 
	C613.176086,659.571655 612.531189,659.764587 611.273682,660.213196 
	C609.393127,662.096436 607.619202,664.102661 605.613464,665.841553 
	C597.206299,673.130188 588.055786,678.671753 576.563538,673.707703 
	C567.279358,669.697510 562.484436,661.366943 559.041199,652.370483 
	C554.180115,639.669861 551.590393,626.473999 550.883728,612.859314 
	C550.219849,600.067505 549.141174,587.297180 548.242676,574.484680 
	C570.805664,574.484680 592.163025,574.484680 613.745667,574.484680 
	C613.802246,574.019165 614.007996,573.211670 613.981628,572.411865 
	C613.337891,552.894897 613.113586,533.349792 611.841736,513.873169 
	C611.057739,501.867401 609.281189,489.839722 606.841187,478.051422 
	C603.979736,464.226105 600.132874,450.660583 590.313599,439.581116 
	C579.557983,427.445160 562.651428,426.960846 550.913757,437.567841 
	C542.924316,444.787628 538.109985,454.190552 534.189392,463.822632 
	C524.195068,488.376556 520.098816,514.413208 519.280151,540.618713 
	C518.219543,574.568481 517.573853,608.661377 524.961914,642.236084 
	C528.992432,660.552185 534.222900,678.333191 544.990356,694.029602 
	C553.291992,706.131470 564.283264,713.658386 579.355469,712.882019 
	C592.166626,712.222107 602.921631,706.076355 612.503357,697.885132 
	C613.434875,697.088867 613.929077,695.305847 613.935730,693.977478 
	C613.992249,682.652405 613.888977,671.326538 613.820984,659.378723 
M673.000000,592.500000 
	C673.000000,581.414001 673.000000,570.327942 673.000000,559.482605 
	C679.866882,558.770752 686.026428,558.621277 691.974182,557.421875 
	C708.348206,554.119995 718.886719,543.292419 725.929382,528.949829 
	C737.430298,505.527710 739.789490,480.041107 740.834717,454.541138 
	C741.654602,434.538910 741.235962,414.497803 738.121094,394.571106 
	C736.044922,381.289001 732.777466,368.525879 725.924133,356.913727 
	C719.823364,346.576691 710.170471,341.157135 698.527954,341.183807 
	C676.483521,341.234314 654.441345,342.333923 632.398499,343.004181 
	C631.107056,343.043427 629.817261,343.140533 628.273682,343.224457 
	C628.273682,351.116302 628.273682,358.709564 628.273682,366.287994 
	C638.053833,369.189453 641.011597,371.616974 641.886963,378.425049 
	C642.559753,383.657501 642.968201,388.965729 642.952759,394.238678 
	C642.685059,485.648041 642.325439,577.057129 642.015564,668.466309 
	C641.991760,675.502930 639.467896,680.915344 631.515686,683.086670 
	C630.196655,683.446838 628.222290,684.887878 628.182373,685.894165 
	C627.895142,693.143677 628.028442,700.409912 628.028442,707.725525 
	C648.976196,707.725525 669.225647,707.725525 689.736694,707.725525 
	C689.736694,699.858032 689.736694,692.261292 689.736694,684.387817 
	C688.046448,683.921753 686.317505,683.515747 684.634827,682.967773 
	C679.827820,681.402283 675.196655,679.396729 674.133545,673.775146 
	C673.402344,669.908386 673.064514,665.913879 673.047668,661.974365 
	C672.950073,639.149902 673.000000,616.324829 673.000000,592.500000 
M308.481445,644.982483 
	C309.320862,652.625488 309.979401,660.293823 311.042511,667.905579 
	C312.598175,679.044128 315.380951,689.852539 320.966339,699.754639 
	C327.530914,711.392639 339.746216,716.202026 351.603729,707.121521 
	C359.505188,701.070496 363.107300,692.312012 366.855469,683.746643 
	C369.761505,677.105652 371.572968,669.985657 373.871002,663.078613 
	C374.199951,663.112976 374.528900,663.147400 374.857849,663.181763 
	C374.857849,677.327087 374.857849,691.472412 374.857849,705.721191 
	C390.220276,705.721191 404.944824,705.721191 419.746887,705.721191 
	C419.746887,697.680603 419.746887,689.921021 419.746887,682.189575 
	C409.287292,681.181641 406.241669,677.364319 405.098846,669.390015 
	C404.330048,664.025452 404.049011,658.549683 404.043915,653.123230 
	C403.977722,582.480469 404.000000,511.837646 404.000000,441.194824 
	C404.000000,439.250336 404.000000,437.305847 404.000000,435.291504 
	C388.753998,435.291504 374.029266,435.291504 359.153656,435.291504 
	C359.153656,443.202393 359.153656,450.822235 359.153656,458.417969 
	C370.455383,461.001587 373.434326,464.512878 373.958466,476.723602 
	C374.477112,488.806946 374.908203,500.903473 374.954071,512.995850 
	C375.084839,547.483704 374.914490,581.972656 375.036407,616.460571 
	C375.096527,633.470581 368.489655,648.171753 359.303619,661.799866 
	C357.461945,664.532227 352.336517,667.099548 349.397614,666.491760 
	C346.193237,665.828918 342.363922,661.829041 341.308563,658.492615 
	C339.275055,652.063660 338.154083,645.080444 338.131592,638.322144 
	C337.912872,572.511780 338.000000,506.700348 338.000000,440.889221 
	C338.000000,438.973816 338.000000,437.058411 338.000000,435.222839 
	C322.656067,435.222839 308.048889,435.222839 293.222321,435.222839 
	C293.222321,443.202423 293.222321,450.960236 293.222321,458.690399 
	C302.000885,460.164703 306.017578,463.441437 306.917511,470.417542 
	C307.569305,475.470245 307.946808,480.594910 307.955750,485.688385 
	C308.048676,538.503174 308.041840,591.318237 308.481445,644.982483 
M230.073364,643.658020 
	C232.697037,634.484497 235.358429,625.321594 237.936813,616.135376 
	C243.971970,594.633423 250.007645,573.131470 255.968643,551.608887 
	C263.483765,524.474915 270.526154,497.201447 278.579773,470.229187 
	C282.156738,458.249756 282.169556,446.397552 281.792023,434.328979 
	C251.340073,434.328979 221.284866,434.328979 191.357666,434.328979 
	C191.357666,456.385040 191.357666,478.110352 191.357666,499.783478 
	C195.995728,499.783478 200.274353,499.783478 204.710632,499.783478 
	C205.146500,489.864136 205.635574,480.152435 205.981430,470.435608 
	C206.284515,461.920593 208.840012,458.118500 214.963089,458.035248 
	C224.625015,457.903839 234.290619,458.059967 243.953461,457.968445 
	C247.390488,457.935913 248.445572,459.834503 247.670532,462.613434 
	C242.933319,479.598785 237.988007,496.525940 233.201080,513.497620 
	C227.094864,535.146790 221.041168,556.810852 215.023285,578.484741 
	C207.880325,604.210876 201.387085,630.136475 193.478912,655.624023 
	C188.457092,671.809082 187.124496,687.965942 188.350906,704.729065 
	C220.210312,704.729065 251.931381,704.729065 283.699646,704.729065 
	C283.699646,682.732910 283.699646,661.009033 283.699646,639.335999 
	C278.663513,639.335999 273.937500,639.335999 269.000000,639.335999 
	C269.000000,647.652222 269.370392,655.655090 268.910034,663.609985 
	C268.276276,674.560852 266.189117,678.277466 254.779053,678.026672 
	C248.117645,677.880188 241.450378,678.000000 234.785751,678.000000 
	C230.231064,678.000000 225.676392,678.000000 220.642365,678.000000 
	C223.914261,666.284241 226.957367,655.387573 230.073364,643.658020 
M494.000824,507.234436 
	C494.496338,511.087921 494.991852,514.941406 495.466492,518.632629 
	C500.067963,518.632629 504.460663,518.632629 508.999207,518.632629 
	C508.999207,490.446259 509.042938,462.626740 508.861237,434.808655 
	C508.852753,433.511475 507.082581,431.593048 505.703888,431.046783 
	C499.638611,428.643646 491.626648,432.365479 486.965454,438.999786 
	C480.343445,448.424988 476.241333,458.934784 472.946320,469.852417 
	C472.630280,470.899597 471.542938,471.714050 470.813690,472.636536 
	C470.456299,472.445801 470.098877,472.255035 469.741486,472.064301 
	C469.741486,460.134277 469.741486,448.204285 469.741486,436.335938 
	C454.665955,436.335938 439.939240,436.335938 425.157959,436.335938 
	C425.157959,444.301636 425.157959,451.930573 425.157959,459.526520 
	C434.119171,461.345673 437.960205,464.420807 438.902802,471.244598 
	C439.599579,476.289124 439.973602,481.423187 439.951813,486.515076 
	C439.693329,546.930115 439.311920,607.344604 439.027527,667.759583 
	C438.992615,675.182800 435.404999,680.817932 427.923798,682.100830 
	C426.840637,682.286560 425.172150,683.745972 425.144196,684.657959 
	C424.917114,692.065918 425.016602,699.483887 425.016602,706.762573 
	C446.372284,706.762573 466.979736,706.762573 487.786407,706.762573 
	C487.786407,698.766541 487.786407,691.008118 487.786407,683.284424 
	C485.345123,682.809143 482.966766,682.730164 480.917389,681.868530 
	C476.437927,679.985107 471.710663,677.943970 471.068085,672.249695 
	C470.459534,666.857300 470.054535,661.410522 470.044586,655.986877 
	C469.964813,612.496582 470.192627,569.004700 469.860992,525.516785 
	C469.780731,514.990540 471.024170,504.946960 475.070557,495.319153 
	C477.563507,489.387421 480.056335,483.328369 487.030304,480.898010 
	C490.457886,479.703522 492.640686,480.639465 492.919281,484.053253 
	C493.522278,491.442047 493.667572,498.868256 494.000824,507.234436 
z"/>
<path fill="#32B8EE" opacity="1.000000" stroke="none" 
	d="
M129.166626,645.000610 
	C128.785355,643.904785 128.404068,642.809021 128.375305,641.312378 
	C129.021805,640.593445 129.315750,640.275269 129.609680,639.957092 
	C129.128662,639.638306 128.647644,639.319458 128.166626,639.000610 
	C127.785362,637.904785 127.404076,636.809021 127.375298,635.312378 
	C128.021774,634.593445 128.315750,634.275269 128.609741,633.957153 
	C128.128723,633.638306 127.647690,633.319458 127.166656,633.000610 
	C126.799530,632.314941 126.432411,631.629333 126.440231,630.470032 
	C126.598999,629.331116 126.382828,628.665833 126.166656,628.000549 
	C125.785362,626.904785 125.404076,625.808960 125.375320,624.312378 
	C126.021805,623.593445 126.315758,623.275269 126.609695,622.957092 
	C126.128662,622.638306 125.647652,622.319458 125.166656,622.000610 
	C124.799530,621.314941 124.432411,620.629333 124.440216,619.469971 
	C124.598984,618.331055 124.382820,617.665833 124.166656,617.000549 
	C123.785362,615.904785 123.404068,614.808960 123.375305,613.312378 
	C124.021782,612.593445 124.315735,612.275269 124.609680,611.957092 
	C124.128662,611.638306 123.647659,611.319458 123.166656,611.000610 
	C122.799538,610.314941 122.432419,609.629333 122.440216,608.469971 
	C122.598969,607.331055 122.382812,606.665833 122.166656,606.000549 
	C121.785370,604.904785 121.404076,603.808960 121.375290,602.312378 
	C122.021759,601.593445 122.315712,601.275269 122.609673,600.957092 
	C122.128685,600.638245 121.647675,600.319397 121.166656,600.000610 
	C120.799530,599.314941 120.432404,598.629333 120.440208,597.469971 
	C120.598976,596.331055 120.382812,595.665833 120.166664,595.000549 
	C119.478989,594.669922 118.792084,594.052368 118.103508,594.050476 
	C98.955528,593.998352 79.807388,594.008667 60.219872,594.008667 
	C56.793419,614.159973 53.314270,634.146179 50.040424,654.166016 
	C49.064548,660.133545 48.476635,666.183655 48.108063,672.220215 
	C47.989098,674.168762 49.139820,676.194824 49.917778,678.906006 
	C53.361675,680.751160 56.597507,681.875793 59.833344,683.000427 
	C59.881756,689.696655 59.930172,696.392944 59.730080,703.645630 
	C59.262501,704.365479 59.107281,704.575928 59.015907,704.833435 
	C46.980690,704.881836 34.945469,704.930176 22.353409,704.730957 
	C21.633493,704.265137 21.423416,704.111023 21.166336,704.021057 
	C21.303528,696.342224 21.440720,688.663330 22.134138,680.527466 
	C23.073551,680.103088 23.456739,680.135742 23.986359,680.558472 
	C29.269171,682.852356 33.953339,679.957520 34.480045,673.807678 
	C34.580227,672.637939 38.285973,669.840088 33.932419,668.636841 
	C34.046726,667.873108 34.106693,667.436584 34.489792,666.958008 
	C35.417049,666.310425 36.021179,665.704956 36.625313,665.099487 
	C36.043018,664.720886 35.460720,664.342346 34.932602,663.636536 
	C35.046745,662.872925 35.106701,662.436462 35.489796,661.958008 
	C36.417065,661.310486 37.021194,660.704956 37.625320,660.099487 
	C37.043015,659.720947 36.460716,659.342346 35.932602,658.636536 
	C36.046745,657.872925 36.106701,657.436462 36.489792,656.958008 
	C37.417053,656.310486 38.021183,655.704956 38.625313,655.099487 
	C38.043007,654.720947 37.460709,654.342346 36.932602,653.636536 
	C37.046745,652.872925 37.106701,652.436462 37.489799,651.958008 
	C38.417068,651.310486 39.021198,650.704956 39.625332,650.099487 
	C39.043034,649.720886 38.460735,649.342285 37.932613,648.636536 
	C38.046745,647.872925 38.106705,647.436462 38.489796,646.958008 
	C39.417061,646.310486 40.021191,645.704956 40.625309,645.099487 
	C40.042995,644.720947 39.460697,644.342346 38.931374,643.594238 
	C39.045116,642.483154 39.105888,641.741638 39.489796,640.958008 
	C40.417061,640.310486 41.021191,639.704956 41.625320,639.099487 
	C41.043018,638.720886 40.460720,638.342346 39.932610,637.636536 
	C40.046753,636.872925 40.106709,636.436462 40.489792,635.958008 
	C41.417053,635.310425 42.021183,634.704956 42.625320,634.099487 
	C42.043030,633.720886 41.460732,633.342346 40.931385,632.594238 
	C41.045113,631.483154 41.105885,630.741638 41.489799,629.958008 
	C42.417076,629.310486 43.021206,628.705017 43.625336,628.099487 
	C43.043037,627.720886 42.460735,627.342285 41.932617,626.636536 
	C42.046749,625.872925 42.106705,625.436462 42.489799,624.958008 
	C43.417068,624.310486 44.021198,623.704956 44.625320,623.099487 
	C44.043015,622.720947 43.460712,622.342346 42.931381,621.594238 
	C43.045116,620.483154 43.105888,619.741638 43.489799,618.958008 
	C44.417068,618.310486 45.021198,617.704956 45.625324,617.099487 
	C45.043018,616.720886 44.460720,616.342346 43.932606,615.636536 
	C44.046745,614.872925 44.106705,614.436462 44.489796,613.958008 
	C45.417061,613.310486 46.021191,612.704956 46.625324,612.099487 
	C46.043030,611.720886 45.460732,611.342346 44.931389,610.594238 
	C45.045120,609.483154 45.105892,608.741638 45.489799,607.958008 
	C46.417061,607.310486 47.021191,606.704956 47.625320,606.099487 
	C47.043018,605.720886 46.460720,605.342346 45.932606,604.636536 
	C46.046745,603.872925 46.106701,603.436462 46.489792,602.958008 
	C47.417053,602.310425 48.021183,601.704956 48.625320,601.099487 
	C48.043030,600.720886 47.460732,600.342346 46.931389,599.594238 
	C47.045120,598.483154 47.105892,597.741638 47.489807,596.958008 
	C48.417076,596.310486 49.021206,595.705017 49.625328,595.099487 
	C49.043018,594.720886 48.460720,594.342346 47.932610,593.636536 
	C48.046757,592.872925 48.106716,592.436462 48.489807,591.958008 
	C49.417068,591.310486 50.021198,590.704956 50.625328,590.099487 
	C50.043030,589.720886 49.460732,589.342346 48.931389,588.594238 
	C49.045116,587.483154 49.105888,586.741638 49.489799,585.958008 
	C50.417068,585.310486 51.021198,584.704956 51.625324,584.099487 
	C51.043022,583.720886 50.460720,583.342346 49.931381,582.594238 
	C50.045116,581.483154 50.105888,580.741638 50.489799,579.958008 
	C51.417068,579.310486 52.021198,578.704956 52.625328,578.099487 
	C52.043026,577.720886 51.460728,577.342346 50.932610,576.636536 
	C51.046745,575.872925 51.106701,575.436462 51.489796,574.958008 
	C52.417061,574.310486 53.021191,573.704956 53.625320,573.099487 
	C53.043022,572.720886 52.460720,572.342346 51.931385,571.594238 
	C52.045120,570.483154 52.105892,569.741638 52.489799,568.958008 
	C53.417061,568.310486 54.021191,567.704956 54.625324,567.099487 
	C54.043026,566.720886 53.460728,566.342346 52.932610,565.636536 
	C53.046741,564.872925 53.106701,564.436462 53.489799,563.958008 
	C54.417076,563.310486 55.021206,562.705017 55.625328,562.099487 
	C55.043022,561.720886 54.460720,561.342346 53.931381,560.594238 
	C54.045116,559.483154 54.105888,558.741638 54.489792,557.958008 
	C55.417053,557.310486 56.021183,556.704956 56.625320,556.099487 
	C56.043026,555.720886 55.460728,555.342346 54.932606,554.636536 
	C55.046741,553.872925 55.106697,553.436462 55.489796,552.958008 
	C56.417068,552.310486 57.021198,551.704956 57.625324,551.099487 
	C57.043022,550.720886 56.460720,550.342346 55.931381,549.594238 
	C56.045116,548.483154 56.105888,547.741638 56.489799,546.958008 
	C57.417068,546.310486 58.021198,545.704956 58.625328,545.099487 
	C58.043026,544.720886 57.460728,544.342346 56.932613,543.636536 
	C57.046753,542.872925 57.106709,542.436462 57.489799,541.958008 
	C58.417061,541.310486 59.021191,540.704956 59.625320,540.099487 
	C59.043022,539.720886 58.460720,539.342346 57.931385,538.594238 
	C58.045120,537.483154 58.105892,536.741638 58.489799,535.958008 
	C59.417061,535.310486 60.021191,534.704956 60.625313,534.099487 
	C60.043011,533.720947 59.460712,533.342346 58.932594,532.636536 
	C59.046734,531.872925 59.106693,531.436462 59.489799,530.958008 
	C60.417076,530.310486 61.021206,529.705017 61.625328,529.099487 
	C61.043022,528.720886 60.460724,528.342346 59.931389,527.594238 
	C60.045124,526.483154 60.105896,525.741638 60.489796,524.958008 
	C61.417053,524.310486 62.021183,523.704956 62.625313,523.099487 
	C62.043011,522.720947 61.460712,522.342346 60.932602,521.636536 
	C61.046749,520.872925 61.106705,520.436462 61.489792,519.958008 
	C62.417068,519.310486 63.021210,518.704956 63.625351,518.099487 
	C63.043049,517.720886 62.460739,517.342346 61.931385,516.594238 
	C62.045113,515.483154 62.105885,514.741638 62.489807,513.958008 
	C63.417110,513.310547 64.021271,512.705078 64.625427,512.099609 
	C64.043144,511.720917 63.460857,511.342255 62.931473,510.594177 
	C63.045135,509.483185 63.105896,508.741608 63.489815,507.958008 
	C64.417122,507.310516 65.021271,506.705048 65.625427,506.099609 
	C65.043129,505.720947 64.460846,505.342285 63.932686,504.636475 
	C64.046761,503.872864 64.106705,503.436462 64.489815,502.958038 
	C65.417114,502.310547 66.021255,501.705048 66.625389,501.099579 
	C66.043121,500.720917 65.460854,500.342255 64.931488,499.594116 
	C65.045135,498.483124 65.105896,497.741608 65.489799,496.958008 
	C66.417091,496.310516 67.021233,495.705048 67.625381,495.099548 
	C67.043129,494.720917 66.460861,494.342255 65.932709,493.636414 
	C66.046761,492.872864 66.106705,492.436462 66.489799,491.958008 
	C67.417091,491.310516 68.021233,490.705048 68.625381,490.099548 
	C68.043121,489.720917 67.460854,489.342255 66.931488,488.594116 
	C67.045135,487.483124 67.105896,486.741608 67.489807,485.958008 
	C68.417091,485.310516 69.021233,484.705048 69.625381,484.099548 
	C69.043129,483.720917 68.460861,483.342255 67.932709,482.636414 
	C68.046768,481.872864 68.106712,481.436462 68.489815,480.958038 
	C69.417114,480.310547 70.021255,479.705078 70.625397,479.099579 
	C70.043137,478.720917 69.460869,478.342255 68.931496,477.594116 
	C69.045143,476.483124 69.105904,475.741608 69.489815,474.958038 
	C70.417114,474.310547 71.021255,473.705078 71.625397,473.099579 
	C71.043129,472.720917 70.460861,472.342255 69.932709,471.636414 
	C70.046768,470.872864 70.106712,470.436462 70.489815,469.958038 
	C71.417114,469.310547 72.021255,468.705078 72.625397,468.099579 
	C72.043137,467.720917 71.460869,467.342255 70.931503,466.594116 
	C71.045143,465.483124 71.105904,464.741608 71.489822,463.958038 
	C72.417114,463.310547 73.021255,462.705078 73.625397,462.099579 
	C73.043129,461.720917 72.460861,461.342255 71.932709,460.636414 
	C72.046761,459.872864 72.106705,459.436462 72.489807,458.958038 
	C73.417114,458.310547 74.021255,457.705078 74.625397,457.099579 
	C74.043137,456.720917 73.460869,456.342255 72.931488,455.594116 
	C73.045135,454.483124 73.105896,453.741608 73.489807,452.958038 
	C74.417114,452.310547 75.021255,451.705078 75.625397,451.099579 
	C75.043129,450.720917 74.460861,450.342255 73.932709,449.636414 
	C74.046768,448.872864 74.106712,448.436462 74.489807,447.958038 
	C75.417091,447.310516 76.021233,446.705048 76.625381,446.099579 
	C76.043137,445.720917 75.460869,445.342255 74.931496,444.594116 
	C75.045143,443.483124 75.105896,442.741608 75.489807,441.958038 
	C76.417091,441.310516 77.021233,440.705048 77.625381,440.099579 
	C77.043129,439.720917 76.460861,439.342255 75.932716,438.636414 
	C76.046776,437.872864 76.106720,437.436462 76.489807,436.958038 
	C77.417099,436.310516 78.021240,435.705048 78.625389,435.099579 
	C78.043137,434.720917 77.460869,434.342255 76.931496,433.594116 
	C77.045143,432.483124 77.105904,431.741608 77.489807,430.958038 
	C78.417091,430.310516 79.021233,429.705048 79.625381,429.099579 
	C79.043129,428.720917 78.460861,428.342255 77.931488,427.594116 
	C78.045135,426.483124 78.105896,425.741608 78.489799,424.958038 
	C79.417091,424.310516 80.021233,423.705048 80.625381,423.099579 
	C80.043137,422.720917 79.460869,422.342255 78.932716,421.636414 
	C79.046768,420.872864 79.106712,420.436462 79.489807,419.958038 
	C80.417099,419.310516 81.021240,418.705048 81.625381,418.099579 
	C81.043129,417.720917 80.460861,417.342255 79.931488,416.594116 
	C80.045143,415.483124 80.105896,414.741608 80.489815,413.958038 
	C81.417114,413.310547 82.021255,412.705078 82.625397,412.099579 
	C82.043137,411.720917 81.460869,411.342255 80.932716,410.636414 
	C81.046768,409.872864 81.106712,409.436462 81.489822,408.958038 
	C82.417122,408.310547 83.021263,407.705078 83.625397,407.099579 
	C83.043129,406.720917 82.460861,406.342255 81.931488,405.594116 
	C82.045143,404.483124 82.105904,403.741608 82.489815,402.958038 
	C83.417114,402.310547 84.021255,401.705078 84.625397,401.099579 
	C84.043137,400.720917 83.460869,400.342255 82.932724,399.636414 
	C83.046776,398.872864 83.106720,398.436462 83.489822,397.958038 
	C84.417122,397.310547 85.021263,396.705078 85.625397,396.099579 
	C85.043129,395.720917 84.460861,395.342255 83.931496,394.594116 
	C84.045151,393.483124 84.105904,392.741608 84.489822,391.958038 
	C85.417114,391.310547 86.021255,390.705078 86.625397,390.099579 
	C86.043137,389.720917 85.460869,389.342255 84.932716,388.636414 
	C85.046768,387.872864 85.106712,387.436462 85.489807,386.958038 
	C86.417099,386.310516 87.021240,385.705048 87.625381,385.099579 
	C87.043129,384.720917 86.460861,384.342255 85.931488,383.594116 
	C86.045135,382.483124 86.105896,381.741608 86.489807,380.958038 
	C87.417099,380.310516 88.021240,379.705048 88.625389,379.099579 
	C88.043137,378.720917 87.460869,378.342255 86.932724,377.636414 
	C87.046776,376.872864 87.106720,376.436462 87.489807,375.958038 
	C88.417099,375.310516 89.021240,374.705048 89.625397,374.099548 
	C89.043144,373.720886 88.460876,373.342224 87.931503,372.594116 
	C88.045143,371.483124 88.105896,370.741608 88.489807,369.958038 
	C89.417099,369.310516 90.021240,368.705048 90.625389,368.099579 
	C90.043137,367.720917 89.460869,367.342255 88.932716,366.636414 
	C89.046768,365.872864 89.106712,365.436462 89.489822,364.958069 
	C90.417122,364.310547 91.021263,363.705078 91.625397,363.099609 
	C91.043137,362.720917 90.460869,362.342255 89.931496,361.594116 
	C90.045135,360.483124 90.105896,359.741608 90.489807,358.958038 
	C91.417099,358.310516 92.021240,357.705048 92.625389,357.099579 
	C92.043137,356.720917 91.460869,356.342255 90.931496,355.594116 
	C91.045135,354.483124 91.105896,353.741608 91.489822,352.958038 
	C92.417122,352.310547 93.021263,351.705078 93.625397,351.099579 
	C93.043114,350.720917 92.460854,350.342255 91.932709,349.636414 
	C92.046768,348.872864 92.106712,348.436462 92.489807,347.958038 
	C93.417099,347.310516 94.021240,346.705048 94.625381,346.099579 
	C94.043114,345.720917 93.460854,345.342255 92.931488,344.594116 
	C93.045143,343.483154 93.105904,342.741608 93.495811,341.959167 
	C95.216362,340.334320 96.607765,338.750366 97.999161,337.166412 
	C99.722664,337.122253 101.446175,337.078094 103.687500,337.275635 
	C104.367889,337.735840 104.577232,337.891357 104.833344,337.983887 
	C106.585831,348.420532 108.237473,358.875397 110.115509,369.289398 
	C112.652359,383.356659 115.357803,397.393555 118.000847,411.441620 
	C120.974304,427.245972 124.079742,443.026642 126.907730,458.856903 
	C130.397415,478.391144 133.527527,497.989899 137.058884,517.516296 
	C140.527679,536.696838 144.430542,555.798645 147.910889,574.977173 
	C151.424469,594.338928 154.412598,613.798218 158.088776,633.127625 
	C160.661026,646.652527 163.857483,660.066895 167.146957,673.439148 
	C167.683838,675.621765 170.149246,677.329895 171.912277,679.954224 
	C174.345306,681.434387 176.589340,682.217651 178.833374,683.000916 
	C178.881760,689.697021 178.930176,696.393066 178.730072,703.645630 
	C178.262466,704.365417 178.107300,704.575867 178.016052,704.833435 
	C158.647659,704.881836 139.279266,704.930176 119.354370,704.730042 
	C118.634499,704.262512 118.424103,704.107239 118.166656,704.015747 
	C118.118240,696.980835 118.069824,689.945862 118.269920,682.354370 
	C118.737503,681.634521 118.892731,681.424072 118.984116,681.166504 
	C119.434235,681.119263 119.884354,681.071960 120.741318,681.431274 
	C126.962410,682.984924 128.574356,682.171753 128.939987,677.907410 
	C128.939987,677.907410 128.987335,677.988098 129.331589,677.980957 
	C130.947937,677.534363 132.220032,677.094910 133.492126,676.655396 
	C132.955246,676.090637 132.418365,675.525879 131.881470,674.961121 
	C131.928284,672.269592 131.975098,669.578125 132.374878,666.399048 
	C133.021790,665.593445 133.315735,665.275269 133.609680,664.957092 
	C133.128662,664.638306 132.647644,664.319458 132.166626,664.000610 
	C131.785202,662.584839 131.403763,661.169128 131.375076,659.332458 
	C132.021790,658.593384 132.315735,658.275269 132.609680,657.957092 
	C132.128677,657.638245 131.647659,657.319397 131.166656,657.000610 
	C130.785355,655.904785 130.404068,654.809021 130.375320,653.312378 
	C131.021805,652.593445 131.315750,652.275269 131.609711,651.957092 
	C131.128677,651.638245 130.647659,651.319397 130.166656,651.000610 
	C129.785355,649.904785 129.404068,648.809021 129.375305,647.312378 
	C130.021774,646.593384 130.315735,646.275269 130.609680,645.957092 
	C130.128662,645.638306 129.647644,645.319458 129.166626,645.000610 
M102.483429,569.000000 
	C106.589981,569.000000 110.696533,569.000000 114.922096,569.000000 
	C106.701950,524.329163 98.580963,480.197205 90.459976,436.065216 
	C89.932411,436.025635 89.404839,435.986084 88.877274,435.946503 
	C80.961884,480.112640 73.046494,524.278809 65.031631,569.000000 
	C77.268509,569.000000 89.378120,569.000000 102.483429,569.000000 
z"/>
<path fill="#05549E" opacity="1.000000" stroke="none" 
	d="
M779.400146,714.908447 
	C778.721069,714.286072 778.536621,713.313232 778.180908,713.245911 
	C767.854187,711.293396 763.450012,702.998535 759.599670,694.870850 
	C753.723816,682.467712 750.536011,669.184082 750.016052,655.395508 
	C749.559570,643.292236 748.412048,631.119873 749.206543,619.086060 
	C750.533325,598.991394 753.908691,579.169128 765.995667,562.153442 
	C772.312744,553.260376 780.775269,547.735291 791.974731,546.976746 
	C797.399536,546.609253 802.809509,546.023254 809.000000,545.466614 
	C809.000000,544.106323 809.000000,542.517883 809.000000,540.929382 
	C809.000000,524.598022 809.440002,508.250000 808.823242,491.941956 
	C808.490845,483.152496 806.671143,474.365662 804.902161,465.704315 
	C803.845093,460.528809 800.846558,455.986847 795.073364,455.107086 
	C788.684692,454.133545 784.310486,457.406769 780.584656,462.585114 
	C776.150513,468.747681 775.430542,475.696167 775.092529,482.716614 
	C774.696838,490.935028 775.000000,499.187073 775.000000,507.706116 
	C768.607605,507.706116 763.683655,507.706116 758.476562,507.706116 
	C758.325745,506.965424 758.033142,506.194580 758.031799,505.423187 
	C758.001831,488.425293 757.965332,471.427124 758.067688,454.429840 
	C758.076660,452.934998 758.649048,451.108856 759.612244,450.006927 
	C767.981323,440.432129 778.093445,433.147125 790.809631,431.335602 
	C806.027466,429.167786 818.039490,434.007019 827.326416,450.833130 
	C833.125122,461.339203 835.980469,472.917603 836.908447,484.743225 
	C841.406616,542.063416 837.843323,599.499390 839.109436,656.868774 
	C839.271301,664.202637 840.741089,671.533813 841.950989,678.808716 
	C842.728271,683.482117 845.035217,686.660095 850.486877,684.174744 
	C851.002380,691.336365 851.726318,698.239990 851.829529,705.152832 
	C851.853821,706.781006 850.118286,708.911499 848.605286,709.979248 
	C846.100525,711.746826 843.119019,712.838989 840.179199,714.526855 
	C837.965759,714.885254 835.911499,714.932556 833.395630,714.557007 
	C820.743835,706.981140 817.726379,694.450623 813.985535,680.504150 
	C812.167053,683.041260 810.857971,684.463318 810.006531,686.120422 
	C804.040649,697.731567 798.178345,709.397400 784.561707,714.032837 
	C784.318054,714.115723 784.197998,714.561768 784.020264,714.838257 
	C782.618469,714.885559 781.216675,714.932861 779.400146,714.908447 
M808.999451,572.738770 
	C809.728516,568.269836 806.547424,568.768311 803.994934,569.062134 
	C796.013062,569.980774 790.287048,574.461548 786.396240,581.238037 
	C780.425171,591.637634 778.524719,603.228088 778.145203,614.919922 
	C777.796387,625.668152 778.034851,636.527222 779.233765,647.200500 
	C779.986938,653.905579 782.391296,660.622131 785.145813,666.851074 
	C788.026428,673.365356 794.246094,675.897461 798.249939,672.763672 
	C804.356201,667.984375 809.009277,662.048889 809.005066,653.647644 
	C808.991516,626.994080 809.000000,600.340454 808.999451,572.738770 
z"/>
<path fill="#000000" opacity="1.000000" stroke="none" 
	d="
M82.166656,403.000061 
	C82.105904,403.741608 82.045143,404.483124 81.622139,405.750977 
	C81.228813,407.184906 81.197731,408.092468 81.166656,409.000061 
	C81.106712,409.436462 81.046768,409.872864 80.623367,410.793274 
	C80.228821,412.184906 80.197739,413.092468 80.166656,414.000061 
	C80.105896,414.741608 80.045143,415.483124 79.622139,416.750977 
	C79.228813,418.184906 79.197731,419.092468 79.166656,420.000061 
	C79.106712,420.436462 79.046768,420.872864 78.623360,421.793274 
	C78.228813,423.184906 78.197731,424.092468 78.166656,425.000061 
	C78.105896,425.741608 78.045135,426.483124 77.622131,427.750977 
	C77.228813,429.184906 77.197739,430.092468 77.166656,431.000061 
	C77.105904,431.741608 77.045143,432.483124 76.622139,433.750977 
	C76.228813,435.184906 76.197739,436.092468 76.166656,437.000061 
	C76.106720,437.436462 76.046776,437.872864 75.623367,438.793274 
	C75.228821,440.184906 75.197746,441.092468 75.166656,442.000061 
	C75.105896,442.741608 75.045143,443.483124 74.622131,444.750977 
	C74.228806,446.184906 74.197731,447.092468 74.166656,448.000061 
	C74.106712,448.436462 74.046768,448.872864 73.623360,449.793274 
	C73.228813,451.184906 73.197739,452.092468 73.166656,453.000061 
	C73.105896,453.741608 73.045135,454.483124 72.622131,455.750977 
	C72.228813,457.184906 72.197739,458.092468 72.166656,459.000061 
	C72.106705,459.436462 72.046761,459.872864 71.623352,460.793274 
	C71.228813,462.184906 71.197739,463.092468 71.166656,464.000061 
	C71.105904,464.741608 71.045143,465.483124 70.622147,466.750977 
	C70.228821,468.184906 70.197739,469.092468 70.166656,470.000061 
	C70.106712,470.436462 70.046768,470.872864 69.623352,471.793274 
	C69.228813,473.184906 69.197731,474.092468 69.166656,475.000061 
	C69.105904,475.741608 69.045143,476.483124 68.622139,477.750977 
	C68.228821,479.184906 68.197739,480.092468 68.166656,481.000061 
	C68.106712,481.436462 68.046768,481.872864 67.623360,482.793274 
	C67.228821,484.184906 67.197739,485.092468 67.166656,486.000061 
	C67.105896,486.741608 67.045135,487.483124 66.622139,488.750977 
	C66.228821,490.184906 66.197739,491.092468 66.166656,492.000061 
	C66.106705,492.436462 66.046761,492.872864 65.623352,493.793274 
	C65.228813,495.184906 65.197731,496.092468 65.166649,497.000061 
	C65.105896,497.741608 65.045135,498.483124 64.622131,499.750977 
	C64.228813,501.184906 64.197731,502.092468 64.166656,503.000061 
	C64.106705,503.436462 64.046761,503.872864 63.623337,504.793274 
	C63.228794,506.184906 63.197727,507.092468 63.166656,508.000061 
	C63.105896,508.741608 63.045135,509.483185 62.622116,510.751038 
	C62.228794,512.184937 62.197727,513.092468 62.166656,514.000061 
	C62.105885,514.741638 62.045113,515.483154 61.622063,516.751099 
	C61.228745,518.184937 61.197704,519.092529 61.166664,520.000061 
	C61.106705,520.436462 61.046749,520.872925 60.623283,521.793335 
	C60.228741,523.184937 60.197701,524.092529 60.166664,525.000061 
	C60.105896,525.741638 60.045124,526.483154 59.622063,527.751099 
	C59.228737,529.184937 59.197697,530.092529 59.166653,531.000061 
	C59.106693,531.436462 59.046734,531.872925 58.623283,532.793335 
	C58.228745,534.184937 58.197704,535.092529 58.166664,536.000061 
	C58.105892,536.741638 58.045120,537.483154 57.622063,538.751099 
	C57.228741,540.184937 57.197701,541.092529 57.166664,542.000061 
	C57.106709,542.436462 57.046753,542.872925 56.623291,543.793335 
	C56.228741,545.184937 56.197701,546.092529 56.166660,547.000061 
	C56.105888,547.741638 56.045116,548.483154 55.622063,549.751099 
	C55.228745,551.184937 55.197704,552.092529 55.166656,553.000061 
	C55.106697,553.436462 55.046741,553.872925 54.623283,554.793335 
	C54.228741,556.184937 54.197701,557.092529 54.166660,558.000061 
	C54.105888,558.741638 54.045116,559.483154 53.622063,560.751099 
	C53.228737,562.184937 53.197697,563.092529 53.166656,564.000061 
	C53.106701,564.436462 53.046741,564.872925 52.623283,565.793335 
	C52.228745,567.184937 52.197704,568.092529 52.166664,569.000061 
	C52.105892,569.741638 52.045120,570.483154 51.622063,571.751099 
	C51.228741,573.184937 51.197701,574.092529 51.166660,575.000061 
	C51.106701,575.436462 51.046745,575.872925 50.623283,576.793335 
	C50.228737,578.184937 50.197697,579.092529 50.166656,580.000061 
	C50.105888,580.741638 50.045116,581.483154 49.622063,582.751099 
	C49.228741,584.184937 49.197701,585.092529 49.166660,586.000061 
	C49.105888,586.741638 49.045116,587.483154 48.622063,588.751099 
	C48.228737,590.184937 48.197697,591.092529 48.166664,592.000061 
	C48.106716,592.436462 48.046757,592.872925 47.623291,593.793335 
	C47.228745,595.184937 47.197704,596.092529 47.166664,597.000061 
	C47.105892,597.741638 47.045120,598.483154 46.622063,599.751099 
	C46.228741,601.184937 46.197701,602.092529 46.166660,603.000061 
	C46.106701,603.436462 46.046745,603.872925 45.623283,604.793335 
	C45.228741,606.184937 45.197701,607.092529 45.166664,608.000061 
	C45.105892,608.741638 45.045120,609.483154 44.622066,610.751099 
	C44.228745,612.184937 44.197704,613.092529 44.166664,614.000061 
	C44.106705,614.436462 44.046745,614.872925 43.623283,615.793335 
	C43.228741,617.184937 43.197701,618.092529 43.166660,619.000061 
	C43.105888,619.741638 43.045116,620.483154 42.622063,621.751099 
	C42.228741,623.184937 42.197701,624.092529 42.166664,625.000061 
	C42.106705,625.436462 42.046749,625.872925 41.623291,626.793335 
	C41.228745,628.184937 41.197704,629.092529 41.166660,630.000061 
	C41.105885,630.741638 41.045113,631.483154 40.622063,632.751099 
	C40.228741,634.184937 40.197701,635.092529 40.166664,636.000061 
	C40.106709,636.436462 40.046753,636.872925 39.623287,637.793335 
	C39.228741,639.184937 39.197701,640.092529 39.166660,641.000061 
	C39.105888,641.741638 39.045116,642.483154 38.622063,643.751099 
	C38.228741,645.184937 38.197701,646.092529 38.166660,647.000061 
	C38.106705,647.436462 38.046745,647.872925 37.623283,648.793335 
	C37.228741,650.184937 37.197701,651.092529 37.166660,652.000061 
	C37.106701,652.436462 37.046745,652.872925 36.623283,653.793335 
	C36.228741,655.184937 36.197701,656.092529 36.166660,657.000061 
	C36.106701,657.436462 36.046745,657.872925 35.623283,658.793335 
	C35.228737,660.184937 35.197697,661.092529 35.166656,662.000061 
	C35.106701,662.436462 35.046745,662.872925 34.623283,663.793335 
	C34.228741,665.184937 34.197701,666.092529 34.166660,667.000061 
	C34.106693,667.436584 34.046726,667.873108 33.604198,668.821655 
	C32.782845,675.273132 29.725870,678.945557 23.839928,680.168396 
	C23.456739,680.135742 23.073551,680.103088 22.401905,680.136108 
	C21.742302,678.894287 21.046740,677.586914 21.046158,676.279297 
	C20.996296,564.158386 21.000168,452.037506 21.000242,339.916595 
	C21.000244,339.112610 21.000244,338.308624 21.000244,337.011414 
	C45.207844,337.011414 69.136612,337.011414 93.522484,337.450989 
	C93.708611,339.260376 93.437630,340.630249 93.166656,342.000092 
	C93.105904,342.741608 93.045143,343.483154 92.622139,344.750977 
	C92.228821,346.184906 92.197739,347.092468 92.166656,348.000061 
	C92.106712,348.436462 92.046768,348.872864 91.623360,349.793274 
	C91.228821,351.184906 91.197739,352.092468 91.166656,353.000061 
	C91.105896,353.741608 91.045135,354.483124 90.622139,355.750977 
	C90.228821,357.184906 90.197739,358.092468 90.166656,359.000061 
	C90.105896,359.741608 90.045135,360.483124 89.622139,361.750977 
	C89.228821,363.184906 89.197739,364.092468 89.166656,365.000061 
	C89.106712,365.436462 89.046768,365.872864 88.623352,366.793274 
	C88.228813,368.184906 88.197731,369.092468 88.166656,370.000061 
	C88.105896,370.741608 88.045143,371.483124 87.622131,372.750977 
	C87.228813,374.184906 87.197731,375.092468 87.166656,376.000061 
	C87.106720,376.436462 87.046776,376.872864 86.623367,377.793274 
	C86.228821,379.184906 86.197739,380.092468 86.166656,381.000061 
	C86.105896,381.741608 86.045135,382.483124 85.622147,383.750977 
	C85.228821,385.184906 85.197739,386.092468 85.166656,387.000061 
	C85.106712,387.436462 85.046768,387.872864 84.623367,388.793274 
	C84.228821,390.184906 84.197739,391.092468 84.166664,392.000061 
	C84.105904,392.741608 84.045151,393.483124 83.622147,394.750977 
	C83.228813,396.184906 83.197731,397.092468 83.166656,398.000061 
	C83.106720,398.436462 83.046776,398.872864 82.623367,399.793274 
	C82.228813,401.184906 82.197731,402.092468 82.166656,403.000061 
z"/>
<path fill="#05549E" opacity="1.000000" stroke="none" 
	d="
M999.444824,714.909241 
	C998.077515,714.228271 997.249146,713.287598 996.257446,713.060547 
	C985.774719,710.661316 977.056519,705.319458 969.954346,697.341064 
	C968.957764,696.221558 968.090271,694.504639 968.082947,693.059570 
	C967.974182,671.394531 968.018005,649.728760 968.042297,628.063110 
	C968.042847,627.591431 968.236755,627.119934 968.410217,626.331177 
	C972.656067,626.331177 976.912537,626.331177 981.694824,626.331177 
	C982.124878,633.572449 982.232361,640.979126 983.088318,648.298279 
	C984.037903,656.418884 984.962585,664.663452 987.211914,672.475830 
	C989.322327,679.805786 993.909058,685.918213 1001.445740,689.162231 
	C1009.176331,692.489807 1014.075684,690.818604 1018.282715,683.362427 
	C1022.582458,675.741821 1023.978821,667.470398 1025.223633,658.902161 
	C1026.792847,648.102112 1025.893433,637.638794 1021.801941,627.913330 
	C1018.542969,620.166931 1014.013977,612.510315 1008.407104,606.294739 
	C998.655151,595.484070 988.185974,585.440186 981.492981,572.188965 
	C975.662903,560.646606 971.335083,548.702209 970.039612,535.811462 
	C969.149048,526.949585 967.911804,518.025696 968.159302,509.166656 
	C968.651428,491.549835 970.381592,474.018066 977.976685,457.691895 
	C983.768311,445.242218 991.739380,435.071930 1006.190491,432.435242 
	C1017.660583,430.342438 1027.916748,434.405731 1037.935547,439.440125 
	C1044.234375,442.605255 1046.497314,447.098053 1046.211182,454.420654 
	C1045.547485,471.394012 1046.000000,488.411011 1046.000000,505.410309 
	C1046.000000,507.047272 1046.000000,508.684235 1046.000000,510.659180 
	C1041.360840,510.659180 1037.104736,510.659180 1032.346069,510.659180 
	C1031.903564,503.281769 1031.674805,495.727783 1030.934082,488.224365 
	C1030.258911,481.384888 1029.328369,474.536316 1027.896973,467.822479 
	C1027.314209,465.089386 1025.497437,462.354218 1023.573853,460.223206 
	C1018.353638,454.439758 1009.906982,454.318604 1005.651367,461.433441 
	C1000.246094,470.470062 997.087219,480.020477 997.124695,490.381378 
	C997.156860,499.258331 997.344177,508.333771 999.226562,516.935425 
	C1000.495850,522.735229 1004.098328,528.467163 1007.958801,533.158325 
	C1014.539001,541.154602 1022.235413,548.222778 1029.296143,555.835449 
	C1041.352539,568.834106 1048.612183,584.260132 1052.021362,601.587708 
	C1052.571167,604.382324 1053.369141,607.128113 1054.444580,609.940796 
	C1054.884766,623.354004 1054.932617,636.722900 1054.573486,650.741882 
	C1052.771973,657.707947 1051.659302,664.102417 1049.926758,670.324219 
	C1045.704468,685.487305 1040.039673,699.917236 1026.709473,709.711182 
	C1024.012939,711.692383 1020.926758,713.143066 1018.020264,714.838379 
	C1011.982788,714.885864 1005.945374,714.933350 999.444824,714.909241 
z"/>
<path fill="#05549E" opacity="1.000000" stroke="none" 
	d="
M895.444824,714.909180 
	C894.077881,714.228271 893.249878,713.287537 892.258606,713.060730 
	C881.778931,710.663391 873.076050,705.312073 865.950195,697.359375 
	C865.033997,696.336914 864.092407,694.849060 864.085876,693.572144 
	C863.973022,671.276672 864.004456,648.980347 864.004456,626.343262 
	C868.632996,626.343262 872.887817,626.343262 877.693115,626.343262 
	C878.122009,633.537537 878.232605,640.938843 879.087891,648.253113 
	C880.037048,656.370972 880.964233,664.610413 883.202759,672.423950 
	C885.303101,679.755066 889.855530,685.885376 897.387390,689.145874 
	C905.125732,692.495728 910.020874,690.847595 914.245544,683.418091 
	C918.571533,675.810303 920.018066,667.553345 921.183167,658.970276 
	C923.098328,644.861389 920.914978,631.718689 914.020203,619.438843 
	C911.308044,614.608459 908.095642,609.842285 904.225525,605.920776 
	C893.973694,595.532898 883.935974,585.097473 877.283569,571.864868 
	C871.560303,560.480347 867.298462,548.653137 866.047058,535.930969 
	C865.126709,526.574585 863.868408,517.147034 864.172852,507.797119 
	C864.735046,490.528107 866.543640,473.295746 874.071655,457.361938 
	C879.825806,445.182648 887.743347,435.098999 902.050415,432.492432 
	C913.723877,430.365631 924.074463,434.397827 934.184692,439.654968 
	C940.246704,442.807129 942.471497,447.079803 942.219849,454.244873 
	C941.565491,472.870239 942.000000,491.533844 942.000000,510.590546 
	C937.381226,510.590546 933.008118,510.590546 928.162598,510.590546 
	C927.774902,501.364166 927.602966,492.128479 926.930908,482.929321 
	C926.405884,475.743225 925.519714,468.598145 921.158203,462.349915 
	C915.265808,453.908630 906.978821,453.708496 901.329529,462.142639 
	C895.859924,470.308533 893.272644,479.539093 893.158081,489.153320 
	C893.048523,498.350525 893.199707,507.801941 895.226196,516.687805 
	C896.646118,522.913879 900.908997,528.746094 904.830078,534.070984 
	C908.300232,538.783508 913.042358,542.562012 917.239685,546.736023 
	C934.532532,563.932495 946.078491,583.933472 949.161011,608.620178 
	C952.724548,637.158691 950.792603,664.748413 938.023865,691.006653 
	C932.870361,701.604553 925.481934,709.795715 914.178467,714.527710 
	C907.982666,714.885620 901.945312,714.933228 895.444824,714.909180 
z"/>
<path fill="#000000" opacity="1.000000" stroke="none" 
	d="
M1018.483887,714.913330 
	C1020.926758,713.143066 1024.012939,711.692383 1026.709473,709.711182 
	C1040.039673,699.917236 1045.704468,685.487305 1049.926758,670.324219 
	C1051.659302,664.102417 1052.771973,657.707947 1054.502686,651.207214 
	C1054.838867,672.208374 1054.838867,693.394287 1054.838867,714.988403 
	C1042.737427,714.988403 1030.842407,714.988403 1018.483887,714.913330 
z"/>
<path fill="#000000" opacity="1.000000" stroke="none" 
	d="
M784.483887,714.913330 
	C784.197998,714.561768 784.318054,714.115723 784.561707,714.032837 
	C798.178345,709.397400 804.040649,697.731567 810.006531,686.120422 
	C810.857971,684.463318 812.167053,683.041260 813.985535,680.504150 
	C817.726379,694.450623 820.743835,706.981140 832.959229,714.485596 
	C816.972168,714.887573 800.959839,714.937988 784.483887,714.913330 
z"/>
<path fill="#32B8EE" opacity="1.000000" stroke="none" 
	d="
M93.495804,341.959167 
	C93.437630,340.630249 93.708611,339.260376 93.985245,337.525848 
	C95.061554,337.118744 96.132217,337.076355 97.601013,337.100159 
	C96.607765,338.750366 95.216362,340.334320 93.495804,341.959167 
z"/>
<path fill="#32B8EE" opacity="1.000000" stroke="none" 
	d="
M104.906372,337.784515 
	C104.577232,337.891357 104.367889,337.735840 104.114128,337.341858 
	C104.187126,337.130920 104.351311,337.095551 104.762009,337.110840 
	C105.008537,337.161469 104.979401,337.585144 104.906372,337.784515 
z"/>
<path fill="#32B8EE" opacity="1.000000" stroke="none" 
	d="
M21.113491,704.267700 
	C21.423416,704.111023 21.633493,704.265137 21.888542,704.658325 
	C21.980518,704.833374 21.583313,704.979492 21.372402,704.994019 
	C21.127874,704.843811 21.094259,704.679016 21.113491,704.267700 
z"/>
<path fill="#05549E" opacity="1.000000" stroke="none" 
	d="
M673.000000,593.000000 
	C673.000000,616.324829 672.950073,639.149902 673.047668,661.974365 
	C673.064514,665.913879 673.402344,669.908386 674.133545,673.775146 
	C675.196655,679.396729 679.827820,681.402283 684.634827,682.967773 
	C686.317505,683.515747 688.046448,683.921753 689.736694,684.387817 
	C689.736694,692.261292 689.736694,699.858032 689.736694,707.725525 
	C669.225647,707.725525 648.976196,707.725525 628.028442,707.725525 
	C628.028442,700.409912 627.895142,693.143677 628.182373,685.894165 
	C628.222290,684.887878 630.196655,683.446838 631.515686,683.086670 
	C639.467896,680.915344 641.991760,675.502930 642.015564,668.466309 
	C642.325439,577.057129 642.685059,485.648041 642.952759,394.238678 
	C642.968201,388.965729 642.559753,383.657501 641.886963,378.425049 
	C641.011597,371.616974 638.053833,369.189453 628.273682,366.287994 
	C628.273682,358.709564 628.273682,351.116302 628.273682,343.224457 
	C629.817261,343.140533 631.107056,343.043427 632.398499,343.004181 
	C654.441345,342.333923 676.483521,341.234314 698.527954,341.183807 
	C710.170471,341.157135 719.823364,346.576691 725.924133,356.913727 
	C732.777466,368.525879 736.044922,381.289001 738.121094,394.571106 
	C741.235962,414.497803 741.654602,434.538910 740.834717,454.541138 
	C739.789490,480.041107 737.430298,505.527710 725.929382,528.949829 
	C718.886719,543.292419 708.348206,554.119995 691.974182,557.421875 
	C686.026428,558.621277 679.866882,558.770752 673.000000,559.482605 
	C673.000000,570.327942 673.000000,581.414001 673.000000,593.000000 
M708.978638,417.837830 
	C708.652161,415.729767 708.276489,413.627960 708.007690,411.512573 
	C706.616272,400.565460 704.687256,389.766083 699.418030,379.875519 
	C693.990784,369.688263 684.567444,365.703430 673.154907,368.834259 
	C673.104553,369.947815 673.007080,371.100800 673.006897,372.253784 
	C672.999268,424.392120 673.000000,476.530487 673.001099,528.668823 
	C673.001160,529.501526 672.686035,530.598083 673.095154,531.112549 
	C673.977539,532.222046 675.331482,533.911377 676.322876,533.803589 
	C679.535461,533.454163 682.816895,532.760071 685.809387,531.549744 
	C694.423096,528.065918 697.934692,520.257507 700.977112,512.350098 
	C708.565308,492.627502 708.887085,471.754303 709.852966,451.081573 
	C710.354370,440.349792 709.331177,429.546753 708.978638,417.837830 
z"/>
<path fill="#32B8EE" opacity="1.000000" stroke="none" 
	d="
M308.272095,644.557861 
	C308.041840,591.318237 308.048676,538.503174 307.955750,485.688385 
	C307.946808,480.594910 307.569305,475.470245 306.917511,470.417542 
	C306.017578,463.441437 302.000885,460.164703 293.222321,458.690399 
	C293.222321,450.960236 293.222321,443.202423 293.222321,435.222839 
	C308.048889,435.222839 322.656067,435.222839 338.000000,435.222839 
	C338.000000,437.058411 338.000000,438.973816 338.000000,440.889221 
	C338.000000,506.700348 337.912872,572.511780 338.131592,638.322144 
	C338.154083,645.080444 339.275055,652.063660 341.308563,658.492615 
	C342.363922,661.829041 346.193237,665.828918 349.397614,666.491760 
	C352.336517,667.099548 357.461945,664.532227 359.303619,661.799866 
	C368.489655,648.171753 375.096527,633.470581 375.036407,616.460571 
	C374.914490,581.972656 375.084839,547.483704 374.954071,512.995850 
	C374.908203,500.903473 374.477112,488.806946 373.958466,476.723602 
	C373.434326,464.512878 370.455383,461.001587 359.153656,458.417969 
	C359.153656,450.822235 359.153656,443.202393 359.153656,435.291504 
	C374.029266,435.291504 388.753998,435.291504 404.000000,435.291504 
	C404.000000,437.305847 404.000000,439.250336 404.000000,441.194824 
	C404.000000,511.837646 403.977722,582.480469 404.043915,653.123230 
	C404.049011,658.549683 404.330048,664.025452 405.098846,669.390015 
	C406.241669,677.364319 409.287292,681.181641 419.746887,682.189575 
	C419.746887,689.921021 419.746887,697.680603 419.746887,705.721191 
	C404.944824,705.721191 390.220276,705.721191 374.857849,705.721191 
	C374.857849,691.472412 374.857849,677.327087 374.857849,663.181763 
	C374.528900,663.147400 374.199951,663.112976 373.871002,663.078613 
	C371.572968,669.985657 369.761505,677.105652 366.855469,683.746643 
	C363.107300,692.312012 359.505188,701.070496 351.603729,707.121521 
	C339.746216,716.202026 327.530914,711.392639 320.966339,699.754639 
	C315.380951,689.852539 312.598175,679.044128 311.042511,667.905579 
	C309.979401,660.293823 309.320862,652.625488 308.272095,644.557861 
z"/>
<path fill="#32B8EE" opacity="1.000000" stroke="none" 
	d="
M613.833618,660.000916 
	C613.888977,671.326538 613.992249,682.652405 613.935730,693.977478 
	C613.929077,695.305847 613.434875,697.088867 612.503357,697.885132 
	C602.921631,706.076355 592.166626,712.222107 579.355469,712.882019 
	C564.283264,713.658386 553.291992,706.131470 544.990356,694.029602 
	C534.222900,678.333191 528.992432,660.552185 524.961914,642.236084 
	C517.573853,608.661377 518.219543,574.568481 519.280151,540.618713 
	C520.098816,514.413208 524.195068,488.376556 534.189392,463.822632 
	C538.109985,454.190552 542.924316,444.787628 550.913757,437.567841 
	C562.651428,426.960846 579.557983,427.445160 590.313599,439.581116 
	C600.132874,450.660583 603.979736,464.226105 606.841187,478.051422 
	C609.281189,489.839722 611.057739,501.867401 611.841736,513.873169 
	C613.113586,533.349792 613.337891,552.894897 613.981628,572.411865 
	C614.007996,573.211670 613.802246,574.019165 613.745667,574.484680 
	C592.163025,574.484680 570.805664,574.484680 548.242676,574.484680 
	C549.141174,587.297180 550.219849,600.067505 550.883728,612.859314 
	C551.590393,626.473999 554.180115,639.669861 559.041199,652.370483 
	C562.484436,661.366943 567.279358,669.697510 576.563538,673.707703 
	C588.055786,678.671753 597.206299,673.130188 605.613464,665.841553 
	C607.619202,664.102661 609.393127,662.096436 611.904541,660.100403 
	C612.968079,659.992065 613.400879,659.996460 613.833618,660.000916 
M583.992432,489.801849 
	C583.661621,487.545441 583.308411,485.292023 583.003967,483.032074 
	C581.856812,474.515015 581.013611,465.905884 575.996460,458.504333 
	C571.634644,452.069489 565.918823,452.463257 561.761353,458.650208 
	C554.291687,469.766205 553.717773,482.770508 552.061890,495.425781 
	C551.337708,500.960663 551.050232,506.580902 550.981079,512.167542 
	C550.826233,524.671692 550.932617,537.179138 550.932617,550.345520 
	C562.237854,550.345520 573.906372,550.345520 586.249329,550.345520 
	C585.843506,546.962585 585.143066,543.456787 585.048218,539.934692 
	C584.606812,523.539124 584.333008,507.139069 583.992432,489.801849 
z"/>
<path fill="#32B8EE" opacity="1.000000" stroke="none" 
	d="
M230.036926,644.074463 
	C226.957367,655.387573 223.914261,666.284241 220.642365,678.000000 
	C225.676392,678.000000 230.231064,678.000000 234.785751,678.000000 
	C241.450378,678.000000 248.117645,677.880188 254.779053,678.026672 
	C266.189117,678.277466 268.276276,674.560852 268.910034,663.609985 
	C269.370392,655.655090 269.000000,647.652222 269.000000,639.335999 
	C273.937500,639.335999 278.663513,639.335999 283.699646,639.335999 
	C283.699646,661.009033 283.699646,682.732910 283.699646,704.729065 
	C251.931381,704.729065 220.210312,704.729065 188.350906,704.729065 
	C187.124496,687.965942 188.457092,671.809082 193.478912,655.624023 
	C201.387085,630.136475 207.880325,604.210876 215.023285,578.484741 
	C221.041168,556.810852 227.094864,535.146790 233.201080,513.497620 
	C237.988007,496.525940 242.933319,479.598785 247.670532,462.613434 
	C248.445572,459.834503 247.390488,457.935913 243.953461,457.968445 
	C234.290619,458.059967 224.625015,457.903839 214.963089,458.035248 
	C208.840012,458.118500 206.284515,461.920593 205.981430,470.435608 
	C205.635574,480.152435 205.146500,489.864136 204.710632,499.783478 
	C200.274353,499.783478 195.995728,499.783478 191.357666,499.783478 
	C191.357666,478.110352 191.357666,456.385040 191.357666,434.328979 
	C221.284866,434.328979 251.340073,434.328979 281.792023,434.328979 
	C282.169556,446.397552 282.156738,458.249756 278.579773,470.229187 
	C270.526154,497.201447 263.483765,524.474915 255.968643,551.608887 
	C250.007645,573.131470 243.971970,594.633423 237.936813,616.135376 
	C235.358429,625.321594 232.697037,634.484497 230.036926,644.074463 
z"/>
<path fill="#32B8EE" opacity="1.000000" stroke="none" 
	d="
M494.000427,506.756775 
	C493.667572,498.868256 493.522278,491.442047 492.919281,484.053253 
	C492.640686,480.639465 490.457886,479.703522 487.030304,480.898010 
	C480.056335,483.328369 477.563507,489.387421 475.070557,495.319153 
	C471.024170,504.946960 469.780731,514.990540 469.860992,525.516785 
	C470.192627,569.004700 469.964813,612.496582 470.044586,655.986877 
	C470.054535,661.410522 470.459534,666.857300 471.068085,672.249695 
	C471.710663,677.943970 476.437927,679.985107 480.917389,681.868530 
	C482.966766,682.730164 485.345123,682.809143 487.786407,683.284424 
	C487.786407,691.008118 487.786407,698.766541 487.786407,706.762573 
	C466.979736,706.762573 446.372284,706.762573 425.016602,706.762573 
	C425.016602,699.483887 424.917114,692.065918 425.144196,684.657959 
	C425.172150,683.745972 426.840637,682.286560 427.923798,682.100830 
	C435.404999,680.817932 438.992615,675.182800 439.027527,667.759583 
	C439.311920,607.344604 439.693329,546.930115 439.951813,486.515076 
	C439.973602,481.423187 439.599579,476.289124 438.902802,471.244598 
	C437.960205,464.420807 434.119171,461.345673 425.157959,459.526520 
	C425.157959,451.930573 425.157959,444.301636 425.157959,436.335938 
	C439.939240,436.335938 454.665955,436.335938 469.741486,436.335938 
	C469.741486,448.204285 469.741486,460.134277 469.741486,472.064301 
	C470.098877,472.255035 470.456299,472.445801 470.813690,472.636536 
	C471.542938,471.714050 472.630280,470.899597 472.946320,469.852417 
	C476.241333,458.934784 480.343445,448.424988 486.965454,438.999786 
	C491.626648,432.365479 499.638611,428.643646 505.703888,431.046783 
	C507.082581,431.593048 508.852753,433.511475 508.861237,434.808655 
	C509.042938,462.626740 508.999207,490.446259 508.999207,518.632629 
	C504.460663,518.632629 500.067963,518.632629 495.466492,518.632629 
	C494.991852,514.941406 494.496338,511.087921 494.000427,506.756775 
z"/>
<path fill="#32B8EE" opacity="1.000000" stroke="none" 
	d="
M128.606781,678.057922 
	C128.574356,682.171753 126.962410,682.984924 121.075172,681.502319 
	C123.425980,680.180542 125.849770,679.194458 128.606781,678.057922 
z"/>
<path fill="#32B8EE" opacity="1.000000" stroke="none" 
	d="
M59.895222,682.608032 
	C56.597507,681.875793 53.361675,680.751160 50.083691,679.255493 
	C53.346729,679.994873 56.651917,681.105286 59.895222,682.608032 
z"/>
<path fill="#32B8EE" opacity="1.000000" stroke="none" 
	d="
M178.788422,682.637085 
	C176.589340,682.217651 174.345306,681.434387 172.071472,680.267944 
	C174.275620,680.680908 176.509537,681.477051 178.788422,682.637085 
z"/>
<path fill="#32B8EE" opacity="1.000000" stroke="none" 
	d="
M131.594025,675.072021 
	C132.418365,675.525879 132.955246,676.090637 133.492126,676.655396 
	C132.220032,677.094910 130.947937,677.534363 129.291443,677.956970 
	C129.706909,677.021057 130.506744,676.101990 131.594025,675.072021 
z"/>
<path fill="#32B8EE" opacity="1.000000" stroke="none" 
	d="
M127.095749,633.331177 
	C127.647690,633.319458 128.128723,633.638306 128.609741,633.957153 
	C128.315750,634.275269 128.021774,634.593445 127.447235,634.955444 
	C127.119377,634.553406 127.072105,634.107605 127.095749,633.331177 
z"/>
<path fill="#32B8EE" opacity="1.000000" stroke="none" 
	d="
M132.095718,664.331177 
	C132.647644,664.319458 133.128662,664.638306 133.609680,664.957092 
	C133.315735,665.275269 133.021790,665.593445 132.447235,665.955383 
	C132.119370,665.553406 132.072083,665.107605 132.095718,664.331177 
z"/>
<path fill="#32B8EE" opacity="1.000000" stroke="none" 
	d="
M130.095734,651.331177 
	C130.647659,651.319397 131.128677,651.638245 131.609711,651.957092 
	C131.315750,652.275269 131.021805,652.593445 130.447266,652.955383 
	C130.119370,652.553406 130.072098,652.107605 130.095734,651.331177 
z"/>
<path fill="#32B8EE" opacity="1.000000" stroke="none" 
	d="
M120.094742,595.264771 
	C120.382812,595.665833 120.598976,596.331055 120.491577,597.073853 
	C120.119621,596.610535 120.071228,596.069763 120.094742,595.264771 
z"/>
<path fill="#32B8EE" opacity="1.000000" stroke="none" 
	d="
M121.095741,600.331177 
	C121.647675,600.319397 122.128685,600.638245 122.609673,600.957092 
	C122.315712,601.275269 122.021759,601.593445 121.447227,601.955444 
	C121.119377,601.553406 121.072098,601.107605 121.095741,600.331177 
z"/>
<path fill="#32B8EE" opacity="1.000000" stroke="none" 
	d="
M122.094742,606.264771 
	C122.382812,606.665833 122.598969,607.331055 122.491577,608.073853 
	C122.119629,607.610535 122.071228,607.069763 122.094742,606.264771 
z"/>
<path fill="#32B8EE" opacity="1.000000" stroke="none" 
	d="
M123.095734,611.331177 
	C123.647659,611.319458 124.128662,611.638306 124.609680,611.957092 
	C124.315735,612.275269 124.021782,612.593445 123.447250,612.955444 
	C123.119377,612.553406 123.072105,612.107605 123.095734,611.331177 
z"/>
<path fill="#32B8EE" opacity="1.000000" stroke="none" 
	d="
M124.094749,617.264771 
	C124.382820,617.665833 124.598984,618.331055 124.491577,619.073853 
	C124.119621,618.610535 124.071228,618.069763 124.094749,617.264771 
z"/>
<path fill="#32B8EE" opacity="1.000000" stroke="none" 
	d="
M125.095734,622.331177 
	C125.647652,622.319458 126.128662,622.638306 126.609695,622.957092 
	C126.315758,623.275269 126.021805,623.593445 125.447258,623.955444 
	C125.119377,623.553406 125.072105,623.107605 125.095734,622.331177 
z"/>
<path fill="#32B8EE" opacity="1.000000" stroke="none" 
	d="
M126.094757,628.264771 
	C126.382828,628.665833 126.598999,629.331116 126.491608,630.073853 
	C126.119637,629.610596 126.071243,629.069763 126.094757,628.264771 
z"/>
<path fill="#32B8EE" opacity="1.000000" stroke="none" 
	d="
M128.095718,639.331177 
	C128.647644,639.319458 129.128662,639.638306 129.609680,639.957092 
	C129.315750,640.275269 129.021805,640.593445 128.447235,640.955383 
	C128.119354,640.553406 128.072083,640.107605 128.095718,639.331177 
z"/>
<path fill="#32B8EE" opacity="1.000000" stroke="none" 
	d="
M129.095718,645.331177 
	C129.647644,645.319458 130.128662,645.638306 130.609680,645.957092 
	C130.315735,646.275269 130.021774,646.593384 129.447235,646.955383 
	C129.119370,646.553406 129.072083,646.107605 129.095718,645.331177 
z"/>
<path fill="#32B8EE" opacity="1.000000" stroke="none" 
	d="
M131.095734,657.331177 
	C131.647659,657.319397 132.128677,657.638245 132.609680,657.957092 
	C132.315735,658.275269 132.021790,658.593384 131.447235,658.955383 
	C131.119354,658.553406 131.072083,658.107605 131.095734,657.331177 
z"/>
<path fill="#32B8EE" opacity="1.000000" stroke="none" 
	d="
M613.827271,659.689819 
	C613.400879,659.996460 612.968079,659.992065 612.210815,659.972534 
	C612.531189,659.764587 613.176086,659.571655 613.827271,659.689819 
z"/>
<path fill="#32B8EE" opacity="1.000000" stroke="none" 
	d="
M118.726425,681.132690 
	C118.892731,681.424072 118.737503,681.634521 118.342545,681.889648 
	C118.267342,681.687195 118.368042,681.393005 118.726425,681.132690 
z"/>
<path fill="#32B8EE" opacity="1.000000" stroke="none" 
	d="
M59.273590,704.867310 
	C59.107281,704.575928 59.262501,704.365479 59.657455,704.110352 
	C59.732655,704.312805 59.631962,704.606995 59.273590,704.867310 
z"/>
<path fill="#32B8EE" opacity="1.000000" stroke="none" 
	d="
M118.132713,704.273376 
	C118.424103,704.107239 118.634499,704.262512 118.889549,704.657471 
	C118.687080,704.732605 118.392921,704.631836 118.132713,704.273376 
z"/>
<path fill="#32B8EE" opacity="1.000000" stroke="none" 
	d="
M178.273712,704.867310 
	C178.107300,704.575867 178.262466,704.365417 178.657471,704.110352 
	C178.732697,704.312744 178.632034,704.606934 178.273712,704.867310 
z"/>
<path fill="#000000" opacity="1.000000" stroke="none" 
	d="
M101.985580,569.000000 
	C89.378120,569.000000 77.268509,569.000000 65.031631,569.000000 
	C73.046494,524.278809 80.961884,480.112640 88.877274,435.946503 
	C89.404839,435.986084 89.932411,436.025635 90.459976,436.065216 
	C98.580963,480.197205 106.701950,524.329163 114.922096,569.000000 
	C110.696533,569.000000 106.589981,569.000000 101.985580,569.000000 
z"/>
<path fill="#32B8EE" opacity="1.000000" stroke="none" 
	d="
M23.986359,680.558472 
	C29.725870,678.945557 32.782845,675.273132 33.549854,669.148804 
	C38.285973,669.840088 34.580227,672.637939 34.480045,673.807678 
	C33.953339,679.957520 29.269171,682.852356 23.986359,680.558472 
z"/>
<path fill="#32B8EE" opacity="1.000000" stroke="none" 
	d="
M51.489796,574.958008 
	C51.197701,574.092529 51.228741,573.184937 51.569099,572.120605 
	C52.460720,572.342346 53.043022,572.720886 53.625320,573.099487 
	C53.021191,573.704956 52.417061,574.310486 51.489796,574.958008 
z"/>
<path fill="#32B8EE" opacity="1.000000" stroke="none" 
	d="
M47.489807,596.958008 
	C47.197704,596.092529 47.228745,595.184937 47.569103,594.120605 
	C48.460720,594.342346 49.043018,594.720886 49.625328,595.099487 
	C49.021206,595.705017 48.417076,596.310486 47.489807,596.958008 
z"/>
<path fill="#32B8EE" opacity="1.000000" stroke="none" 
	d="
M48.489799,591.958008 
	C48.197697,591.092529 48.228737,590.184937 48.569107,589.120605 
	C49.460732,589.342346 50.043030,589.720886 50.625328,590.099487 
	C50.021198,590.704956 49.417068,591.310486 48.489799,591.958008 
z"/>
<path fill="#32B8EE" opacity="1.000000" stroke="none" 
	d="
M49.489799,585.958008 
	C49.197701,585.092529 49.228741,584.184937 49.569099,583.120605 
	C50.460720,583.342346 51.043022,583.720886 51.625324,584.099487 
	C51.021198,584.704956 50.417068,585.310486 49.489799,585.958008 
z"/>
<path fill="#32B8EE" opacity="1.000000" stroke="none" 
	d="
M50.489799,579.958008 
	C50.197697,579.092529 50.228737,578.184937 50.569099,577.120605 
	C51.460728,577.342346 52.043026,577.720886 52.625328,578.099487 
	C52.021198,578.704956 51.417068,579.310486 50.489799,579.958008 
z"/>
<path fill="#32B8EE" opacity="1.000000" stroke="none" 
	d="
M43.489799,618.958008 
	C43.197701,618.092529 43.228741,617.184937 43.569099,616.120605 
	C44.460720,616.342346 45.043018,616.720886 45.625324,617.099487 
	C45.021198,617.704956 44.417068,618.310486 43.489799,618.958008 
z"/>
<path fill="#32B8EE" opacity="1.000000" stroke="none" 
	d="
M52.489799,568.958008 
	C52.197704,568.092529 52.228745,567.184937 52.569107,566.120605 
	C53.460728,566.342346 54.043026,566.720886 54.625324,567.099487 
	C54.021191,567.704956 53.417061,568.310486 52.489799,568.958008 
z"/>
<path fill="#32B8EE" opacity="1.000000" stroke="none" 
	d="
M53.489799,563.958008 
	C53.197697,563.092529 53.228737,562.184937 53.569099,561.120605 
	C54.460720,561.342346 55.043022,561.720886 55.625328,562.099487 
	C55.021206,562.705017 54.417076,563.310486 53.489799,563.958008 
z"/>
<path fill="#32B8EE" opacity="1.000000" stroke="none" 
	d="
M54.489792,557.958008 
	C54.197701,557.092529 54.228741,556.184937 54.569107,555.120605 
	C55.460728,555.342346 56.043026,555.720886 56.625320,556.099487 
	C56.021183,556.704956 55.417053,557.310486 54.489792,557.958008 
z"/>
<path fill="#32B8EE" opacity="1.000000" stroke="none" 
	d="
M56.489799,546.958008 
	C56.197701,546.092529 56.228741,545.184937 56.569107,544.120605 
	C57.460728,544.342346 58.043026,544.720886 58.625328,545.099487 
	C58.021198,545.704956 57.417068,546.310486 56.489799,546.958008 
z"/>
<path fill="#32B8EE" opacity="1.000000" stroke="none" 
	d="
M57.489796,541.958008 
	C57.197701,541.092529 57.228741,540.184937 57.569099,539.120605 
	C58.460720,539.342346 59.043022,539.720886 59.625320,540.099487 
	C59.021191,540.704956 58.417061,541.310486 57.489796,541.958008 
z"/>
<path fill="#32B8EE" opacity="1.000000" stroke="none" 
	d="
M46.489792,602.958008 
	C46.197701,602.092529 46.228741,601.184937 46.569107,600.120605 
	C47.460732,600.342346 48.043030,600.720886 48.625320,601.099487 
	C48.021183,601.704956 47.417053,602.310425 46.489792,602.958008 
z"/>
<path fill="#32B8EE" opacity="1.000000" stroke="none" 
	d="
M45.489796,607.958008 
	C45.197701,607.092529 45.228741,606.184937 45.569099,605.120605 
	C46.460720,605.342346 47.043018,605.720886 47.625320,606.099487 
	C47.021191,606.704956 46.417061,607.310486 45.489796,607.958008 
z"/>
<path fill="#32B8EE" opacity="1.000000" stroke="none" 
	d="
M44.489799,613.958008 
	C44.197704,613.092529 44.228745,612.184937 44.569107,611.120605 
	C45.460732,611.342346 46.043030,611.720886 46.625324,612.099487 
	C46.021191,612.704956 45.417061,613.310486 44.489799,613.958008 
z"/>
<path fill="#32B8EE" opacity="1.000000" stroke="none" 
	d="
M42.489799,624.958008 
	C42.197701,624.092529 42.228741,623.184937 42.569099,622.120605 
	C43.460712,622.342346 44.043015,622.720947 44.625320,623.099487 
	C44.021198,623.704956 43.417068,624.310486 42.489799,624.958008 
z"/>
<path fill="#32B8EE" opacity="1.000000" stroke="none" 
	d="
M41.489807,629.958008 
	C41.197704,629.092529 41.228745,628.184937 41.569111,627.120605 
	C42.460735,627.342285 43.043037,627.720886 43.625336,628.099487 
	C43.021206,628.705017 42.417076,629.310486 41.489807,629.958008 
z"/>
<path fill="#32B8EE" opacity="1.000000" stroke="none" 
	d="
M55.489799,552.958008 
	C55.197704,552.092529 55.228745,551.184937 55.569103,550.120605 
	C56.460720,550.342346 57.043022,550.720886 57.625324,551.099487 
	C57.021198,551.704956 56.417068,552.310486 55.489799,552.958008 
z"/>
<path fill="#32B8EE" opacity="1.000000" stroke="none" 
	d="
M40.489792,635.958008 
	C40.197701,635.092529 40.228741,634.184937 40.569107,633.120605 
	C41.460732,633.342346 42.043030,633.720886 42.625320,634.099487 
	C42.021183,634.704956 41.417053,635.310425 40.489792,635.958008 
z"/>
<path fill="#32B8EE" opacity="1.000000" stroke="none" 
	d="
M39.489796,640.958008 
	C39.197701,640.092529 39.228741,639.184937 39.569099,638.120605 
	C40.460720,638.342346 41.043018,638.720886 41.625320,639.099487 
	C41.021191,639.704956 40.417061,640.310486 39.489796,640.958008 
z"/>
<path fill="#32B8EE" opacity="1.000000" stroke="none" 
	d="
M38.489796,646.958008 
	C38.197701,646.092529 38.228741,645.184937 38.569092,644.120605 
	C39.460697,644.342346 40.042995,644.720947 40.625309,645.099487 
	C40.021191,645.704956 39.417061,646.310486 38.489796,646.958008 
z"/>
<path fill="#32B8EE" opacity="1.000000" stroke="none" 
	d="
M37.489799,651.958008 
	C37.197701,651.092529 37.228741,650.184937 37.569107,649.120605 
	C38.460735,649.342285 39.043034,649.720886 39.625332,650.099487 
	C39.021198,650.704956 38.417068,651.310486 37.489799,651.958008 
z"/>
<path fill="#32B8EE" opacity="1.000000" stroke="none" 
	d="
M36.489792,656.958008 
	C36.197701,656.092529 36.228741,655.184937 36.569096,654.120605 
	C37.460709,654.342346 38.043007,654.720947 38.625313,655.099487 
	C38.021183,655.704956 37.417053,656.310486 36.489792,656.958008 
z"/>
<path fill="#32B8EE" opacity="1.000000" stroke="none" 
	d="
M35.489796,661.958008 
	C35.197697,661.092529 35.228737,660.184937 35.569096,659.120605 
	C36.460716,659.342346 37.043015,659.720947 37.625320,660.099487 
	C37.021194,660.704956 36.417065,661.310486 35.489796,661.958008 
z"/>
<path fill="#32B8EE" opacity="1.000000" stroke="none" 
	d="
M34.489792,666.958008 
	C34.197701,666.092529 34.228741,665.184937 34.569099,664.120605 
	C35.460720,664.342346 36.043018,664.720886 36.625313,665.099487 
	C36.021179,665.704956 35.417049,666.310425 34.489792,666.958008 
z"/>
<path fill="#32B8EE" opacity="1.000000" stroke="none" 
	d="
M78.489807,424.958038 
	C78.197731,424.092468 78.228813,423.184906 78.569252,422.120453 
	C79.460869,422.342255 80.043137,422.720917 80.625381,423.099579 
	C80.021233,423.705048 79.417091,424.310516 78.489807,424.958038 
z"/>
<path fill="#32B8EE" opacity="1.000000" stroke="none" 
	d="
M89.489822,364.958069 
	C89.197739,364.092468 89.228821,363.184906 89.569252,362.120453 
	C90.460869,362.342255 91.043137,362.720917 91.625397,363.099609 
	C91.021263,363.705078 90.417122,364.310547 89.489822,364.958069 
z"/>
<path fill="#32B8EE" opacity="1.000000" stroke="none" 
	d="
M74.489799,447.958038 
	C74.197731,447.092468 74.228806,446.184906 74.569244,445.120453 
	C75.460869,445.342255 76.043137,445.720917 76.625381,446.099579 
	C76.021233,446.705048 75.417091,447.310516 74.489799,447.958038 
z"/>
<path fill="#32B8EE" opacity="1.000000" stroke="none" 
	d="
M88.489807,369.958038 
	C88.197731,369.092468 88.228813,368.184906 88.569244,367.120453 
	C89.460869,367.342255 90.043137,367.720917 90.625389,368.099579 
	C90.021240,368.705048 89.417099,369.310516 88.489807,369.958038 
z"/>
<path fill="#32B8EE" opacity="1.000000" stroke="none" 
	d="
M75.489807,441.958038 
	C75.197746,441.092468 75.228821,440.184906 75.569252,439.120453 
	C76.460861,439.342255 77.043129,439.720917 77.625381,440.099579 
	C77.021233,440.705048 76.417091,441.310516 75.489807,441.958038 
z"/>
<path fill="#32B8EE" opacity="1.000000" stroke="none" 
	d="
M87.489807,375.958038 
	C87.197731,375.092468 87.228813,374.184906 87.569252,373.120422 
	C88.460876,373.342224 89.043144,373.720886 89.625397,374.099548 
	C89.021240,374.705048 88.417099,375.310516 87.489807,375.958038 
z"/>
<path fill="#32B8EE" opacity="1.000000" stroke="none" 
	d="
M76.489807,436.958038 
	C76.197739,436.092468 76.228813,435.184906 76.569252,434.120453 
	C77.460869,434.342255 78.043137,434.720917 78.625389,435.099579 
	C78.021240,435.705048 77.417099,436.310516 76.489807,436.958038 
z"/>
<path fill="#32B8EE" opacity="1.000000" stroke="none" 
	d="
M77.489807,430.958038 
	C77.197739,430.092468 77.228813,429.184906 77.569244,428.120453 
	C78.460861,428.342255 79.043129,428.720917 79.625381,429.099579 
	C79.021233,429.705048 78.417091,430.310516 77.489807,430.958038 
z"/>
<path fill="#32B8EE" opacity="1.000000" stroke="none" 
	d="
M58.489799,535.958008 
	C58.197704,535.092529 58.228745,534.184937 58.569099,533.120605 
	C59.460712,533.342346 60.043011,533.720947 60.625313,534.099487 
	C60.021191,534.704956 59.417061,535.310486 58.489799,535.958008 
z"/>
<path fill="#32B8EE" opacity="1.000000" stroke="none" 
	d="
M73.489815,452.958038 
	C73.197739,452.092468 73.228813,451.184906 73.569244,450.120453 
	C74.460861,450.342255 75.043129,450.720917 75.625397,451.099579 
	C75.021255,451.705078 74.417114,452.310547 73.489815,452.958038 
z"/>
<path fill="#32B8EE" opacity="1.000000" stroke="none" 
	d="
M86.489807,380.958038 
	C86.197739,380.092468 86.228821,379.184906 86.569252,378.120453 
	C87.460869,378.342255 88.043137,378.720917 88.625389,379.099579 
	C88.021240,379.705048 87.417099,380.310516 86.489807,380.958038 
z"/>
<path fill="#32B8EE" opacity="1.000000" stroke="none" 
	d="
M79.489807,419.958038 
	C79.197731,419.092468 79.228813,418.184906 79.569244,417.120453 
	C80.460861,417.342255 81.043129,417.720917 81.625381,418.099579 
	C81.021240,418.705048 80.417099,419.310516 79.489807,419.958038 
z"/>
<path fill="#32B8EE" opacity="1.000000" stroke="none" 
	d="
M80.489822,413.958038 
	C80.197739,413.092468 80.228821,412.184906 80.569260,411.120453 
	C81.460869,411.342255 82.043137,411.720917 82.625397,412.099579 
	C82.021255,412.705078 81.417114,413.310547 80.489822,413.958038 
z"/>
<path fill="#32B8EE" opacity="1.000000" stroke="none" 
	d="
M85.489807,386.958038 
	C85.197739,386.092468 85.228821,385.184906 85.569252,384.120453 
	C86.460861,384.342255 87.043129,384.720917 87.625381,385.099579 
	C87.021240,385.705048 86.417099,386.310516 85.489807,386.958038 
z"/>
<path fill="#32B8EE" opacity="1.000000" stroke="none" 
	d="
M81.489822,408.958038 
	C81.197731,408.092468 81.228813,407.184906 81.569244,406.120453 
	C82.460861,406.342255 83.043129,406.720917 83.625397,407.099579 
	C83.021263,407.705078 82.417122,408.310547 81.489822,408.958038 
z"/>
<path fill="#32B8EE" opacity="1.000000" stroke="none" 
	d="
M84.489822,391.958038 
	C84.197739,391.092468 84.228821,390.184906 84.569260,389.120453 
	C85.460869,389.342255 86.043137,389.720917 86.625397,390.099579 
	C86.021255,390.705078 85.417114,391.310547 84.489822,391.958038 
z"/>
<path fill="#32B8EE" opacity="1.000000" stroke="none" 
	d="
M82.489815,402.958038 
	C82.197731,402.092468 82.228813,401.184906 82.569252,400.120453 
	C83.460869,400.342255 84.043137,400.720917 84.625397,401.099579 
	C84.021255,401.705078 83.417114,402.310547 82.489815,402.958038 
z"/>
<path fill="#32B8EE" opacity="1.000000" stroke="none" 
	d="
M83.489822,397.958038 
	C83.197731,397.092468 83.228813,396.184906 83.569244,395.120453 
	C84.460861,395.342255 85.043129,395.720917 85.625397,396.099579 
	C85.021263,396.705078 84.417122,397.310547 83.489822,397.958038 
z"/>
<path fill="#32B8EE" opacity="1.000000" stroke="none" 
	d="
M68.489815,480.958038 
	C68.197739,480.092468 68.228821,479.184906 68.569252,478.120453 
	C69.460869,478.342255 70.043137,478.720917 70.625397,479.099579 
	C70.021255,479.705078 69.417114,480.310547 68.489815,480.958038 
z"/>
<path fill="#32B8EE" opacity="1.000000" stroke="none" 
	d="
M59.489799,530.958008 
	C59.197697,530.092529 59.228737,529.184937 59.569099,528.120605 
	C60.460724,528.342346 61.043022,528.720886 61.625328,529.099487 
	C61.021206,529.705017 60.417076,530.310486 59.489799,530.958008 
z"/>
<path fill="#32B8EE" opacity="1.000000" stroke="none" 
	d="
M60.489792,524.958008 
	C60.197701,524.092529 60.228741,523.184937 60.569096,522.120605 
	C61.460712,522.342346 62.043011,522.720947 62.625313,523.099487 
	C62.021183,523.704956 61.417053,524.310486 60.489792,524.958008 
z"/>
<path fill="#32B8EE" opacity="1.000000" stroke="none" 
	d="
M61.489796,519.958008 
	C61.197704,519.092529 61.228745,518.184937 61.569107,517.120605 
	C62.460739,517.342346 63.043049,517.720886 63.625351,518.099487 
	C63.021210,518.704956 62.417068,519.310486 61.489796,519.958008 
z"/>
<path fill="#32B8EE" opacity="1.000000" stroke="none" 
	d="
M62.489807,513.958008 
	C62.197727,513.092468 62.228794,512.184937 62.569221,511.120483 
	C63.460857,511.342255 64.043144,511.720917 64.625427,512.099609 
	C64.021271,512.705078 63.417110,513.310547 62.489807,513.958008 
z"/>
<path fill="#32B8EE" opacity="1.000000" stroke="none" 
	d="
M63.489815,507.958008 
	C63.197727,507.092468 63.228794,506.184906 63.569210,505.120483 
	C64.460846,505.342285 65.043129,505.720947 65.625427,506.099609 
	C65.021271,506.705048 64.417122,507.310516 63.489815,507.958008 
z"/>
<path fill="#32B8EE" opacity="1.000000" stroke="none" 
	d="
M64.489807,502.958038 
	C64.197731,502.092468 64.228813,501.184906 64.569244,500.120453 
	C65.460854,500.342255 66.043121,500.720917 66.625389,501.099579 
	C66.021255,501.705048 65.417114,502.310547 64.489807,502.958038 
z"/>
<path fill="#32B8EE" opacity="1.000000" stroke="none" 
	d="
M65.489799,496.958008 
	C65.197731,496.092468 65.228813,495.184906 65.569244,494.120453 
	C66.460861,494.342255 67.043129,494.720917 67.625381,495.099548 
	C67.021233,495.705048 66.417091,496.310516 65.489799,496.958008 
z"/>
<path fill="#32B8EE" opacity="1.000000" stroke="none" 
	d="
M66.489807,491.958008 
	C66.197739,491.092468 66.228821,490.184906 66.569244,489.120453 
	C67.460854,489.342255 68.043121,489.720917 68.625381,490.099548 
	C68.021233,490.705048 67.417091,491.310516 66.489807,491.958008 
z"/>
<path fill="#32B8EE" opacity="1.000000" stroke="none" 
	d="
M67.489807,485.958008 
	C67.197739,485.092468 67.228821,484.184906 67.569244,483.120453 
	C68.460861,483.342255 69.043129,483.720917 69.625381,484.099548 
	C69.021233,484.705048 68.417091,485.310516 67.489807,485.958008 
z"/>
<path fill="#32B8EE" opacity="1.000000" stroke="none" 
	d="
M69.489807,474.958038 
	C69.197731,474.092468 69.228813,473.184906 69.569244,472.120453 
	C70.460861,472.342255 71.043129,472.720917 71.625397,473.099579 
	C71.021255,473.705078 70.417114,474.310547 69.489807,474.958038 
z"/>
<path fill="#32B8EE" opacity="1.000000" stroke="none" 
	d="
M70.489815,469.958038 
	C70.197739,469.092468 70.228821,468.184906 70.569252,467.120453 
	C71.460869,467.342255 72.043137,467.720917 72.625397,468.099579 
	C72.021255,468.705078 71.417114,469.310547 70.489815,469.958038 
z"/>
<path fill="#32B8EE" opacity="1.000000" stroke="none" 
	d="
M92.489807,347.958038 
	C92.197739,347.092468 92.228821,346.184906 92.569244,345.120453 
	C93.460854,345.342255 94.043114,345.720917 94.625381,346.099579 
	C94.021240,346.705048 93.417099,347.310516 92.489807,347.958038 
z"/>
<path fill="#32B8EE" opacity="1.000000" stroke="none" 
	d="
M71.489815,463.958038 
	C71.197739,463.092468 71.228813,462.184906 71.569244,461.120453 
	C72.460861,461.342255 73.043129,461.720917 73.625397,462.099579 
	C73.021255,462.705078 72.417114,463.310547 71.489815,463.958038 
z"/>
<path fill="#32B8EE" opacity="1.000000" stroke="none" 
	d="
M91.489822,352.958038 
	C91.197739,352.092468 91.228821,351.184906 91.569244,350.120453 
	C92.460854,350.342255 93.043114,350.720917 93.625397,351.099579 
	C93.021263,351.705078 92.417122,352.310547 91.489822,352.958038 
z"/>
<path fill="#32B8EE" opacity="1.000000" stroke="none" 
	d="
M72.489815,458.958038 
	C72.197739,458.092468 72.228813,457.184906 72.569252,456.120453 
	C73.460869,456.342255 74.043137,456.720917 74.625397,457.099579 
	C74.021255,457.705078 73.417114,458.310547 72.489815,458.958038 
z"/>
<path fill="#32B8EE" opacity="1.000000" stroke="none" 
	d="
M90.489807,358.958038 
	C90.197739,358.092468 90.228821,357.184906 90.569252,356.120453 
	C91.460869,356.342255 92.043137,356.720917 92.625389,357.099579 
	C92.021240,357.705048 91.417099,358.310516 90.489807,358.958038 
z"/>
<path fill="#000000" opacity="1.000000" stroke="none" 
	d="
M808.999756,573.212830 
	C809.000000,600.340454 808.991516,626.994080 809.005066,653.647644 
	C809.009277,662.048889 804.356201,667.984375 798.249939,672.763672 
	C794.246094,675.897461 788.026428,673.365356 785.145813,666.851074 
	C782.391296,660.622131 779.986938,653.905579 779.233765,647.200500 
	C778.034851,636.527222 777.796387,625.668152 778.145203,614.919922 
	C778.524719,603.228088 780.425171,591.637634 786.396240,581.238037 
	C790.287048,574.461548 796.013062,569.980774 803.994934,569.062134 
	C806.547424,568.768311 809.728516,568.269836 808.999756,573.212830 
z"/>
<path fill="#000000" opacity="1.000000" stroke="none" 
	d="
M708.987671,418.306885 
	C709.331177,429.546753 710.354370,440.349792 709.852966,451.081573 
	C708.887085,471.754303 708.565308,492.627502 700.977112,512.350098 
	C697.934692,520.257507 694.423096,528.065918 685.809387,531.549744 
	C682.816895,532.760071 679.535461,533.454163 676.322876,533.803589 
	C675.331482,533.911377 673.977539,532.222046 673.095154,531.112549 
	C672.686035,530.598083 673.001160,529.501526 673.001099,528.668823 
	C673.000000,476.530487 672.999268,424.392120 673.006897,372.253784 
	C673.007080,371.100800 673.104553,369.947815 673.154907,368.834259 
	C684.567444,365.703430 693.990784,369.688263 699.418030,379.875519 
	C704.687256,389.766083 706.616272,400.565460 708.007690,411.512573 
	C708.276489,413.627960 708.652161,415.729767 708.987671,418.306885 
z"/>
<path fill="#000000" opacity="1.000000" stroke="none" 
	d="
M583.995850,490.271240 
	C584.333008,507.139069 584.606812,523.539124 585.048218,539.934692 
	C585.143066,543.456787 585.843506,546.962585 586.249329,550.345520 
	C573.906372,550.345520 562.237854,550.345520 550.932617,550.345520 
	C550.932617,537.179138 550.826233,524.671692 550.981079,512.167542 
	C551.050232,506.580902 551.337708,500.960663 552.061890,495.425781 
	C553.717773,482.770508 554.291687,469.766205 561.761353,458.650208 
	C565.918823,452.463257 571.634644,452.069489 575.996460,458.504333 
	C581.013611,465.905884 581.856812,474.515015 583.003967,483.032074 
	C583.308411,485.292023 583.661621,487.545441 583.995850,490.271240 
z"/>
</svg>