<?xml version="1.0" encoding="utf-8"?>
<!-- Generator: Adobe Illustrator 27.5.0, SVG Export Plug-In . SVG Version: 6.00 Build 0)  -->
<svg version="1.1" id="Layer_1" xmlns="http://www.w3.org/2000/svg" xmlns:xlink="http://www.w3.org/1999/xlink" x="0px" y="0px"
	 viewBox="0 0 450 450" style="enable-background:new 0 0 450 450;" xml:space="preserve">
<g>
	<g>
		<g style="opacity:0.2;">
			<path style="fill:#BFBEED;" d="M211.906,188.811c-0.021,6.134,4.295,13.597,9.632,16.682l139.073,80.29
				c5.337,3.084,9.68,0.615,9.694-5.519l0.294-102.904l0.028-10.03c0.014-6.134-4.295-13.605-9.632-16.682L221.922,70.351
				c-5.337-3.077-9.68-0.608-9.694,5.526l-0.028,10.037L211.906,188.811z"/>
		</g>
		<g style="opacity:0.2;">
			<path style="fill:#BFBEED;" d="M201.021,200.291c-0.021,6.134,4.295,13.597,9.632,16.682l139.072,80.29
				c5.337,3.085,9.68,0.616,9.694-5.519l0.294-102.904l0.028-10.03c0.014-6.134-4.295-13.604-9.632-16.682L211.037,81.831
				c-5.337-3.077-9.68-0.609-9.694,5.526l-0.028,10.037L201.021,200.291z"/>
		</g>
		<g>
			<g>
				<g style="enable-background:new    ;">
					<g style="enable-background:new    ;">
						<defs>
							<path id="SVGID_1_" style="enable-background:new    ;" d="M196.402,89.051l-2.429,1.412c1.732-1.006,4.13-0.865,6.776,0.663
								l2.429-1.412C200.532,88.187,198.133,88.045,196.402,89.051z"/>
						</defs>
						<use xlink:href="#SVGID_1_"  style="overflow:visible;fill:#F4F4FA;"/>
						<clipPath id="SVGID_00000165206821095819027160000008598042058260741024_">
							<use xlink:href="#SVGID_1_"  style="overflow:visible;"/>
						</clipPath>
						<g style="clip-path:url(#SVGID_00000165206821095819027160000008598042058260741024_);">
							<path style="fill:#FE8786;" d="M200.749,91.126l2.429-1.412c-2.646-1.528-5.045-1.669-6.776-0.663l-2.429,1.412
								C195.704,89.457,198.102,89.598,200.749,91.126z"/>
						</g>
					</g>
					<g style="enable-background:new    ;">
						<defs>
							<path id="SVGID_00000105390756660315292730000009085885648016630963_" style="enable-background:new    ;" d="
								M344.206,304.098l2.429-1.411c1.708-0.993,2.767-3.104,2.776-6.105l-2.429,1.412
								C346.973,300.995,345.914,303.105,344.206,304.098z"/>
						</defs>
						<use xlink:href="#SVGID_00000105390756660315292730000009085885648016630963_"  style="overflow:visible;fill:#F4F4FA;"/>
						<clipPath id="SVGID_00000057826604603165038280000001927889496159730565_">
							<use xlink:href="#SVGID_00000105390756660315292730000009085885648016630963_"  style="overflow:visible;"/>
						</clipPath>
						<g style="clip-path:url(#SVGID_00000057826604603165038280000001927889496159730565_);">
							<path style="fill:#D3D3F5;" d="M344.206,304.098l2.429-1.411c1.708-0.993,2.767-3.104,2.776-6.105l-2.429,1.412
								C346.973,300.995,345.914,303.105,344.206,304.098z"/>
						</g>
					</g>
					<g>
						<polygon style="fill:#FF6661;" points="347.298,186.697 349.727,185.286 349.699,195.18 347.27,196.582 						"/>
						<polygon style="fill:#D3D3F5;" points="349.699,195.18 349.411,296.582 346.982,297.994 347.27,196.582 						"/>
					</g>
					<g>
						<polygon style="fill:#FE8786;" points="337.805,170.255 340.234,168.844 203.178,89.714 200.749,91.126 						"/>
					</g>
					<g style="enable-background:new    ;">
						<defs>
							<path id="SVGID_00000070841462955792253710000013783924248349220285_" style="enable-background:new    ;" d="
								M347.298,186.697l2.429-1.412c0.017-6.043-4.234-13.406-9.493-16.442l-2.429,1.412
								C343.064,173.292,347.315,180.654,347.298,186.697z"/>
						</defs>
						<use xlink:href="#SVGID_00000070841462955792253710000013783924248349220285_"  style="overflow:visible;fill:#F4F4FA;"/>
						<clipPath id="SVGID_00000104666972921002462590000003536000269565844407_">
							<use xlink:href="#SVGID_00000070841462955792253710000013783924248349220285_"  style="overflow:visible;"/>
						</clipPath>
						<g style="clip-path:url(#SVGID_00000104666972921002462590000003536000269565844407_);enable-background:new    ;">
							<path style="fill:#FF6661;" d="M347.298,186.697l2.429-1.412c0.017-6.043-4.234-13.406-9.493-16.442l-2.429,1.412
								C343.064,173.292,347.315,180.654,347.298,186.697z"/>
						</g>
					</g>
					<g>
						<path style="fill:#F4F4FA;" d="M190.88,207.866c-0.021,6.045,4.232,13.4,9.492,16.44l137.055,79.126
							c5.26,3.04,9.54,0.607,9.554-5.438l0.289-101.411l0.028-9.885c0.014-6.045-4.232-13.407-9.492-16.44L200.751,91.125
							c-5.26-3.033-9.54-0.6-9.554,5.446l-0.028,9.891L190.88,207.866z"/>
					</g>
					<path style="fill:#FE4340;" d="M191.169,106.462l156.1,90.12l0.028-9.885c0.014-6.045-4.232-13.407-9.492-16.44L200.751,91.125
						c-5.26-3.033-9.54-0.6-9.554,5.446L191.169,106.462z"/>
				</g>
			</g>
		</g>
		<g>
			<path style="fill:#F4F4FA;" d="M327.446,175.251c0,1.294-0.909,1.819-2.03,1.172c-1.121-0.647-2.03-2.221-2.03-3.516
				c0-1.295,0.909-1.819,2.03-1.172C326.537,172.382,327.446,173.956,327.446,175.251z"/>
			<path style="fill:#F4F4FA;" d="M333.84,178.943c0,1.294-0.909,1.819-2.03,1.172c-1.121-0.647-2.03-2.221-2.03-3.516
				c0-1.294,0.909-1.819,2.03-1.172C332.931,176.074,333.84,177.648,333.84,178.943z"/>
			<path style="fill:#F4F4FA;" d="M340.234,182.634c0,1.294-0.909,1.819-2.03,1.172c-1.121-0.648-2.03-2.221-2.03-3.516
				c0-1.295,0.909-1.819,2.03-1.172C339.325,179.766,340.234,181.34,340.234,182.634z"/>
		</g>
		<g style="opacity:0.9;">
			<polygon style="fill:#FFFFFF;" points="339.728,198.895 269.392,158.286 269.392,255.833 339.728,296.442 			"/>
			<polygon style="opacity:0.9;fill:#3A2C99;" points="339.728,198.895 269.392,158.286 269.393,195.151 339.728,235.759 			"/>
			<polygon style="opacity:0.9;fill:#3A2C99;" points="335.911,241.518 286.902,213.223 286.902,222.565 335.911,250.861 			"/>
			<polygon style="opacity:0.9;fill:#3A2C99;" points="335.911,254.495 286.902,226.2 286.902,235.543 335.911,263.838 			"/>
			<polygon style="opacity:0.9;fill:#3A2C99;" points="335.911,267.473 286.902,239.178 286.902,248.52 335.911,276.816 			"/>
			<polygon style="opacity:0.9;fill:#3A2C99;" points="335.911,280.451 286.902,252.155 286.903,261.499 335.911,289.793 			"/>
			<path style="opacity:0.9;fill:#3A2C99;" d="M282.021,215.076c0-2.578-1.801-5.707-4.022-6.989
				c-2.222-1.282-4.023-0.233-4.023,2.344c0,2.577,1.801,5.706,4.023,6.99C280.221,218.703,282.021,217.653,282.021,215.076z"/>
			<path style="opacity:0.9;fill:#3A2C99;" d="M282.022,254.009c0-2.578-1.801-5.706-4.023-6.989
				c-2.222-1.283-4.023-0.233-4.023,2.344c0,2.577,1.802,5.708,4.023,6.989C280.221,257.636,282.022,256.586,282.022,254.009z"/>
			<path style="opacity:0.9;fill:#3A2C99;" d="M282.022,241.031c0-2.577-1.801-5.706-4.023-6.988
				c-2.222-1.284-4.023-0.234-4.023,2.344c0,2.578,1.801,5.706,4.023,6.989C280.221,244.659,282.022,243.609,282.022,241.031z"/>
			<path style="opacity:0.9;fill:#3A2C99;" d="M282.021,228.053c0-2.577-1.8-5.706-4.022-6.988
				c-2.222-1.283-4.023-0.233-4.023,2.344c0,2.577,1.801,5.705,4.023,6.988C280.221,231.681,282.021,230.631,282.021,228.053z"/>
			<g>
				<polygon style="fill:#FFFFFF;" points="263.247,198.557 195.506,159.447 195.505,114.267 263.247,153.377 				"/>
				<g>
					<path style="opacity:0.9;fill:#3A2C99;" d="M227.428,158.491l-26.611-15.364c-0.829-0.479-1.501-1.646-1.501-2.608l0-17.293
						c0-0.961,0.671-1.353,1.501-0.875l26.61,15.363c0.829,0.48,1.501,1.646,1.501,2.608l0,17.294
						C228.929,158.577,228.257,158.968,227.428,158.491z"/>
					<polygon style="fill:#FFDE38;" points="226.89,149.132 201.021,134.195 201.021,130.468 226.89,145.403 					"/>
					<polygon style="fill:#FFDE38;" points="226.891,141.01 222.164,138.281 222.164,136.417 226.891,139.146 					"/>
					<polygon style="fill:#FFDE38;" points="205.895,143.252 201.021,140.439 201.021,138.575 205.895,141.389 					"/>
				</g>
				<g style="opacity:0.9;">
					<path style="fill:#FE4340;" d="M234.208,149.229c0-1.668,0.908-1.722,2.016-1.128v-0.996l1.077,0.622v0.995
						c0.728,0.455,1.147,0.825,1.676,1.35v1.747c-0.638-0.45-1.436-0.945-2.094-1.325c-0.539-0.311-0.738-0.403-0.738,0.083v0.127
						c0,0.359,0.06,0.589,0.598,0.899l0.639,0.369c1.517,0.876,1.867,2.606,1.867,3.532v0.382c0,2.094-0.979,2.003-1.947,1.468
						v0.949l-1.077-0.622v-0.949c-0.877-0.518-1.007-0.674-1.786-1.425v-1.747c0.399,0.277,1.357,0.911,2.285,1.447
						c0.429,0.247,0.588,0.212,0.589-0.135v-0.186c0-0.335-0.089-0.561-0.529-0.814l-0.599-0.346
						c-1.896-1.094-1.975-3.05-1.975-3.594V149.229z"/>
					<path style="fill:#FE4340;" d="M239.765,150.445c0.818,0.265,1.596,0.574,3.033,1.406c1.556,0.897,2.274,2.469,2.274,4.09
						c0,1.596-1.476,2.296-2.094,2.586l2.094,1.21v2.013l-5.227-3.017v-1.945c0.808-0.159,3.292-1.062,3.292-1.929
						c0-0.706-0.33-0.978-1.137-1.444l-2.235-1.29L239.765,150.445z"/>
					<path style="fill:#FE4340;" d="M245.522,153.84c0.878,0.148,2.105,0.867,3.272,1.565c1.099,0.657,1.886,1.852,1.886,3.229
						v0.452c0,0.844-0.229,1.302-0.838,1.205c0.628,0.595,0.838,1.387,0.838,2.267v0.336c0,1.399-0.739,1.748-1.955,1.046
						c-1.138-0.658-2.265-1.274-3.143-2.139l0.01-1.695l2.175,1.256c0.778,0.449,0.978,0.553,0.978,0.009v-0.105
						c0-0.533-0.279-0.717-0.918-1.12l-1.626-1.02v-1.828l1.626,0.823c0.688,0.361,0.938,0.507,0.938-0.026v-0.104
						c0-0.59-0.419-0.832-0.938-1.132l-2.304-1.331V153.84z"/>
					<path style="fill:#FE4340;" d="M251.259,156.851l4.798,2.77l0.469,1.173l-2.284,6.25l-2.055-1.187l1.975-5.317l-2.903-1.676
						V156.851z"/>
				</g>
				<g>
					<path style="fill:#BFBEED;" d="M209.394,157.374c0-3.229-2.256-7.148-5.039-8.755c-2.783-1.606-5.039-0.292-5.039,2.936
						c0,3.228,2.256,7.149,5.039,8.755C207.138,161.917,209.395,160.603,209.394,157.374z"/>
					<path style="fill:#BFBEED;" d="M226.075,167.005c0-3.228-2.256-7.148-5.039-8.754c-2.783-1.608-5.039-0.292-5.039,2.936
						c0,3.228,2.256,7.148,5.039,8.754C223.819,171.548,226.075,170.234,226.075,167.005z"/>
					<path style="fill:#BFBEED;" d="M242.755,176.636c0-3.229-2.256-7.148-5.039-8.755c-2.783-1.607-5.039-0.292-5.039,2.936
						c0,3.229,2.256,7.148,5.039,8.755C240.499,181.178,242.755,179.864,242.755,176.636z"/>
					<path style="fill:#BFBEED;" d="M259.436,186.267c0-3.229-2.256-7.148-5.039-8.755c-2.783-1.607-5.039-0.293-5.039,2.936
						c0,3.228,2.256,7.147,5.039,8.755C257.18,190.808,259.436,189.495,259.436,186.267z"/>
				</g>
			</g>
			<g>
				<polygon style="fill:#FFFFFF;" points="263.246,250.924 195.505,211.813 195.505,166.634 263.247,205.744 				"/>
				<g>
					<path style="opacity:0.9;fill:#FE4340;" d="M227.427,210.857l-26.611-15.363c-0.829-0.478-1.501-1.646-1.501-2.607l0-17.293
						c0-0.962,0.673-1.354,1.501-0.875l26.611,15.364c0.829,0.479,1.501,1.646,1.501,2.607l0,17.292
						C228.928,210.944,228.257,211.336,227.427,210.857z"/>
					<polygon style="fill:#FFDE38;" points="226.89,201.498 201.021,186.563 201.021,182.836 226.89,197.771 					"/>
					<polygon style="fill:#FFDE38;" points="226.89,193.377 222.164,190.648 222.164,188.785 226.89,191.513 					"/>
					<polygon style="fill:#FFDE38;" points="205.895,195.621 201.021,192.807 201.021,190.943 205.895,193.757 					"/>
				</g>
				<g style="opacity:0.9;">
					<path style="fill:#FE4340;" d="M235.612,205.817c0-1.457,0.794-1.503,1.762-0.986v-0.869l0.942,0.544v0.869
						c0.637,0.399,1.003,0.722,1.465,1.181v1.527c-0.558-0.392-1.256-0.826-1.832-1.159c-0.471-0.271-0.645-0.352-0.645,0.074v0.111
						c0,0.313,0.052,0.515,0.523,0.787l0.558,0.322c1.326,0.765,1.631,2.278,1.631,3.087v0.334c0,1.831-0.856,1.752-1.701,1.283
						v0.829l-0.942-0.543v-0.83c-0.767-0.452-0.881-0.589-1.561-1.245v-1.527c0.348,0.241,1.186,0.795,1.997,1.263
						c0.375,0.217,0.515,0.187,0.515-0.117v-0.161c0-0.294-0.079-0.492-0.462-0.713l-0.523-0.302
						c-1.657-0.956-1.728-2.667-1.728-3.142V205.817z"/>
					<path style="fill:#FE4340;" d="M240.427,206.918c0.767,0.129,1.84,0.759,2.86,1.368c0.959,0.574,1.648,1.619,1.648,2.823v0.395
						c0,0.738-0.201,1.138-0.732,1.054c0.549,0.52,0.732,1.212,0.732,1.98l0,0.294c0,1.224-0.645,1.53-1.709,0.915
						c-0.994-0.574-1.98-1.112-2.747-1.869l0.009-1.482l1.901,1.097c0.68,0.392,0.855,0.484,0.855,0.008v-0.092
						c0-0.465-0.244-0.626-0.802-0.978l-1.421-0.892v-1.598l1.421,0.719c0.602,0.317,0.82,0.443,0.82-0.023v-0.09
						c0-0.517-0.366-0.728-0.82-0.989l-2.014-1.163V206.918z"/>
					<path style="fill:#FE4340;" d="M245.669,215.317l2.302,1.328c0.541,0.313,0.514-0.037,0.514-0.239v-0.314
						c0-0.334-0.087-0.586-0.419-0.777l-0.383-0.222c-0.279-0.161-0.384-0.08-0.384,0.233l-1.622-0.936l0.192-4.593l4.038,2.331
						v1.76l-2.39-1.38l-0.034,1.013c0.226-0.032,0.453,0.069,0.566,0.124c0.227,0.111,0.55,0.308,0.664,0.384
						c1.011,0.685,1.465,1.755,1.465,2.828v0.951c0,1.387-0.915,1.394-1.771,0.9c-1.081-0.624-1.57-0.916-2.738-1.823V215.317z"/>
					<path style="fill:#FE4340;" d="M250.797,214.686c0-1.315,0.602-1.696,1.692-1.067l1.43,0.826
						c1.264,0.73,1.613,1.821,1.613,2.874v3.52c0,1.203-0.575,1.611-1.622,1.006l-1.43-0.826c-1.133-0.654-1.683-1.699-1.683-2.913
						V214.686z M252.985,219.55l0.366,0.212c0.288,0.167,0.489,0.242,0.489-0.304v-2.712c0-0.465-0.183-0.693-0.419-0.829
						l-0.497-0.286c-0.454-0.262-0.437,0.202-0.437,0.334v2.701C252.488,219.234,252.794,219.44,252.985,219.55z"/>
				</g>
				<g>
					<path style="fill:#BFBEED;" d="M235.26,197.317l1.817,1.049v0.645l-0.608-0.351v2.071l-0.62-0.358v-2.07l-0.588-0.34V197.317z"
						/>
					<path style="fill:#BFBEED;" d="M237.512,199.344c0.594,0.342,0.796,0.708,0.796,1.491c0,0.731-0.186,0.869-0.796,0.517
						c-0.598-0.346-0.797-0.731-0.797-1.437C236.715,199.11,236.923,199.004,237.512,199.344z M237.512,200.817
						c0.176,0.101,0.176,0.072,0.176-0.34c0-0.426,0.003-0.495-0.176-0.598c-0.189-0.109-0.176-0.028-0.176,0.396
						C237.336,200.664,237.349,200.723,237.512,200.817z"/>
					<path style="fill:#BFBEED;" d="M238.433,200.031l0.24-0.002l0.089-0.498l0.531,0.307v0.549l0.285,0.164v0.497l-0.285-0.164
						v0.623c0,0.264,0.045,0.342,0.115,0.426c0,0,0.134,0.156,0.157,0.169v0.419l-0.479-0.276c-0.256-0.148-0.413-0.424-0.413-0.947
						v-0.772l-0.24-0.139V200.031z"/>
					<path style="fill:#BFBEED;" d="M239.7,201.914c0-0.278,0.112-0.515,0.556-0.258c0,0,0.327,0.192,0.327,0.189
						c0,0,0.003-0.021,0-0.026c0-0.197-0.07-0.234-0.199-0.307c-0.079-0.046-0.627-0.322-0.627-0.322v-0.42
						c0.22,0.005,0.412,0.09,0.729,0.273c0.448,0.258,0.717,0.543,0.717,1.097v1.325l-0.5-0.289l-0.121-0.27
						c-0.029,0.061-0.125,0.161-0.358,0.016c-0.403-0.251-0.525-0.648-0.525-0.856V201.914z M240.454,202.519
						c0.131,0.076,0.129-0.047,0.129-0.047v-0.223l-0.166-0.078c-0.102-0.047-0.096,0.053-0.096,0.112
						C240.321,202.436,240.394,202.484,240.454,202.519z"/>
					<path style="fill:#BFBEED;" d="M241.399,200.671l0.62,0.358v2.055c0,0.256,0.049,0.337,0.118,0.421
						c0,0,0.134,0.155,0.158,0.169v0.42l-0.442-0.256c-0.304-0.176-0.454-0.44-0.454-0.963V200.671z"/>
					<path style="fill:#BFBEED;" d="M243.274,201.943l1.018,0.587c0.498,0.288,0.703,0.688,0.703,1.148
						c0,0.23-0.111,0.477-0.342,0.366c0.24,0.184,0.4,0.527,0.4,0.81c0,0.608-0.253,0.685-0.745,0.401l-1.033-0.596V201.943z
						 M244.243,203.512c0.096,0.055,0.144-0.002,0.144-0.106c0-0.163-0.074-0.255-0.144-0.295l-0.349-0.202v0.401L244.243,203.512z
						 M244.275,204.629c0.122,0.07,0.157-0.006,0.157-0.169c0-0.138-0.032-0.286-0.157-0.357l-0.381-0.221v0.528L244.275,204.629z"
						/>
					<path style="fill:#BFBEED;" d="M245.154,205.062c0-0.278,0.113-0.513,0.557-0.257c0,0,0.326,0.192,0.326,0.188v-0.026
						c0-0.196-0.07-0.232-0.198-0.307c-0.08-0.046-0.627-0.322-0.627-0.322v-0.42c0.221,0.005,0.413,0.092,0.73,0.274
						c0.448,0.258,0.716,0.544,0.716,1.096v1.325l-0.498-0.287l-0.123-0.272c-0.029,0.061-0.124,0.161-0.358,0.016
						c-0.403-0.251-0.525-0.648-0.525-0.856V205.062z M245.91,205.669c0.131,0.076,0.127-0.049,0.127-0.049v-0.223l-0.165-0.077
						c-0.103-0.048-0.097,0.052-0.097,0.111v0.023C245.775,205.607,245.849,205.634,245.91,205.669z"/>
					<path style="fill:#BFBEED;" d="M246.854,203.821l0.62,0.358v2.055c0,0.256,0.048,0.335,0.118,0.421
						c0,0,0.134,0.155,0.157,0.168v0.42l-0.441-0.255c-0.304-0.176-0.454-0.44-0.454-0.964V203.821z"/>
					<path style="fill:#BFBEED;" d="M247.855,206.622c0-0.278,0.111-0.515,0.556-0.258c0,0,0.326,0.191,0.326,0.188v-0.026
						c0-0.197-0.07-0.233-0.198-0.307c-0.079-0.046-0.627-0.321-0.627-0.321v-0.419c0.22,0.004,0.412,0.089,0.729,0.273
						c0.447,0.257,0.716,0.543,0.716,1.096v1.324l-0.499-0.288l-0.122-0.271c-0.028,0.062-0.124,0.163-0.358,0.016
						c-0.403-0.251-0.524-0.646-0.524-0.854V206.622z M248.61,207.229c0.131,0.075,0.127-0.05,0.127-0.05v-0.223l-0.166-0.076
						c-0.103-0.048-0.096,0.052-0.096,0.111v0.023C248.476,207.166,248.549,207.192,248.61,207.229z"/>
					<path style="fill:#BFBEED;" d="M249.554,206.315l0.518,0.298l0.103,0.253c0.105-0.054,0.208-0.106,0.467,0.043
						c0.441,0.254,0.492,0.61,0.492,1.027v1.261l-0.62-0.358v-1.277c0-0.155-0.036-0.214-0.105-0.253
						c-0.118-0.069-0.195-0.076-0.233,0.002v1.333l-0.621-0.359V206.315z"/>
					<path style="fill:#BFBEED;" d="M251.869,207.633c0.167,0.096,0.5,0.27,0.826,0.61v0.423c0,0-0.192-0.133-0.477-0.297
						c-0.217-0.126-0.288-0.175-0.288,0.308c0,0.452,0.058,0.497,0.288,0.63c0.295,0.17,0.499,0.259,0.499,0.259v0.423
						c-0.241,0.058-0.583-0.2-0.849-0.349c-0.316-0.183-0.559-0.557-0.559-1.329C251.31,207.541,251.544,207.446,251.869,207.633z"
						/>
					<path style="fill:#BFBEED;" d="M253.556,208.611c0.566,0.326,0.777,0.53,0.777,1.183c0,0.405-0.195,0.414-0.502,0.238
						l-0.397-0.23c0,0.268,0.151,0.298,0.387,0.435c0.23,0.133,0.24,0.139,0.48,0.237v0.467c-0.224-0.011-0.662-0.278-0.928-0.431
						c-0.432-0.251-0.56-0.655-0.56-1.337C252.814,208.352,253.005,208.293,253.556,208.611z M253.62,209.453
						c0.055,0.031,0.093,0.005,0.093-0.065c0-0.134-0.003-0.19-0.113-0.254c-0.134-0.078-0.172-0.074-0.166,0.212L253.62,209.453z"
						/>
				</g>
				<g>
					<path style="fill:#BFBEED;" d="M209.394,209.742c0-3.228-2.256-7.148-5.039-8.755c-2.783-1.606-5.039-0.292-5.039,2.937
						c0,3.228,2.256,7.148,5.039,8.754C207.139,214.286,209.394,212.97,209.394,209.742z"/>
					<path style="fill:#BFBEED;" d="M226.075,219.372c0-3.228-2.256-7.148-5.039-8.755c-2.783-1.606-5.039-0.291-5.04,2.937
						c0,3.229,2.256,7.148,5.039,8.755C223.818,223.915,226.075,222.601,226.075,219.372z"/>
					<path style="fill:#BFBEED;" d="M242.756,229.003c0-3.228-2.256-7.148-5.039-8.755c-2.784-1.607-5.039-0.292-5.039,2.937
						c0,3.228,2.255,7.147,5.039,8.755C240.499,233.546,242.756,232.231,242.756,229.003z"/>
					<path style="fill:#BFBEED;" d="M259.436,238.634c0-3.229-2.256-7.149-5.039-8.755c-2.783-1.608-5.04-0.293-5.04,2.935
						c0,3.228,2.256,7.148,5.04,8.756C257.18,243.177,259.436,241.862,259.436,238.634z"/>
				</g>
			</g>
			<g>
				<g>
					<path style="fill:#FFFFFF;" d="M282.022,180.866c0-3.057,1.666-3.157,3.697-2.07v-1.826l1.977,1.141v1.827
						c1.336,0.835,2.105,1.512,3.075,2.476v3.207c-1.171-0.825-2.636-1.734-3.843-2.432c-0.989-0.571-1.356-0.741-1.356,0.151v0.234
						c0,0.658,0.111,1.083,1.099,1.654l1.171,0.677c2.782,1.605,3.423,4.779,3.423,6.477v0.701c0,3.844-1.793,3.679-3.569,2.696
						v1.741l-1.978-1.143v-1.741c-1.61-0.95-1.848-1.237-3.276-2.612v-3.206c0.732,0.507,2.49,1.671,4.192,2.654
						c0.786,0.454,1.079,0.389,1.079-0.248v-0.339c0-0.616-0.164-1.029-0.969-1.494l-1.099-0.635
						c-3.478-2.008-3.624-5.596-3.624-6.593V180.866z"/>
					<path style="fill:#FFFFFF;" d="M292.585,193.504c0-1.061,0.329-2.103,1.354-1.703c-1.354-1.566-1.354-2.671-1.354-3.966v-1.38
						c0-2.973,1.703-2.691,3.588-1.603l2.856,1.65c2.16,1.246,3.331,2.899,3.331,5.618v0.934c0,0.574-0.183,2.165-1.374,1.67
						c1.263,1.005,1.374,2.895,1.374,3.808v1.614c0,3.461-1.575,3.02-3.35,1.994l-2.838-1.638c-3.478-2.008-3.588-4.512-3.588-5.872
						V193.504z M296.996,191.422l0.952,0.549c0.806,0.466,0.86,0.2,0.86-0.438v-0.637c0-1.019-0.421-1.282-0.86-1.536l-0.952-0.55
						c-0.549-0.316-0.86-0.433-0.86,0.544v0.637C296.136,190.819,296.373,191.063,296.996,191.422z M296.996,197.496l0.952,0.549
						c0.806,0.465,0.86,0.114,0.86-0.481v-0.85c0-0.551-0.11-1.061-0.824-1.473l-0.989-0.57c-0.768-0.444-0.86-0.072-0.86,0.501
						v0.849C296.136,196.764,296.356,197.126,296.996,197.496z"/>
					<path style="fill:#FFFFFF;" d="M307.175,191.311l3.808,2.199l-2.874,7.195l1.775,1.025v-2.845l0.494-1.373l3.058,1.766l0,4.502
						l1.099,0.634v3.163l-1.099-0.018v2.867l-3.551-2.05v-2.867l-5.949-3.434l-0.623-2.207L307.175,191.311z"/>
					<path style="fill:#FFFFFF;" d="M315.138,196.333c1.501,0.484,2.93,1.054,5.565,2.577c2.855,1.648,4.174,4.533,4.174,7.506
						c0,2.93-2.71,4.211-3.845,4.745l3.845,2.219l0.001,3.696l-9.593-5.54v-3.567c1.483-0.29,6.041-1.946,6.041-3.54
						c0-1.295-0.605-1.794-2.088-2.65l-4.1-2.368V196.333z"/>
				</g>
			</g>
		</g>
	</g>
	<g>
		<g>
			<g style="enable-background:new    ;">
				<g style="enable-background:new    ;">
					<defs>
						<path id="SVGID_00000020391060218959242970000013205061759951492736_" style="enable-background:new    ;" d="
							M131.837,159.294l37.355-21.708c0.912-0.53,2.176-0.455,3.573,0.351l-37.355,21.708
							C134.014,158.839,132.75,158.764,131.837,159.294z"/>
					</defs>
					<use xlink:href="#SVGID_00000020391060218959242970000013205061759951492736_"  style="overflow:visible;fill:#FE4340;"/>
					<clipPath id="SVGID_00000020383797259670318680000017761436882524393653_">
						<use xlink:href="#SVGID_00000020391060218959242970000013205061759951492736_"  style="overflow:visible;"/>
					</clipPath>
					<g style="clip-path:url(#SVGID_00000020383797259670318680000017761436882524393653_);enable-background:new    ;">
						<path style="fill:#FE4340;" d="M131.837,159.294l37.355-21.708c0.898-0.522,2.136-0.457,3.505,0.313l-37.355,21.708
							C133.973,158.837,132.735,158.772,131.837,159.294z"/>
						<path style="fill:#FE4340;" d="M135.343,159.607l37.355-21.708c0.022,0.013,0.045,0.025,0.067,0.038l-37.355,21.708
							C135.388,159.633,135.365,159.62,135.343,159.607z"/>
					</g>
				</g>
				<g style="enable-background:new    ;">
					<defs>
						<path id="SVGID_00000124846735311261917660000001362748112176272020_" style="enable-background:new    ;" d="
							M275.404,307.156l-37.355,21.708c6.952-4.04,11.279-12.604,11.313-24.741l37.355-21.708
							C286.683,294.552,282.357,303.116,275.404,307.156z"/>
					</defs>
					<use xlink:href="#SVGID_00000124846735311261917660000001362748112176272020_"  style="overflow:visible;fill:#E5322B;"/>
					<clipPath id="SVGID_00000128472827707130382600000003367333160829835398_">
						<use xlink:href="#SVGID_00000124846735311261917660000001362748112176272020_"  style="overflow:visible;"/>
					</clipPath>
					<g style="clip-path:url(#SVGID_00000128472827707130382600000003367333160829835398_);enable-background:new    ;">
						<path style="fill:#E5322B;" d="M249.362,304.124l37.355-21.708c-0.034,12.137-4.361,20.701-11.313,24.741l-37.355,21.708
							C245.001,324.824,249.328,316.26,249.362,304.124z"/>
					</g>
				</g>
				<g>
					<polygon style="fill:#E5322B;" points="249.568,231.332 286.924,209.624 286.717,282.415 249.362,304.124 					"/>
				</g>
				<g>
					<polygon style="fill:#FF6661;" points="135.41,159.645 172.765,137.937 281.921,200.958 244.565,222.666 					"/>
				</g>
				<g style="enable-background:new    ;">
					<defs>
						<path id="SVGID_00000027603019084375518400000018098079221352550292_" style="enable-background:new    ;" d="
							M244.565,222.666l37.355-21.708c2.775,1.602,5.012,5.478,5.003,8.666l-37.355,21.708
							C249.578,228.143,247.34,224.268,244.565,222.666z"/>
					</defs>
					<use xlink:href="#SVGID_00000027603019084375518400000018098079221352550292_"  style="overflow:visible;fill:#FE4340;"/>
					<clipPath id="SVGID_00000005237318320936008080000003828554418268773772_">
						<use xlink:href="#SVGID_00000027603019084375518400000018098079221352550292_"  style="overflow:visible;"/>
					</clipPath>
					<g style="clip-path:url(#SVGID_00000005237318320936008080000003828554418268773772_);enable-background:new    ;">
						<path style="fill:#FE4340;" d="M244.565,222.666l37.355-21.708c0.6,0.347,1.175,0.799,1.707,1.328l-37.355,21.708
							C245.74,223.465,245.165,223.013,244.565,222.666z"/>
						<path style="fill:#FE4340;" d="M246.272,223.994l37.355-21.708c1.93,1.918,3.303,4.839,3.296,7.338l-37.355,21.708
							C249.575,228.833,248.203,225.912,246.272,223.994z"/>
					</g>
				</g>
				<g>
					<path style="fill:#FE4340;" d="M244.565,222.666c2.775,1.602,5.012,5.477,5.003,8.666l-0.206,72.792
						c-0.069,24.432-17.531,34.383-38.793,22.107l-41.86-24.168c-21.263-12.276-38.611-42.324-38.542-66.757l0.206-72.791
						c0.009-3.189,2.261-4.472,5.036-2.87L244.565,222.666z"/>
				</g>
			</g>
		</g>
		<path style="fill:#E5322B;" d="M169.653,158.596c-4.686,2.706-12.354,2.706-17.04,0c-4.686-2.706-4.686-7.133,0-9.838
			c4.686-2.706,12.354-2.706,17.04,0C174.339,151.464,174.339,155.891,169.653,158.596z"/>
		<path style="fill:#E5322B;" d="M261.104,211.126c-4.686,2.705-12.354,2.705-17.04,0c-4.686-2.706-4.686-7.133,0-9.839
			c4.686-2.705,12.354-2.705,17.04,0C265.79,203.993,265.79,208.42,261.104,211.126z"/>
		<g>
			<path style="fill:#DADAF9;" d="M150.044,106.687l0.175,46.384c0.006,1.613,1.065,3.218,3.181,4.443
				c4.232,2.447,11.07,2.421,15.284-0.057c2.113-1.242,3.16-2.871,3.148-4.489l-0.175-46.362c-0.03-8.089,2.24-14.064,6.234-16.389
				c3.993-2.325,10.309-1.352,17.333,2.67l11.936,6.828c18.699,10.703,34.56,37.946,34.641,59.491l0.175,46.384
				c0.006,1.613,1.071,3.223,3.186,4.443c2.712,1.569,6.501,2.121,9.981,1.66c1.941-0.256,3.79-0.829,5.298-1.718
				c0.571-0.336,1.063-0.695,1.473-1.076c1.129-1.04,1.685-2.225,1.674-3.408l-0.169-46.367
				c-0.053-14.095-4.782-29.934-13.317-44.586c-8.528-14.647-19.969-26.577-32.206-33.579l-11.936-6.834
				c-6.745-3.858-13.461-6.091-19.956-6.633c-6.892-0.569-13.459,0.831-18.989,4.05c-5.53,3.22-9.983,8.24-12.886,14.512
				C151.387,91.975,150.015,98.915,150.044,106.687z"/>
			<path style="fill:#BFBEED;" d="M171.927,92.764c1.217-0.709,2.652-1.107,4.254-1.211c-2.92,2.887-4.549,8.207-4.524,15.055
				l0.175,46.361c0.014,1.62-1.035,3.244-3.148,4.488c-0.843,0.495-1.794,0.889-2.805,1.188l-0.186-49.493
				C165.662,101.063,167.935,95.089,171.927,92.764z"/>
			<path style="fill:#F4F4FA;" d="M165.564,74.282c3.773-1.067,7.818-1.444,11.986-1.097c6.5,0.536,13.211,2.77,19.962,6.628
				l11.936,6.834c12.237,7.002,23.672,18.932,32.206,33.585c8.534,14.647,13.258,30.485,13.311,44.587l0.176,46.876
				c1.941-0.256,3.79-0.829,5.298-1.718c0.571-0.336,1.063-0.695,1.473-1.076l-0.176-46.91
				c-0.053-14.101-4.782-29.934-13.311-44.587c-8.536-14.652-19.975-26.577-32.212-33.579l-11.936-6.833
				c-6.745-3.864-13.462-6.092-19.957-6.634C177.52,69.794,171.043,71.155,165.564,74.282z"/>
		</g>
		<path style="fill:#19121B;" d="M175.474,237.826c-0.024-6.207,4.324-8.739,9.712-5.656c5.387,3.083,9.773,10.615,9.796,16.821
			c0.015,4.091-1.874,6.57-4.702,6.914l0.066,17.669l-10.032-5.742l-0.066-17.668C177.405,246.575,175.489,241.917,175.474,237.826z
			"/>
	</g>
	<g>
		<g>
			<g id="man_6_">
				<g id="man_8_">
					<g>
						<g>
							<g>
								<path style="fill:#19121B;" d="M110.305,370.867c0.409-0.934,3.769-1.826,4.754-2.154c2.506-0.834,5.075-0.999,7.648-1.469
									c0.521-0.095,1.068-0.181,1.574-0.024c1.278,0.401,1.772,2.623,1.48,3.734c-0.206,0.785-0.815,1.41-1.501,1.845
									c-1.028,0.653-2.431,1.128-3.648,1.184c-1.304,0.061-2.525,0.341-3.642,1.045c-1.446,0.911-2.514,1.92-4.302,1.865
									c-1.795-0.055-3.161-1.286-3.042-3.135c0.043-0.662,0.226-1.306,0.408-1.944
									C110.15,371.415,110.204,371.099,110.305,370.867z"/>
								<path style="fill:#262028;" d="M104.397,370.865c0.082-0.115,0.16-0.233,0.235-0.355c0.756-1.248,1.919-1.935,3.126-2.734
									c0.449-0.298,0.928-0.606,1.466-0.64c1.227-0.077,2.092,1.346,1.98,2.571c-0.051,0.567-0.242,1.114-0.326,1.678
									c-0.159,1.069-0.026,2.572,0.902,3.285c1.247,0.958,3.004,1.526,4.363,2.359c0.53,0.324,1.068,0.675,1.407,1.196
									c0.798,1.227-0.136,3.246-1.233,3.97c-0.677,0.448-1.548,0.506-2.349,0.372c-1.202-0.201-2.563-0.783-3.508-1.555
									c-1.011-0.826-2.106-1.432-3.409-1.655c-2.235-0.38-4.986-0.606-5.603-3.339c-0.165-0.73,0.045-1.505,0.42-2.153
									C102.531,372.719,103.631,371.928,104.397,370.865z"/>
							</g>
						</g>
					</g>
				</g>
				<path style="fill:#19121B;" d="M112.608,314.088c0.987,0.998,4.716-0.839,4.766-1.329c4.433-3.436,3.907,10.287,2.634,15.74
					c-0.683,2.94-0.505,6-0.912,8.986c-0.454,3.327-1.156,6.622-2.097,9.845c-0.202,0.696-0.432,1.416-0.93,1.944
					c-1.027,1.091-2.765,0.986-4.242,0.743c-1.281-0.21-2.713-0.571-3.343-1.704c-0.389-0.698-0.377-1.541-0.371-2.339
					c0.014-2.106,0.027-4.281-0.393-6.35c-0.447-2.207-0.896-4.414-1.343-6.622c-0.391-1.932-0.783-3.866-0.978-5.826
					c-0.352-3.544-0.054-7.119,0.493-10.628c0.288-1.842-0.325-5.293,2.29-5.665C110.548,310.548,111.951,313.423,112.608,314.088z"
					/>
				<path style="fill:#F7736A;" d="M117.888,341.439l0.734-3.082C118.329,339.373,118.087,340.403,117.888,341.439z"/>
				<path style="fill:#19121B;" d="M116.469,346.167c-0.76-1.051-2.64-0.995-3.268-0.717c-0.494,0.22-4.093-1.845-5.151-2.641
					c0.08,0.06-0.062,0.933-0.07,1.064c-0.024,0.364-0.046,0.73-0.065,1.096c-0.04,0.721-0.073,1.443-0.099,2.166
					c-0.052,1.413-0.076,2.826-0.066,4.24c0.01,1.442,0.056,2.884,0.144,4.324c0.078,1.286,0.296,2.581,0.189,3.859
					c-0.055,0.655,0.122,1.363,0.204,2.013c0.091,0.732,0.183,1.464,0.274,2.196c0.182,1.464,0.365,2.928,0.548,4.392
					c0.026,0.205,0.051,0.41,0.077,0.615c0.139,1.119,0.195,2.926,1.049,3.757c0.883,0.858,2.368,1.168,3.547,0.959
					c0.996-0.176,1.917-0.723,2.567-1.496c0.737-0.876,0.638-2.201,0.646-3.301c0.035-4.62-0.287-9.236-0.294-13.855
					c-0.004-3.562,0.186-7.149,0.86-10.639L116.469,346.167z"/>
				<path style="fill:#262028;" d="M119.454,315.049c0.424-0.22,2.604-1.313,2.586-1.905c-0.012-0.397,1.061-0.728,1.337-0.723
					c0.5,0.01,1.004,0.331,1.407,0.619c0.994,0.71,1.726,1.802,2.179,2.97c0.62,1.605,0.769,3.366,0.866,5.099
					c0.287,5.164,0.152,10.355-0.395,15.496c-0.277,2.597-0.659,5.179-1.146,7.74c-0.242,1.281-0.512,2.556-0.807,3.824
					c-0.284,1.219-0.537,1.6-1.56,2.244c-2.197,1.382-6.153,1.199-7.723-1.287c-1.692-2.674-0.988-6.84-1.529-9.848
					c-0.784-4.372-3.695-7.578-5.031-11.731c-0.983-3.048-0.849-5.925-0.335-9.033c0.242-1.469,0.697-4.982,2.193-5.841
					c0.397-0.227,3.09-0.84,5.267,1.323C118.035,315.26,117.887,315.855,119.454,315.049z"/>
				<g>
					<g>
						<g>
							<g>
								<g>
									<g>
										<path style="fill:#35353F;" d="M104.693,300.224c-0.021-0.757-0.071-1.516-0.21-2.307
											c-0.644-3.666-1.741-7.246-2.202-10.945c-0.357-2.872-0.616-6.454,1.662-8.673c0.372-0.362,0.798-0.662,1.249-0.917
											c4.428-2.5,8.663,0.544,12.812,2.039c2.727,0.982,5.341,2.27,7.782,3.831c0.85,0.543,1.72,0.915,2.292,1.761
											c0.713,1.055,0.629,1.823,0.517,3.021c-0.13,1.404-0.245,2.809-0.346,4.215c-0.202,2.813-0.346,5.629-0.432,8.447
											c-0.173,5.636-0.113,11.28,0.179,16.911c0.092,1.779,0.317,3.574,0.343,5.354c0.018,1.268-0.84,1.872-2.03,2.183
											c-3.34,0.875-7.213,1.164-10.654,1.092c-3.577-0.075-7.216-0.849-10.219-2.794c-0.768-0.498-0.395-1.291-0.326-2.124
											c0.084-1.006,0.147-2.013,0.19-3.022c0.083-1.961,0.087-3.925,0.014-5.886c-0.055-1.476-0.404-2.898-0.472-4.337
											c-0.082-1.739-0.033-3.488-0.102-5.229C104.703,301.941,104.717,301.083,104.693,300.224z"/>
									</g>
								</g>
							</g>
						</g>
					</g>
				</g>
				<path style="fill:#262028;" d="M123.287,352.182c-1.205,1.897-2.397,3.802-3.571,5.718c-0.929,1.515-1.847,3.037-2.749,4.569
					c-0.694,1.18-1.379,2.365-2.054,3.555c-0.866,1.528-1.734,3.066-2.623,4.566c-0.661,1.116-1.159,2.723-2.461,3.28
					c-1.153,0.493-2.884-0.314-3.801-0.958c-0.725-0.509-2.087-1.5-2.414-2.35c-0.329-0.856,0.179-2.173,0.467-2.975
					c0.766-2.132,1.75-4.179,2.768-6.204c1.712-3.402,3.53-6.75,5.449-10.039c1.832-3.139,3.292-6.389,4.948-9.623
					c0.182-0.355,0.596-0.605,0.976-0.645c0.492-0.051,6.54,7.056,6.854,8.275C125.074,349.352,124.775,349.838,123.287,352.182z"/>
				<path style="fill:#F9D5C3;" d="M119.112,275.816c0.159-1.097,0.988-0.842,0.569-1.837c-0.356-0.845-0.896-1.622-1.621-2.182
					c-0.724-0.561-1.64-0.893-2.555-0.843c-0.315,0.018-0.526,0.198-0.838,0.199c-0.863,0.003-1.732-0.162-2.593-0.037
					c-0.858,0.124-1.65,0.187-1.65,1.154c0.001,1.29,0.06,2.532-0.353,3.8c-0.221,0.678-0.554,1.332-0.614,2.042
					c-0.116,1.397,0.904,2.699,2.165,3.308c1.551,0.75,3.305,0.682,4.954,0.442c0.828-0.12,1.994-0.286,2.48-1.074
					c0.365-0.595,0.209-1.374,0.131-2.025C119.067,277.779,118.967,276.806,119.112,275.816z"/>
				<g>
					<g>
						<g style="enable-background:new    ;">
							<g style="enable-background:new    ;">
								<defs>
									<path id="SVGID_00000122700500761836536700000016037635406792126875_" style="enable-background:new    ;" d="
										M117.251,259.328l-3.595,2.089c0.255-0.147,0.606-0.128,0.993,0.096l3.595-2.089
										C117.859,259.201,117.507,259.181,117.251,259.328z"/>
								</defs>
								<clipPath id="SVGID_00000176018443600827479380000014804637998472567213_">
									<use xlink:href="#SVGID_00000122700500761836536700000016037635406792126875_"  style="overflow:visible;"/>
								</clipPath>
								<g style="clip-path:url(#SVGID_00000176018443600827479380000014804637998472567213_);enable-background:new    ;">
									<path style="fill:#7F89A6;" d="M114.649,261.513l3.595-2.089c-0.385-0.223-0.737-0.243-0.993-0.095l-3.595,2.089
										C113.911,261.27,114.262,261.29,114.649,261.513z"/>
								</g>
							</g>
						</g>
					</g>
					<g>
						<g>
							<path style="fill:#F9D5C3;" d="M122.815,261.793c0.521,0.634,0.929,1.349,1.053,2.185c0.278,1.865-0.472,3.782-0.067,5.632
								c0.393,1.793-0.377,5.865-3.912,6.908c-1.788,0.528-5.318-0.09-6.453-0.634c-1.524-0.73-2.53-2.206-3.431-3.636
								C102.62,260.521,117.806,255.699,122.815,261.793z"/>
						</g>
					</g>
					<path style="fill:#35353F;" d="M106.683,266.986c0.226,1.918,0.646,3.81,0.828,5.732c0.308,3.238-0.044,6.611,1.107,9.654
						c0.671,1.773,1.854,3.343,3.351,4.503c0,0.147,1.271,1.182,1.411,1.312c0.656,0.603,1.312,1.207,1.968,1.81
						c0.175,0.161,0.374,0.331,0.611,0.331c0.244-0.001,0.446-0.181,0.617-0.355c1.734-1.764,2.969-3.967,3.877-6.268
						c0-0.124,0.124-0.319,0.168-0.437c0.055-0.146,0.109-0.293,0.161-0.439c0.108-0.301,0.211-0.604,0.311-0.908
						c0.511-1.562,0.918-3.155,1.313-4.75c0.405-1.633,0.896-3.247,1.35-4.867c0.118-0.42,0.236-0.842,0.277-1.276
						c0.023-0.242,0.02-0.487-0.019-0.727c-0.02-0.12-0.048-0.237-0.088-0.351c-0.025-0.073-0.086-0.159-0.063-0.234
						c-0.406,0.255-0.806,0.524-1.206,0.789c-0.744,0.494-1.836,0.371-2.451-0.277c-1.64-1.73,0.578-3.601,2.28-3.76
						c0.578-0.054,1.229-0.028,1.651-0.427c0.31-0.294,0.406-0.745,0.455-1.17c0.321-2.768-0.532-5.103-2.563-6.972
						c-0.638-0.587-1.345-1.117-2.142-1.462c-0.7-0.299-1.456-0.448-2.208-0.555c-4.115-0.584-8.939,0.722-10.528,4.987
						c-0.697,1.873-0.712,3.933-0.492,5.919C106.668,266.853,106.676,266.92,106.683,266.986z"/>
				</g>
			</g>
		</g>
		<path style="fill:#35353F;" d="M122.986,281.608c-1.514,0.587-2.878,1.358-3.385,2.945c-0.468,1.469-0.513,2.967,0.269,4.352
			c0.812,1.439,2.381,2.423,4.03,2.527c1.539,0.098,3.025-0.516,4.445-1.117c3.982-1.685,7.968-3.098,11.624-5.465
			c1.522-0.994,3.058-2.288,3.396-4.075c0.227-1.206-0.17-2.512-1.031-3.386c-2.088-2.121-3.877-0.706-4.232-0.586
			C126.941,280.531,122.743,281.703,122.986,281.608z"/>
		<g>
			<g>
				<g style="enable-background:new    ;">
					<g>
						<polygon style="fill:#FFB700;" points="174.284,245.523 178.036,243.343 178.001,255.733 174.249,257.913 						"/>
					</g>
					<g>
						<polygon style="fill:#FFDE38;" points="170.966,243.608 174.718,241.427 178.036,243.343 174.284,245.523 						"/>
					</g>
					<g>
						<polygon style="fill:#FFC400;" points="174.284,245.523 174.249,257.913 170.931,255.998 170.966,243.608 						"/>
					</g>
				</g>
			</g>
			<g>
				<g style="enable-background:new    ;">
					<g>
						<polygon style="fill:#FFB700;" points="168.543,252.809 172.295,250.628 172.26,263.018 168.508,265.199 						"/>
					</g>
					<g>
						<polygon style="fill:#FFDE38;" points="165.225,250.893 168.977,248.712 172.295,250.628 168.543,252.809 						"/>
					</g>
					<g>
						<polygon style="fill:#FFC400;" points="168.543,252.809 168.508,265.199 165.19,263.283 165.225,250.893 						"/>
					</g>
				</g>
			</g>
			<g>
				<g style="enable-background:new    ;">
					<g style="enable-background:new    ;">
						<defs>
							<path id="SVGID_00000131364398999478374840000017583282552428279211_" style="enable-background:new    ;" d="
								M176.31,243.147l-72.693,42.244c0.595-0.346,1.418-0.297,2.326,0.227l72.692-42.244
								C177.728,242.85,176.905,242.802,176.31,243.147z"/>
						</defs>
						<use xlink:href="#SVGID_00000131364398999478374840000017583282552428279211_"  style="overflow:visible;fill:#FFC400;"/>
						<clipPath id="SVGID_00000174596424134278540030000009369562181514024341_">
							<use xlink:href="#SVGID_00000131364398999478374840000017583282552428279211_"  style="overflow:visible;"/>
						</clipPath>
						<g style="clip-path:url(#SVGID_00000174596424134278540030000009369562181514024341_);enable-background:new    ;">
							<path style="fill:#FFC400;" d="M105.944,285.619l72.692-42.244c-0.005-0.003-0.011-0.006-0.016-0.009l-72.693,42.244
								C105.932,285.612,105.938,285.616,105.944,285.619z"/>
							<path style="fill:#FFC400;" d="M105.927,285.609l72.693-42.244c-0.902-0.515-1.718-0.561-2.31-0.218l-72.693,42.244
								C104.208,285.048,105.026,285.094,105.927,285.609z"/>
						</g>
					</g>
					<g style="enable-background:new    ;">
						<defs>
							<path id="SVGID_00000001659531690165716230000017505227462976084369_" style="enable-background:new    ;" d="
								M108.254,293.371l72.693-42.244c0.587-0.341,0.951-1.066,0.954-2.097c0.006-2.08-1.455-4.61-3.265-5.655l-72.692,42.244
								c1.81,1.045,3.271,3.575,3.265,5.655C109.205,292.304,108.841,293.029,108.254,293.371z"/>
						</defs>
						<use xlink:href="#SVGID_00000001659531690165716230000017505227462976084369_"  style="overflow:visible;fill:#FFB700;"/>
						<clipPath id="SVGID_00000173133049522364853370000012207896457140325304_">
							<use xlink:href="#SVGID_00000001659531690165716230000017505227462976084369_"  style="overflow:visible;"/>
						</clipPath>
						<g style="clip-path:url(#SVGID_00000173133049522364853370000012207896457140325304_);enable-background:new    ;">
							<path style="fill:#FFB700;" d="M108.254,293.371l72.693-42.244c0.346-0.201,0.614-0.535,0.777-0.987l-72.693,42.244
								C108.869,292.835,108.6,293.169,108.254,293.371z"/>
							<path style="fill:#FFB700;" d="M109.031,292.384l72.693-42.244c0.114-0.315,0.176-0.687,0.177-1.11c0-0.02,0-0.041,0-0.061
								l-72.692,42.244c0,0.021,0,0.041,0,0.061C109.207,291.697,109.145,292.069,109.031,292.384z"/>
							<path style="fill:#FFB700;" d="M109.208,291.212l72.692-42.244c-0.006-0.525-0.103-1.076-0.275-1.624l-72.692,42.244
								C109.105,290.136,109.202,290.688,109.208,291.212z"/>
							<path style="fill:#FFC400;" d="M108.933,289.588l72.692-42.244c-0.218-0.696-0.555-1.387-0.976-2.009l-72.692,42.244
								C108.378,288.201,108.715,288.892,108.933,289.588z"/>
							<path style="fill:#FFDE38;" d="M107.957,287.579l72.692-42.244c-0.278-0.411-0.592-0.793-0.933-1.126l-72.692,42.244
								C107.364,286.786,107.679,287.168,107.957,287.579z"/>
							<path style="fill:#FFDE38;" d="M107.024,286.453l72.692-42.244c-0.338-0.331-0.702-0.615-1.081-0.834l-72.692,42.244
								C106.322,285.837,106.686,286.121,107.024,286.453z"/>
						</g>
					</g>
					<g>
						<path style="fill:#8A781E;" d="M105.944,285.619c-1.806-1.043-3.276-0.205-3.282,1.875c-0.006,2.075,1.455,4.605,3.261,5.648
							c1.81,1.045,3.28,0.207,3.286-1.868C109.214,289.194,107.753,286.664,105.944,285.619z"/>
					</g>
				</g>
			</g>
			<g>
				<g style="enable-background:new    ;">
					<g style="enable-background:new    ;">
						<defs>
							<path id="SVGID_00000027600653646945173250000005312368171004425111_" style="enable-background:new    ;" d="
								M94.981,304.916l-6.398-3.718c0.661,0.384,1.071,1.2,1.074,2.362c0.007,2.335-1.638,5.184-3.67,6.357l6.398,3.718
								c2.032-1.174,3.677-4.022,3.67-6.357C96.052,306.116,95.642,305.3,94.981,304.916z"/>
						</defs>
						<use xlink:href="#SVGID_00000027600653646945173250000005312368171004425111_"  style="overflow:visible;fill:#FFDE38;"/>
						<clipPath id="SVGID_00000153671536415286045560000017874602628682686629_">
							<use xlink:href="#SVGID_00000027600653646945173250000005312368171004425111_"  style="overflow:visible;"/>
						</clipPath>
						<g style="clip-path:url(#SVGID_00000153671536415286045560000017874602628682686629_);enable-background:new    ;">
							<path style="fill:#FFDE38;" d="M94.981,304.916l-6.398-3.718c0.661,0.384,1.071,1.2,1.074,2.362
								c0.005,1.831-1.005,3.978-2.421,5.385l6.398,3.718c1.416-1.407,2.426-3.554,2.421-5.385
								C96.052,306.116,95.642,305.3,94.981,304.916z"/>
							<path style="fill:#FFC400;" d="M93.634,312.664l-6.398-3.718c-0.39,0.387-0.811,0.718-1.249,0.972l6.398,3.718
								C92.823,313.382,93.244,313.051,93.634,312.664z"/>
						</g>
					</g>
					<g style="enable-background:new    ;">
						<defs>
							<path id="SVGID_00000155859845445068845050000016735758475453414306_" style="enable-background:new    ;" d="
								M83.363,310.174l6.398,3.718c0.67,0.39,1.599,0.335,2.624-0.257l-6.398-3.718C84.962,310.509,84.033,310.564,83.363,310.174z
								"/>
						</defs>
						<use xlink:href="#SVGID_00000155859845445068845050000016735758475453414306_"  style="overflow:visible;fill:#FFDE38;"/>
						<clipPath id="SVGID_00000101077395488941412840000011184645974915642548_">
							<use xlink:href="#SVGID_00000155859845445068845050000016735758475453414306_"  style="overflow:visible;"/>
						</clipPath>
						<g style="clip-path:url(#SVGID_00000101077395488941412840000011184645974915642548_);">
							<path style="fill:#FFC400;" d="M92.385,313.635l-6.398-3.718c-0.016,0.009-0.033,0.019-0.049,0.028l6.398,3.718
								C92.352,313.654,92.368,313.645,92.385,313.635z"/>
							<path style="fill:#FFC400;" d="M92.336,313.663l-6.398-3.718c-1.006,0.566-1.915,0.612-2.575,0.229l6.398,3.718
								C90.42,314.276,91.33,314.229,92.336,313.663z"/>
						</g>
					</g>
					<g style="enable-background:new    ;">
						<defs>
							<path id="SVGID_00000136408585308609644970000008222235136953176487_" style="enable-background:new    ;" d="
								M109.605,276.271l-6.398-3.718c-1.682-0.959-2.624-1.496-4.307-2.454l6.398,3.718
								C106.981,274.775,107.923,275.312,109.605,276.271z"/>
						</defs>
						<use xlink:href="#SVGID_00000136408585308609644970000008222235136953176487_"  style="overflow:visible;fill:#FFDE38;"/>
						<clipPath id="SVGID_00000148621670858927289140000006760783259614642306_">
							<use xlink:href="#SVGID_00000136408585308609644970000008222235136953176487_"  style="overflow:visible;"/>
						</clipPath>
						<g style="clip-path:url(#SVGID_00000148621670858927289140000006760783259614642306_);enable-background:new    ;">
							<path style="fill:#FFDE38;" d="M109.605,276.271l-6.398-3.718c-1.682-0.959-2.624-1.496-4.307-2.454l6.398,3.718
								C106.981,274.775,107.923,275.312,109.605,276.271z"/>
						</g>
					</g>
					<g>
						<polygon style="fill:#FFC400;" points="85.772,290.03 79.374,286.312 79.446,311.86 85.845,315.578 						"/>
					</g>
					<g>
						<polygon style="fill:#FFDE38;" points="105.298,273.816 98.9,270.098 83.653,278.901 90.051,282.619 						"/>
					</g>
					<g style="enable-background:new    ;">
						<defs>
							<path id="SVGID_00000172400438115104014540000003082006327861012387_" style="enable-background:new    ;" d="
								M90.051,282.619l-6.398-3.718c-1.671,2.895-2.607,4.516-4.279,7.411l6.398,3.718
								C87.444,287.135,88.38,285.514,90.051,282.619z"/>
						</defs>
						<use xlink:href="#SVGID_00000172400438115104014540000003082006327861012387_"  style="overflow:visible;fill:#FFDE38;"/>
						<clipPath id="SVGID_00000072275012654624335560000001298919582777945768_">
							<use xlink:href="#SVGID_00000172400438115104014540000003082006327861012387_"  style="overflow:visible;"/>
						</clipPath>
						<g style="clip-path:url(#SVGID_00000072275012654624335560000001298919582777945768_);">
							<path style="fill:#FFC400;" d="M90.051,282.619l-6.398-3.718c-1.671,2.895-2.607,4.516-4.279,7.411l6.398,3.718
								C87.444,287.135,88.38,285.514,90.051,282.619z"/>
						</g>
					</g>
					<g>
						<path style="fill:#FFB700;" d="M105.298,273.816c1.683,0.959,2.625,1.495,4.307,2.454l0.072,25.548l-4.279,7.416
							l-15.247,8.803l-4.307-2.459l-0.073-25.548c1.672-2.895,2.607-4.516,4.279-7.411L105.298,273.816z M92.385,313.635
							c2.032-1.174,3.677-4.022,3.67-6.357c-0.007-2.34-1.662-3.279-3.694-2.105c-2.036,1.176-3.681,4.02-3.674,6.359
							C88.693,313.868,90.348,314.811,92.385,313.635z"/>
					</g>
				</g>
			</g>
			<g>
				<g style="enable-background:new    ;">
					<g>
						<polygon style="fill:#FFDE38;" points="178.019,240.799 173.997,238.462 171.249,240.048 175.271,242.386 						"/>
					</g>
					<g>
						<polygon style="fill:#FFC400;" points="173.36,236.762 169.338,234.424 169.343,236.242 173.365,238.58 						"/>
					</g>
					<g>
						<polygon style="fill:#FFDE38;" points="175.252,235.669 171.229,233.332 169.338,234.424 173.36,236.762 						"/>
					</g>
					<g>
						<polygon style="fill:#FFDE38;" points="173.365,238.58 169.343,236.242 167.175,237.493 171.197,239.831 						"/>
					</g>
					<g>
						<polygon style="fill:#FFDE38;" points="166.919,242.301 162.897,239.964 160.726,241.217 164.748,243.555 						"/>
					</g>
					<g>
						<polygon style="fill:#FFDE38;" points="171.188,236.593 167.166,234.256 162.888,236.726 166.91,239.064 						"/>
					</g>
					<g>
						<polygon style="fill:#FFC400;" points="166.91,239.064 162.888,236.726 162.897,239.964 166.919,242.301 						"/>
					</g>
					<g>
						<polygon style="fill:#FFDE38;" points="164.743,241.737 160.721,239.399 158.972,240.409 162.994,242.747 						"/>
					</g>
					<g>
						<polygon style="fill:#FFB700;" points="166.91,239.064 166.919,242.301 164.748,243.555 164.743,241.737 162.994,242.747 
							163.03,255.512 178.036,246.849 178.019,240.799 175.271,242.386 175.252,235.669 173.36,236.762 173.365,238.58 
							171.197,239.831 171.188,236.593 						"/>
					</g>
					<g>
						<polygon style="fill:#FFC400;" points="162.994,242.747 158.972,240.409 159.008,253.175 163.03,255.512 						"/>
					</g>
				</g>
			</g>
			<g>
				<g style="enable-background:new    ;">
					<g>
						<polygon style="fill:#FFB700;" points="153.844,248.26 157.596,246.08 157.56,258.47 153.808,260.65 						"/>
					</g>
					<g>
						<polygon style="fill:#FFDE38;" points="150.525,246.345 154.277,244.164 157.596,246.08 153.844,248.26 						"/>
					</g>
					<g>
						<polygon style="fill:#FFC400;" points="153.844,248.26 153.808,260.65 150.491,258.735 150.525,246.345 						"/>
					</g>
				</g>
			</g>
		</g>
		<g>
			<path style="fill:#19121B;" d="M150.033,262.47c-0.206,0.205-0.653,0.418-0.779,0.027c-0.21-0.654,0.014-1.406-0.279-2.027
				c-0.105-0.221-0.322-0.431-0.562-0.384c-0.284,0.057-0.379,0.409-0.413,0.697c-0.081,0.692-0.142,1.396-0.38,2.052
				c-0.178,0.49-0.452,0.938-0.693,1.4c-0.29,0.556-0.534,1.178-0.571,1.806c-0.045,0.762-0.18,1.512-0.43,2.234
				c-0.149,0.431-0.338,0.883-0.238,1.328c0.104,0.467,0.499,0.806,0.889,1.083c0.318,0.227,0.674,0.444,1.065,0.438
				c0.345-0.005,0.668-0.189,0.912-0.433c0.244-0.244,0.421-0.546,0.595-0.844c0.37-0.633,0.716-1.288,1.124-1.895
				c0.401-0.598,0.887-1.133,1.327-1.702c0.676-0.873,1.395-2.029,1.069-3.172c-0.194-0.677-0.533-1.306-0.968-1.859
				c-0.386-0.49-0.783-1.011-1.446-1.077c-0.168-0.017-0.374,0.017-0.44,0.172c-0.068,0.16,0.054,0.329,0.152,0.473
				C150.302,261.281,150.493,261.996,150.033,262.47z"/>
			<path style="fill:#35353F;" d="M148.561,267.157c0.053,0.03,0.106,0.06,0.158,0.091c0.461,0.274,0.92,0.632,1.071,1.146
				c0.149,0.505-0.037,1.022-0.248,1.48c-0.216,0.469-0.382,0.968-0.595,1.445c-0.457,1.028-0.929,2.049-1.399,3.071
				c-0.309,0.671-0.619,1.342-0.949,2.001c-0.969,1.931-2.119,3.754-3.431,5.44c-0.509,0.654-1.329,1.754-2.12,2.07
				c-0.784,0.313-1.584-0.044-2.301-0.549c-1.282-0.899-2.263-2.289-2.085-3.863c0.178-1.579,1.099-2.745,1.964-3.945
				c0.987-1.37,2.018-2.709,3.09-4.014c0.536-0.651,1.081-1.294,1.637-1.927c0.516-0.589,1.011-1.223,1.538-1.789
				c0.278-0.298,0.563-0.591,0.845-0.886c0.167-0.176,0.373-0.403,0.6-0.503c0.23-0.1,0.46,0,0.69,0.072
				C147.559,266.661,148.074,266.883,148.561,267.157z"/>
		</g>
	</g>
	<g>
		<g>
			<g style="enable-background:new    ;">
				<g>
					<polygon style="fill:#E5E3E8;" points="207.858,169.509 209.822,168.368 209.764,193.554 207.8,194.695 					"/>
				</g>
				<g>
					<polygon style="fill:#E5E3E8;" points="117.881,117.561 119.845,116.42 209.822,168.368 207.858,169.509 					"/>
				</g>
				<g>
					<polygon style="fill:#F9F7FC;" points="207.858,169.509 207.8,194.695 117.823,142.747 117.881,117.561 					"/>
				</g>
			</g>
		</g>
		<path style="fill:#231869;" d="M131.569,138.332l-3.383-1.954c1.964,0.605,3.426-0.581,3.426-3.009
			c0-2.829-1.986-6.269-4.436-7.684c-2.45-1.414-4.436-0.268-4.436,2.561c0,2.428,1.463,5.304,3.426,6.966l-3.384-1.954
			c-1.289-0.743-2.343-0.135-2.343,1.353v6.375l13.473,7.778v-6.374C133.912,140.903,132.858,139.077,131.569,138.332z"/>
	</g>
	<g>
		<g>
			<g style="enable-background:new    ;">
				<g>
					<polygon style="fill:#E5E3E8;" points="178.859,200.233 180.824,199.092 180.766,224.278 178.801,225.419 					"/>
				</g>
				<g>
					<polygon style="fill:#E5E3E8;" points="88.882,148.285 90.847,147.143 180.824,199.092 178.859,200.233 					"/>
				</g>
				<g>
					<polygon style="fill:#F9F7FC;" points="178.859,200.233 178.801,225.419 88.825,173.471 88.882,148.285 					"/>
				</g>
			</g>
		</g>
		<g>
			<path style="fill:#231869;" d="M94.608,161.932l3.712,1.557l0.134,2.976l-3.846-2.374V161.932z M96.558,165.525l2.43,2.143
				l-1.309,3.408l-1.79-1.681L96.558,165.525z M99.842,161.624l1.629,4.826l-2.351-0.309l-1.067-4.872L99.842,161.624z
				 M99.922,168.023l3.045,4.502l-1.122,1.079l-3.285-3.932L99.922,168.023z M103.181,166.388l1.095,2.39l-2.698,1.434l-1.575-3.161
				L103.181,166.388z"/>
			<path style="fill:#231869;" d="M105.772,168.378l3.712,1.557l0.134,2.977l-3.846-2.375V168.378z M107.722,171.971l2.43,2.143
				l-1.308,3.408l-1.79-1.681L107.722,171.971z M111.007,168.07l1.629,4.826l-2.35-0.309l-1.068-4.872L111.007,168.07z
				 M111.087,174.468l3.044,4.502l-1.122,1.08l-3.285-3.932L111.087,174.468z M114.345,172.834l1.095,2.39l-2.698,1.434
				l-1.575-3.161L114.345,172.834z"/>
			<path style="fill:#231869;" d="M116.937,174.824l3.712,1.557l0.133,2.975l-3.845-2.374V174.824z M118.886,178.416l2.43,2.143
				l-1.309,3.408l-1.789-1.681L118.886,178.416z M122.171,174.515l1.629,4.826l-2.35-0.309l-1.068-4.872L122.171,174.515z
				 M122.251,180.914l3.044,4.503l-1.122,1.079l-3.285-3.931L122.251,180.914z M125.51,179.28l1.095,2.39l-2.698,1.434l-1.576-3.161
				L125.51,179.28z"/>
			<path style="fill:#231869;" d="M128.102,181.27l3.712,1.557l0.134,2.976l-3.846-2.374V181.27z M130.051,184.862l2.431,2.143
				l-1.309,3.408l-1.79-1.681L130.051,184.862z M133.336,180.961l1.63,4.826l-2.35-0.309l-1.068-4.872L133.336,180.961z
				 M133.416,187.36l3.044,4.502l-1.122,1.08l-3.285-3.932L133.416,187.36z M136.675,185.725l1.094,2.39l-2.697,1.435l-1.575-3.161
				L136.675,185.725z"/>
			<path style="fill:#231869;" d="M139.266,187.715l3.711,1.557l0.134,2.975l-3.845-2.374V187.715z M141.215,191.308l2.431,2.143
				l-1.309,3.408l-1.789-1.68L141.215,191.308z M144.5,187.406l1.629,4.826l-2.35-0.309l-1.068-4.872L144.5,187.406z
				 M144.58,193.805l3.044,4.502l-1.122,1.08l-3.285-3.932L144.58,193.805z M147.839,192.171l1.095,2.39l-2.698,1.434l-1.575-3.161
				L147.839,192.171z"/>
			<path style="fill:#231869;" d="M150.43,194.161l3.711,1.557l0.134,2.976l-3.845-2.374V194.161z M152.38,197.753l2.431,2.143
				l-1.309,3.408l-1.789-1.681L152.38,197.753z M155.664,193.852l1.63,4.826l-2.351-0.309l-1.068-4.872L155.664,193.852z
				 M155.745,200.251l3.044,4.503l-1.122,1.079l-3.285-3.931L155.745,200.251z M159.003,198.617l1.094,2.39l-2.698,1.434
				l-1.575-3.161L159.003,198.617z"/>
		</g>
	</g>
</g>
</svg>
